ply
format ascii 1.0
comment VCGLIB generated
element vertex 16
property float x
property float y
property float z
property float nx
property float ny
property float nz
element face 24
property list uchar int vertex_indices
end_header
-52 41.2 25.5 0 0 -1 
-52 41.2 -25.5 0 0 -1 
-52 -41.2 -25.5 0 0 -1 
-52 -41.2 25.5 0 0 -1 
52 -41.2 -25.5 0 0 -1 
52 41.2 -25.5 0 0 -1 
52 41.2 25.5 0 0 -1 
52 -41.2 25.5 0 0 -1 
-52 41.2 25.5 -0.0 -0.0 1.0 
-52 41.2 -25.5 -0.0 -0.0 1.0 
-52 -41.2 -25.5 -0.0 -0.0 1.0 
-52 -41.2 25.5 -0.0 -0.0 1.0 
52 -41.2 -25.5 -0.0 -0.0 1.0 
52 41.2 -25.5 -0.0 -0.0 1.0 
52 41.2 25.5 -0.0 -0.0 1.0 
52 -41.2 25.5 -0.0 -0.0 1.0 
3 0 1 2 
3 0 2 3 
3 4 5 6 
3 7 4 6 
3 2 4 7 
3 3 2 7 
3 6 5 1 
3 6 1 0 
3 2 1 5 
3 4 2 5 
3 6 0 3 
3 6 3 7 
3 8 9 10 
3 8 10 11 
3 12 13 14 
3 15 12 14 
3 10 12 15 
3 11 10 15 
3 14 13 9 
3 14 9 8 
3 10 9 13 
3 12 10 13 
3 14 8 11 
3 14 11 15 