ply
format ascii 1.0
comment VCGLIB generated
element vertex 482
property float x
property float y
property float z
property float nx
property float ny
property float nz
element face 996
property list uchar int vertex_indices
end_header
19 30 -1.5 -0.1405597 -0.9739552 -0.1779168 
1.75 25.0311 -1.5 0.14793 -0.9762305 -0.1584007 
3.031101 23.75 -1.5 -0.01156357 -0.9750373 -0.2217397 
19 17.4097 -1.5 -0.8883516 -0.4118861 0.202932 
0 25.5 -1.5 0.005193702 -0.994576 -0.103883 
-19 30 -1.5 0.1394373 -0.9734715 -0.1814127 
19 15.6063 -6.614801 -0.8275004 -0.5491394 0.1169997 
19 30 -16.9997 -0.574185 -0.7886126 0.2200038 
-1.75 25.0311 -1.5 -0.1486904 -0.9756134 -0.1614611 
-1.75 25.0311 -8 -0.9122004 0.3691778 0.1777589 
0 25.5 -8 -0.9999667 0.008153706 -0.0001864547 
-3.0311 23.75 -1.5 0.01140286 -0.9745173 -0.2240223 
-3.0311 23.75 -8 -0.9690995 0.1480163 0.1973255 
-3.567502 28.5972 -8 -0.07020336 -0.968323 -0.2396291 
-6.2761 26.1062 -8 -0.1288068 -0.9915338 0.01641742 
-3.5 22 -8 -0.9796225 -0.008153438 0.2006818 
-7.473799 22.6266 -8 0.5666814 -0.82273 0.044582 
-19 17.4097 -1.5 0.8866607 -0.4167863 0.2003047 
-3.5 22 -1.5 0.001944893 -0.9718154 -0.2357352 
-6.872199 18.9961 -8 0.282541 -0.9452048 0.1635804 
-3.0311 20.25 -8 -0.954083 -0.1869046 0.2340775 
-7.4124 23.1428 -22.89531 -0.1788497 -0.952303 0.2472485 
-6.921102 24.8893 -22.24691 -0.4191568 -0.8296699 0.3687212 
-7.464199 21.2684 -22.9712 -0.1445311 -0.9508244 0.273941 
-8.250099 22.7398 -24.40341 -0.1644473 -0.9452391 0.2819221 
-5.775299 26.785 -20.3452 -0.4425447 -0.8295092 0.3406884 
-19 30 -17.1997 0.5778382 -0.7895936 0.2065062 
-8.9256 20.3019 -26.8449 0.6938157 -0.6156749 0.373583 
-9 -1 -28 0.7656826 -0.2320684 0.5998954 
-7.794201 -1 -23.5 0.7341605 -0.352408 0.5803593 
-7.065398 19.4841 -22.4251 -0.1862506 -0.9360861 0.2984186 
-6.276201 17.8939 -21.5495 -0.1413127 -0.9376324 0.3176102 
-4.5 -1 -20.2058 0.712612 -0.421055 0.5611567 
-4.3301 -1 -25.5 0.7559376 -0.3243082 0.5686673 
-2.5 -1 -23.6699 0.6336561 -0.6640896 0.3968186 
-4.616097 16.0889 -8 0.1531652 -0.948762 0.2763894 
-3.738498 15.4983 -19.8133 -0.9799375 0.153914 0.1266216 
-1.75 18.9689 -8 -0.9914172 -0.09426998 0.09058207 
-1.248699 14.6047 -8 -0.165899 -0.7162976 0.6777871 
-1.9865 14.768 -19.2221 -0.9949136 -0.03345537 0.09501386 
-0.08270117 14.5005 -19.0004 -0.999691 -0.02234727 -0.01088352 
0 -1 -19 -0.1745836 -0.7007484 0.6917169 
1.824301 14.7253 -19.18691 -0.9943689 0.02517079 -0.1029419 
1.248699 14.6047 -8 0.1492904 -0.7069229 0.6913555 
0 14.5 -8.124 -0.998835 -0.04802164 0.004763073 
4.5 -1 -20.2058 -0.6923949 -0.4737468 0.5441997 
0 -1 -23 -0.5800959 -0.7726759 0.2577997 
3.5971 15.419 -19.7502 -0.9784254 -0.1453438 -0.1468291 
6.191496 17.7674 -21.4682 0.07640769 -0.9543974 0.2885958 
7.794199 -1 -23.5 -0.7326062 -0.356547 0.5797951 
2.5 -1 -23.6699 -0.6329573 -0.6622029 0.401064 
4.616102 16.0889 -8 -0.154035 -0.9471794 0.2812908 
6.872199 18.9961 -8 -0.3085769 -0.9358567 0.1701543 
7.011496 19.3375 -22.3574 0.1575483 -0.9416253 0.2975236 
1.75 18.9689 -8 -0.9903984 0.1055728 -0.08924921 
3.031101 20.25 -8 -0.9668096 0.07921771 -0.2429069 
3.5 22 -8 -0.979839 0.02180332 -0.1985956 
7.473801 22.6266 -8 -0.5640928 -0.8241379 0.05095196 
7.446699 21.1074 -22.9453 0.1698447 -0.9408033 0.293329 
7.435203 22.9835 -22.9285 0.1979975 -0.945052 0.2601418 
8.286504 22.5682 -24.488 0.1557929 -0.9459733 0.2843641 
3.031101 23.75 -8 -0.9712436 -0.1344561 -0.1964876 
6.276102 26.1062 -8 0.1580945 -0.9872602 -0.01798336 
6.979598 24.745 -22.318 0.4179538 -0.8306484 0.3678829 
8.936902 20.1166 -26.9362 -0.69635 -0.6112543 0.3761182 
5.873297 26.6641 -20.4047 0.439198 -0.8313283 0.3405854 
4.254801 28.1763 -18.901 0.3212181 -0.9094672 0.2639853 
3.567502 28.5972 -8 0.06996144 -0.9687543 -0.2379508 
2.265098 29.14981 -17.93799 0.2795806 -0.9387073 0.2016513 
1.75 25.0311 -8 -0.9162915 -0.3586323 -0.178305 
0 29.5 -8 0.1290956 -0.8589646 -0.4954939 
0.07780078 29.4996 -17.5997 -0.01465435 -0.9577475 0.2872367 
-2.116299 29.1952 -17.9156 -0.6061591 -0.6267897 0.4895975 
3.5 22 -1.5 -0.002424564 -0.9723111 -0.2336774 
3.031101 20.25 -1.5 -0.07183251 -0.9965113 0.04248767 
1.75 18.9689 -1.5 -0.3330988 -0.9394359 0.08065601 
0 18.5 -1.5 0.001105636 -0.9905811 0.1369231 
0 18.5 -8 -0.999989 0.004596523 0.0009575937 
-1.75 18.9689 -1.5 0.3348645 -0.9388248 0.08045966 
-19 11.8064 -10.4844 0.7890729 -0.4294488 0.4392467 
-19 15.6063 -6.614801 0.8272721 -0.5498781 0.1151301 
19 11.8064 -10.4844 -0.7890925 -0.4288841 0.4397629 
19 6.725199 -12.3804 -0.8810509 -0.2203034 0.4185877 
19 8 -39 -0.6678197 0.04710859 0.7428309 
-19 6.725199 -12.3804 0.8673707 -0.206786 0.4526671 
-3.0311 20.25 -1.5 0.07421269 -0.9963373 0.04247889 
-19 8.199996 -39 0.6672115 0.04158803 0.7437064 
-19 1.319301 -11.9458 0.8524283 0.07206743 0.5178535 
-19 -3.393799 -9.2625 -0.9178347 -0.2630191 -0.297322 
19 1.319301 -11.9458 -0.8592991 0.05839889 0.5081286 
19 -3.393799 -9.2625 -0.9185422 0.2649333 0.2934119 
-19 -6.526801 -4.835601 -0.9793605 -0.2005765 -0.02493998 
-19 -30 -39 0.590067 -0.1800885 0.7870128 
19 -6.526801 -4.835601 -0.979682 0.1991931 0.02334967 
19 -30 -39 -0.6138096 -0.1652024 0.7719753 
-19 -7.489901 0.5016016 -0.9848691 -0.168681 -0.0397429 
19 -7.489901 0.5016016 -0.9849821 0.1685725 0.03733138 
-19 -6.101901 5.744399 -0.9896145 -0.02004444 0.1423424 
-19 -30 39 -0.6220162 0.2811325 0.7307944 
19 -6.101901 5.744399 -0.9896145 0.02004439 -0.1423425 
19 -30 39 -0.6220161 -0.2811324 -0.7307944 
-19 -2.624 9.905801 -0.8537447 -0.2087718 0.4770056 
19 -2.624 9.905801 -0.8537447 0.2087718 -0.4770056 
-19 2.289102 12.2025 -0.8633343 -0.1080557 0.4929278 
-19 8 39 -0.6995381 0.07578262 0.7105656 
19 2.289102 12.2025 -0.8633343 0.1080558 -0.4929278 
19 8 39 -0.6995379 -0.07578463 -0.7105656 
-19 7.712496 12.2021 -0.873284 0.1829098 0.4515739 
19 7.712496 12.2021 -0.873284 -0.1829095 -0.4515741 
-19 12.6253 9.9048 -0.8832309 0.3440691 0.3186214 
19 12.6253 9.9048 -0.8832309 -0.344069 -0.3186215 
-19 16.1026 5.742902 0.9150628 -0.3957458 -0.07775105 
-19 30 17 0.7564553 -0.5738276 -0.3138428 
19 30 17 -0.7564549 -0.5738282 -0.3138427 
19 16.1026 5.742902 -0.9150628 -0.3957459 -0.07775113 
-19 17.49 0.5 0.9364855 -0.2375562 0.2579962 
-19 30 0.5 0.5890223 -0.8063111 -0.05399331 
19 30 0.5 -0.5897123 -0.8057513 -0.05481143 
19 17.49 0.5 -0.9411242 -0.2260516 0.2513681 
1.75 25.0311 0.5 0.194688 -0.9740005 0.1158436 
0 25.5 0.5 -0.9999542 0.005144233 0.008071269 
3.031101 23.75 0.5 -0.04494617 -0.9920019 0.1179494 
1.346398 25.2307 19.1013 0.03511222 -0.9478711 -0.3167135 
2.475701 24.474 19.3472 -0.1506537 -0.9392374 -0.3084421 
-1.75 25.0311 0.5 -0.1937824 -0.9741457 0.1161406 
-1.3464 25.2307 19.1013 -0.03511289 -0.9478711 -0.3167135 
0 25.5 19 -0.0113149 -0.9498199 -0.3125926 
1.755799 27.8271 19.1729 -0.1531855 -0.9421773 -0.2980539 
0 28 19 -0.0122441 -0.9552362 -0.2955907 
3.231098 23.3453 19.6 -0.06645331 -0.9546582 -0.2901925 
3.4441 27.3149 19.6851 -0.1575263 -0.9374531 -0.3104306 
-1.755799 27.8271 19.1729 0.153185 -0.9421774 -0.2980541 
-2.475701 24.474 19.3472 0.1506529 -0.9392375 -0.3084421 
-3.444199 27.3149 19.6851 0.1575251 -0.9374537 -0.3104292 
-3.0311 23.75 0.5 0.04494606 -0.992002 0.1179493 
-3.2311 23.3453 19.6 0.06645241 -0.9546582 -0.2901927 
-6.364 25.364 21.636 0.2412203 -0.917995 -0.3147982 
-3.5 22 19.7084 0.1390591 -0.9470458 -0.2894249 
-3.5 22 0.5 0.06868786 -0.9972696 0.02711689 
-3.0311 20.25 0.5 0.05388259 -0.9968663 -0.05791513 
-3.2311 20.6547 19.6 0.3805305 -0.8708735 -0.3110883 
-4.5 -1 20.2058 -0.7181533 -0.151671 0.6791552 
-2.475701 19.526 19.3472 -0.9719878 0.1862842 0.1433108 
-1.75 18.9689 0.5 0.2493745 -0.9678313 -0.03339117 
0 18.5 0.5 0.006460389 -0.9983654 -0.05678715 
-1.3464 18.7694 19.1013 -0.9764788 0.1895572 0.1027481 
0 -1 19 2.360115e-06 -0.2660339 0.9639637 
0 18.5 19 -0.9988683 0.03971212 0.02617247 
1.75 18.9689 0.5 -0.2493745 -0.9678313 -0.03339113 
1.346398 18.7694 19.1013 -0.9764781 -0.18956 -0.1027501 
3.5 22 0.5 -0.06868786 -0.9972696 0.02711689 
3.031101 20.25 0.5 -0.0538826 -0.9968663 -0.05791502 
2.475701 19.526 19.3472 -0.9719867 -0.1862881 -0.1433134 
3.231098 20.6547 19.6 -0.3805311 -0.8708732 -0.3110884 
4.5 -1 20.2058 -0.7181535 0.1516698 -0.6791552 
3.5 22 19.7084 -0.1390598 -0.9470458 -0.2894247 
6.364 25.364 21.636 -0.2412208 -0.917995 -0.3147979 
7.794199 -1 23.5 -0.7352433 0.2444547 -0.6321861 
8.314898 22.4441 24.5559 -0.6755753 -0.5320201 -0.5104437 
9 19 28 -0.4983125 -0.3739379 -0.7822117 
9 -1 28 -0.726139 -0.1819656 -0.6630314 
8.314898 15.5559 31.4442 -0.3893209 -0.3012493 -0.8704471 
4.330101 -1 25.5 -0.7199751 0.01208799 -0.6938946 
5 -1 28 -0.7107495 0.08683157 -0.6980655 
7.794199 -1 32.5 -0.5706408 -0.5409828 -0.6178241 
6.364 12.636 34.364 -0.3087152 0.4605468 0.8322209 
2.5 -1 32.3301 -0.6383548 -0.06628051 -0.7668833 
4.5 -1 35.7942 -0.6245708 -0.03705456 -0.7800886 
4.330101 -1 30.5 -0.656041 -0.08980689 -0.749363 
5 -30 28 -0.9933993 -0.02767637 0.1113183 
4.330101 -30 25.5 -0.9369985 -0.3166298 -0.1475782 
4.330101 -30 30.5 -0.5384789 -0.5070848 -0.6729825 
0 -1 33 0.04835303 0.1003875 0.9937728 
2.5 -30 32.3301 -0.5315086 -0.4854835 -0.6941214 
2.5 -30 23.6699 -0.8048787 -0.4189154 -0.4203334 
4.330101 -30 -25.5 -0.7957532 -0.3006126 0.525746 
0 -30 33 -0.5237771 0.4722148 0.7089927 
-2.5 -30 32.3301 -0.5315088 0.4854838 0.6941209 
-2.5 -1 32.3301 -0.6383546 0.06627998 0.7668836 
-4.3301 -1 30.5 -0.6560408 0.08980638 0.7493632 
-4.3301 -30 30.5 -0.5384791 0.507085 0.6729822 
-4.5 -1 35.7942 -0.6245706 0.03705413 0.7800888 
-7.794201 -1 32.5 -0.5706418 0.5409809 0.617825 
-5 -1 28 -0.7107493 -0.08683375 0.6980655 
-9 -1 28 -0.7261392 0.1819648 0.6630315 
-5 -30 28 -0.9933989 0.02767531 -0.1113225 
-4.3301 -1 25.5 -0.719975 -0.01209009 0.6938947 
-4.3301 -30 25.5 -0.936999 0.3166294 0.1475758 
-4.3301 -30 -25.5 0.7993214 -0.3045022 0.5180383 
-2.5 -30 23.6699 -0.8048792 0.4189163 0.4203315 
-2.5 -1 23.6699 -0.5709916 0.01860783 0.820745 
-7.794201 -1 23.5 -0.7352431 -0.2444561 0.6321858 
0 -1 23 2.089815e-06 -0.5131347 0.8583081 
-8.3149 22.4441 24.5559 -0.6755754 0.5320195 0.510444 
2.5 -1 23.6699 -0.5709927 -0.0186099 -0.8207442 
0 -30 23 -0.8053781 -0.4172609 -0.421022 
0 -30 -23 -0.9999812 0.00121017 0.006012603 
2.5 -30 -23.6699 0.8665872 -0.1402624 0.4789082 
-2.5 -30 -23.6699 -0.8643653 -0.134172 0.4846343 
4.330101 -1 -25.5 -0.7552899 -0.3270344 0.5679663 
5 -1 -28 -0.7348866 -0.3161278 0.6000041 
5 -30 -28 -0.7838567 -0.3367799 0.5216779 
9 -1 -28 -0.7649843 -0.2318356 0.6008754 
4.330101 -30 -30.5 -0.6392301 -0.4290263 0.6382173 
4.330101 -1 -30.5 -0.6697818 -0.09590974 0.736338 
2.5 -30 -32.3301 -0.5333378 -0.4345575 0.7257483 
2.5 -1 -32.3301 -0.6527255 -0.1293755 0.746466 
7.794199 -1 -32.5 -0.574574 -0.3504048 0.7396494 
0 -30 -33 -0.003456725 -0.5747743 0.8183047 
0 -1 -33 -0.2382428 -0.07751535 0.9681073 
-2.5 -30 -32.3301 0.5339461 -0.4371118 0.7237644 
4.5 -1 -35.7942 -0.1362464 -0.9339578 0.3303932 
-2.5 -1 -32.3301 0.6532327 -0.1253887 0.7467026 
0 -1 -37 -0.01198764 -0.7224746 0.6912936 
-4.5 -1 -35.7942 0.5221727 -0.1103974 0.8456643 
-4.3301 -30 -30.5 0.6396961 -0.431135 0.6363266 
-4.3301 -1 -30.5 0.6707214 -0.06790247 0.7385947 
-7.794201 -1 -32.5 0.6428062 -0.05442457 0.764093 
-2.552102 10.4828 -36.6306 -0.1614827 -0.179889 0.9703419 
-6.775199 13.2113 -33.9242 -0.481558 -0.3422835 0.8068109 
-4.856 11.548 -35.5776 -0.3592849 -0.2097574 0.9093493 
-8.1577 15.3412 -31.80159 -0.4254168 -0.3490947 0.8349572 
-8.8939 17.7689 -29.3778 0.7737702 -0.3874575 0.501155 
-0.04600195 10.1003 -36.9999 -0.007690165 -0.1409329 0.9899893 
2.463701 10.4308 -36.6562 0.147095 -0.1787831 0.9728308 
4.778297 11.448 -35.6268 0.3389094 -0.2065281 0.9178707 
6.714297 13.0714 -33.9932 0.4831563 -0.3361156 0.8084468 
8.118402 15.1724 -31.8848 0.5376416 -0.3534774 0.7655032 
8.879398 17.5845 -29.4687 -0.7456701 -0.3596677 0.5609057 
-5 -30 -28 0.7858536 -0.338543 0.517516 
-5 -1 -28 0.7367715 -0.3167056 0.5973821 
-4.125699 28.2633 -18.8582 -0.3271128 -0.9080122 0.2617464 
-9 19 28 -0.4983121 0.3739381 0.7822118 
-8.3149 15.5559 31.4442 -0.3893194 0.3012496 0.8704476 
-6.364 12.636 34.364 -0.308716 -0.4605466 -0.8322207 
0 10 37 0.001395031 0.08231859 0.9966051 
-3.444199 10.6851 36.3149 0.05735881 0.06091004 0.9964938 
-1.755799 10.1729 36.8271 -0.001915411 0.03661285 0.9993277 
0 -1 37 -0.06578447 -0.6788267 -0.7313458 
1.755799 10.1729 36.8271 0.001924903 0.03661313 0.9993277 
3.4441 10.6851 36.3149 -0.05734587 0.06091046 0.9964945 
19 30 -1.5 0.1405597 0.9739552 0.1779168 
1.75 25.0311 -1.5 -0.14793 0.9762305 0.1584007 
3.031101 23.75 -1.5 0.01156357 0.9750373 0.2217397 
19 17.4097 -1.5 0.8883516 0.4118861 -0.202932 
0 25.5 -1.5 -0.005193702 0.994576 0.103883 
-19 30 -1.5 -0.1394373 0.9734715 0.1814127 
19 15.6063 -6.614801 0.8275004 0.5491394 -0.1169997 
19 30 -16.9997 0.574185 0.7886126 -0.2200038 
-1.75 25.0311 -1.5 0.1486904 0.9756134 0.1614611 
-1.75 25.0311 -8 0.9122004 -0.3691778 -0.1777589 
0 25.5 -8 0.9999667 -0.008153706 0.0001864547 
-3.0311 23.75 -1.5 -0.01140286 0.9745173 0.2240223 
-3.0311 23.75 -8 0.9690995 -0.1480163 -0.1973255 
-3.567502 28.5972 -8 0.07020336 0.968323 0.2396291 
-6.2761 26.1062 -8 0.1288068 0.9915338 -0.01641742 
-3.5 22 -8 0.9796225 0.008153438 -0.2006818 
-7.473799 22.6266 -8 -0.5666814 0.82273 -0.044582 
-19 17.4097 -1.5 -0.8866607 0.4167863 -0.2003047 
-3.5 22 -1.5 -0.001944893 0.9718154 0.2357352 
-6.872199 18.9961 -8 -0.282541 0.9452048 -0.1635804 
-3.0311 20.25 -8 0.954083 0.1869046 -0.2340775 
-7.4124 23.1428 -22.89531 0.1788497 0.952303 -0.2472485 
-6.921102 24.8893 -22.24691 0.4191568 0.8296699 -0.3687212 
-7.464199 21.2684 -22.9712 0.1445311 0.9508244 -0.273941 
-8.250099 22.7398 -24.40341 0.1644473 0.9452391 -0.2819221 
-5.775299 26.785 -20.3452 0.4425447 0.8295092 -0.3406884 
-19 30 -17.1997 -0.5778382 0.7895936 -0.2065062 
-8.9256 20.3019 -26.8449 -0.6938157 0.6156749 -0.373583 
-9 -1 -28 -0.7656826 0.2320684 -0.5998954 
-7.794201 -1 -23.5 -0.7341605 0.352408 -0.5803593 
-7.065398 19.4841 -22.4251 0.1862506 0.9360861 -0.2984186 
-6.276201 17.8939 -21.5495 0.1413127 0.9376324 -0.3176102 
-4.5 -1 -20.2058 -0.712612 0.421055 -0.5611567 
-4.3301 -1 -25.5 -0.7559376 0.3243082 -0.5686673 
-2.5 -1 -23.6699 -0.6336561 0.6640896 -0.3968186 
-4.616097 16.0889 -8 -0.1531652 0.948762 -0.2763894 
-3.738498 15.4983 -19.8133 0.9799375 -0.153914 -0.1266216 
-1.75 18.9689 -8 0.9914172 0.09426998 -0.09058207 
-1.248699 14.6047 -8 0.165899 0.7162976 -0.6777871 
-1.9865 14.768 -19.2221 0.9949136 0.03345537 -0.09501386 
-0.08270117 14.5005 -19.0004 0.999691 0.02234727 0.01088352 
0 -1 -19 0.1745836 0.7007484 -0.6917169 
1.824301 14.7253 -19.18691 0.9943689 -0.02517079 0.1029419 
1.248699 14.6047 -8 -0.1492904 0.7069229 -0.6913555 
0 14.5 -8.124 0.998835 0.04802164 -0.004763073 
4.5 -1 -20.2058 0.6923949 0.4737468 -0.5441997 
0 -1 -23 0.5800959 0.7726759 -0.2577997 
3.5971 15.419 -19.7502 0.9784254 0.1453438 0.1468291 
6.191496 17.7674 -21.4682 -0.07640769 0.9543974 -0.2885958 
7.794199 -1 -23.5 0.7326062 0.356547 -0.5797951 
2.5 -1 -23.6699 0.6329573 0.6622029 -0.401064 
4.616102 16.0889 -8 0.154035 0.9471794 -0.2812908 
6.872199 18.9961 -8 0.3085769 0.9358567 -0.1701543 
7.011496 19.3375 -22.3574 -0.1575483 0.9416253 -0.2975236 
1.75 18.9689 -8 0.9903984 -0.1055728 0.08924921 
3.031101 20.25 -8 0.9668096 -0.07921771 0.2429069 
3.5 22 -8 0.979839 -0.02180332 0.1985956 
7.473801 22.6266 -8 0.5640928 0.8241379 -0.05095196 
7.446699 21.1074 -22.9453 -0.1698447 0.9408033 -0.293329 
7.435203 22.9835 -22.9285 -0.1979975 0.945052 -0.2601418 
8.286504 22.5682 -24.488 -0.1557929 0.9459733 -0.2843641 
3.031101 23.75 -8 0.9712436 0.1344561 0.1964876 
6.276102 26.1062 -8 -0.1580945 0.9872602 0.01798336 
6.979598 24.745 -22.318 -0.4179538 0.8306484 -0.3678829 
8.936902 20.1166 -26.9362 0.69635 0.6112543 -0.3761182 
5.873297 26.6641 -20.4047 -0.439198 0.8313283 -0.3405854 
4.254801 28.1763 -18.901 -0.3212181 0.9094672 -0.2639853 
3.567502 28.5972 -8 -0.06996144 0.9687543 0.2379508 
2.265098 29.14981 -17.93799 -0.2795806 0.9387073 -0.2016513 
1.75 25.0311 -8 0.9162915 0.3586323 0.178305 
0 29.5 -8 -0.1290956 0.8589646 0.4954939 
0.07780078 29.4996 -17.5997 0.01465435 0.9577475 -0.2872367 
-2.116299 29.1952 -17.9156 0.6061591 0.6267897 -0.4895975 
3.5 22 -1.5 0.002424564 0.9723111 0.2336774 
3.031101 20.25 -1.5 0.07183251 0.9965113 -0.04248767 
1.75 18.9689 -1.5 0.3330988 0.9394359 -0.08065601 
0 18.5 -1.5 -0.001105636 0.9905811 -0.1369231 
0 18.5 -8 0.999989 -0.004596523 -0.0009575937 
-1.75 18.9689 -1.5 -0.3348645 0.9388248 -0.08045966 
-19 11.8064 -10.4844 -0.7890729 0.4294488 -0.4392467 
-19 15.6063 -6.614801 -0.8272721 0.5498781 -0.1151301 
19 11.8064 -10.4844 0.7890925 0.4288841 -0.4397629 
19 6.725199 -12.3804 0.8810509 0.2203034 -0.4185877 
19 8 -39 0.6678197 -0.04710859 -0.7428309 
-19 6.725199 -12.3804 -0.8673707 0.206786 -0.4526671 
-3.0311 20.25 -1.5 -0.07421269 0.9963373 -0.04247889 
-19 8.199996 -39 -0.6672115 -0.04158803 -0.7437064 
-19 1.319301 -11.9458 -0.8524283 -0.07206743 -0.5178535 
-19 -3.393799 -9.2625 0.9178347 0.2630191 0.297322 
19 1.319301 -11.9458 0.8592991 -0.05839889 -0.5081286 
19 -3.393799 -9.2625 0.9185422 -0.2649333 -0.2934119 
-19 -6.526801 -4.835601 0.9793605 0.2005765 0.02493998 
-19 -30 -39 -0.590067 0.1800885 -0.7870128 
19 -6.526801 -4.835601 0.979682 -0.1991931 -0.02334967 
19 -30 -39 0.6138096 0.1652024 -0.7719753 
-19 -7.489901 0.5016016 0.9848691 0.168681 0.0397429 
19 -7.489901 0.5016016 0.9849821 -0.1685725 -0.03733138 
-19 -6.101901 5.744399 0.9896145 0.02004444 -0.1423424 
-19 -30 39 0.6220162 -0.2811325 -0.7307944 
19 -6.101901 5.744399 0.9896145 -0.02004439 0.1423425 
19 -30 39 0.6220161 0.2811324 0.7307944 
-19 -2.624 9.905801 0.8537447 0.2087718 -0.4770056 
19 -2.624 9.905801 0.8537447 -0.2087718 0.4770056 
-19 2.289102 12.2025 0.8633343 0.1080557 -0.4929278 
-19 8 39 0.6995381 -0.07578262 -0.7105656 
19 2.289102 12.2025 0.8633343 -0.1080558 0.4929278 
19 8 39 0.6995379 0.07578463 0.7105656 
-19 7.712496 12.2021 0.873284 -0.1829098 -0.4515739 
19 7.712496 12.2021 0.873284 0.1829095 0.4515741 
-19 12.6253 9.9048 0.8832309 -0.3440691 -0.3186214 
19 12.6253 9.9048 0.8832309 0.344069 0.3186215 
-19 16.1026 5.742902 -0.9150628 0.3957458 0.07775105 
-19 30 17 -0.7564553 0.5738276 0.3138428 
19 30 17 0.7564549 0.5738282 0.3138427 
19 16.1026 5.742902 0.9150628 0.3957459 0.07775113 
-19 17.49 0.5 -0.9364855 0.2375562 -0.2579962 
-19 30 0.5 -0.5890223 0.8063111 0.05399331 
19 30 0.5 0.5897123 0.8057513 0.05481143 
19 17.49 0.5 0.9411242 0.2260516 -0.2513681 
1.75 25.0311 0.5 -0.194688 0.9740005 -0.1158436 
0 25.5 0.5 0.9999542 -0.005144233 -0.008071269 
3.031101 23.75 0.5 0.04494617 0.9920019 -0.1179494 
1.346398 25.2307 19.1013 -0.03511222 0.9478711 0.3167135 
2.475701 24.474 19.3472 0.1506537 0.9392374 0.3084421 
-1.75 25.0311 0.5 0.1937824 0.9741457 -0.1161406 
-1.3464 25.2307 19.1013 0.03511289 0.9478711 0.3167135 
0 25.5 19 0.0113149 0.9498199 0.3125926 
1.755799 27.8271 19.1729 0.1531855 0.9421773 0.2980539 
0 28 19 0.0122441 0.9552362 0.2955907 
3.231098 23.3453 19.6 0.06645331 0.9546582 0.2901925 
3.4441 27.3149 19.6851 0.1575263 0.9374531 0.3104306 
-1.755799 27.8271 19.1729 -0.153185 0.9421774 0.2980541 
-2.475701 24.474 19.3472 -0.1506529 0.9392375 0.3084421 
-3.444199 27.3149 19.6851 -0.1575251 0.9374537 0.3104292 
-3.0311 23.75 0.5 -0.04494606 0.992002 -0.1179493 
-3.2311 23.3453 19.6 -0.06645241 0.9546582 0.2901927 
-6.364 25.364 21.636 -0.2412203 0.917995 0.3147982 
-3.5 22 19.7084 -0.1390591 0.9470458 0.2894249 
-3.5 22 0.5 -0.06868786 0.9972696 -0.02711689 
-3.0311 20.25 0.5 -0.05388259 0.9968663 0.05791513 
-3.2311 20.6547 19.6 -0.3805305 0.8708735 0.3110883 
-4.5 -1 20.2058 0.7181533 0.151671 -0.6791552 
-2.475701 19.526 19.3472 0.9719878 -0.1862842 -0.1433108 
-1.75 18.9689 0.5 -0.2493745 0.9678313 0.03339117 
0 18.5 0.5 -0.006460389 0.9983654 0.05678715 
-1.3464 18.7694 19.1013 0.9764788 -0.1895572 -0.1027481 
0 -1 19 -2.360115e-06 0.2660339 -0.9639637 
0 18.5 19 0.9988683 -0.03971212 -0.02617247 
1.75 18.9689 0.5 0.2493745 0.9678313 0.03339113 
1.346398 18.7694 19.1013 0.9764781 0.18956 0.1027501 
3.5 22 0.5 0.06868786 0.9972696 -0.02711689 
3.031101 20.25 0.5 0.0538826 0.9968663 0.05791502 
2.475701 19.526 19.3472 0.9719867 0.1862881 0.1433134 
3.231098 20.6547 19.6 0.3805311 0.8708732 0.3110884 
4.5 -1 20.2058 0.7181535 -0.1516698 0.6791552 
3.5 22 19.7084 0.1390598 0.9470458 0.2894247 
6.364 25.364 21.636 0.2412208 0.917995 0.3147979 
7.794199 -1 23.5 0.7352433 -0.2444547 0.6321861 
8.314898 22.4441 24.5559 0.6755753 0.5320201 0.5104437 
9 19 28 0.4983125 0.3739379 0.7822117 
9 -1 28 0.726139 0.1819656 0.6630314 
8.314898 15.5559 31.4442 0.3893209 0.3012493 0.8704471 
4.330101 -1 25.5 0.7199751 -0.01208799 0.6938946 
5 -1 28 0.7107495 -0.08683157 0.6980655 
7.794199 -1 32.5 0.5706408 0.5409828 0.6178241 
6.364 12.636 34.364 0.3087152 -0.4605468 -0.8322209 
2.5 -1 32.3301 0.6383548 0.06628051 0.7668833 
4.5 -1 35.7942 0.6245708 0.03705456 0.7800886 
4.330101 -1 30.5 0.656041 0.08980689 0.749363 
5 -30 28 0.9933993 0.02767637 -0.1113183 
4.330101 -30 25.5 0.9369985 0.3166298 0.1475782 
4.330101 -30 30.5 0.5384789 0.5070848 0.6729825 
0 -1 33 -0.04835303 -0.1003875 -0.9937728 
2.5 -30 32.3301 0.5315086 0.4854835 0.6941214 
2.5 -30 23.6699 0.8048787 0.4189154 0.4203334 
4.330101 -30 -25.5 0.7957532 0.3006126 -0.525746 
0 -30 33 0.5237771 -0.4722148 -0.7089927 
-2.5 -30 32.3301 0.5315088 -0.4854838 -0.6941209 
-2.5 -1 32.3301 0.6383546 -0.06627998 -0.7668836 
-4.3301 -1 30.5 0.6560408 -0.08980638 -0.7493632 
-4.3301 -30 30.5 0.5384791 -0.507085 -0.6729822 
-4.5 -1 35.7942 0.6245706 -0.03705413 -0.7800888 
-7.794201 -1 32.5 0.5706418 -0.5409809 -0.617825 
-5 -1 28 0.7107493 0.08683375 -0.6980655 
-9 -1 28 0.7261392 -0.1819648 -0.6630315 
-5 -30 28 0.9933989 -0.02767531 0.1113225 
-4.3301 -1 25.5 0.719975 0.01209009 -0.6938947 
-4.3301 -30 25.5 0.936999 -0.3166294 -0.1475758 
-4.3301 -30 -25.5 -0.7993214 0.3045022 -0.5180383 
-2.5 -30 23.6699 0.8048792 -0.4189163 -0.4203315 
-2.5 -1 23.6699 0.5709916 -0.01860783 -0.820745 
-7.794201 -1 23.5 0.7352431 0.2444561 -0.6321858 
0 -1 23 -2.089815e-06 0.5131347 -0.8583081 
-8.3149 22.4441 24.5559 0.6755754 -0.5320195 -0.510444 
2.5 -1 23.6699 0.5709927 0.0186099 0.8207442 
0 -30 23 0.8053781 0.4172609 0.421022 
0 -30 -23 0.9999812 -0.00121017 -0.006012603 
2.5 -30 -23.6699 -0.8665872 0.1402624 -0.4789082 
-2.5 -30 -23.6699 0.8643653 0.134172 -0.4846343 
4.330101 -1 -25.5 0.7552899 0.3270344 -0.5679663 
5 -1 -28 0.7348866 0.3161278 -0.6000041 
5 -30 -28 0.7838567 0.3367799 -0.5216779 
9 -1 -28 0.7649843 0.2318356 -0.6008754 
4.330101 -30 -30.5 0.6392301 0.4290263 -0.6382173 
4.330101 -1 -30.5 0.6697818 0.09590974 -0.736338 
2.5 -30 -32.3301 0.5333378 0.4345575 -0.7257483 
2.5 -1 -32.3301 0.6527255 0.1293755 -0.746466 
7.794199 -1 -32.5 0.574574 0.3504048 -0.7396494 
0 -30 -33 0.003456725 0.5747743 -0.8183047 
0 -1 -33 0.2382428 0.07751535 -0.9681073 
-2.5 -30 -32.3301 -0.5339461 0.4371118 -0.7237644 
4.5 -1 -35.7942 0.1362464 0.9339578 -0.3303932 
-2.5 -1 -32.3301 -0.6532327 0.1253887 -0.7467026 
0 -1 -37 0.01198764 0.7224746 -0.6912936 
-4.5 -1 -35.7942 -0.5221727 0.1103974 -0.8456643 
-4.3301 -30 -30.5 -0.6396961 0.431135 -0.6363266 
-4.3301 -1 -30.5 -0.6707214 0.06790247 -0.7385947 
-7.794201 -1 -32.5 -0.6428062 0.05442457 -0.764093 
-2.552102 10.4828 -36.6306 0.1614827 0.179889 -0.9703419 
-6.775199 13.2113 -33.9242 0.481558 0.3422835 -0.8068109 
-4.856 11.548 -35.5776 0.3592849 0.2097574 -0.9093493 
-8.1577 15.3412 -31.80159 0.4254168 0.3490947 -0.8349572 
-8.8939 17.7689 -29.3778 -0.7737702 0.3874575 -0.501155 
-0.04600195 10.1003 -36.9999 0.007690165 0.1409329 -0.9899893 
2.463701 10.4308 -36.6562 -0.147095 0.1787831 -0.9728308 
4.778297 11.448 -35.6268 -0.3389094 0.2065281 -0.9178707 
6.714297 13.0714 -33.9932 -0.4831563 0.3361156 -0.8084468 
8.118402 15.1724 -31.8848 -0.5376416 0.3534774 -0.7655032 
8.879398 17.5845 -29.4687 0.7456701 0.3596677 -0.5609057 
-5 -30 -28 -0.7858536 0.338543 -0.517516 
-5 -1 -28 -0.7367715 0.3167056 -0.5973821 
-4.125699 28.2633 -18.8582 0.3271128 0.9080122 -0.2617464 
-9 19 28 0.4983121 -0.3739381 -0.7822118 
-8.3149 15.5559 31.4442 0.3893194 -0.3012496 -0.8704476 
-6.364 12.636 34.364 0.308716 0.4605466 0.8322207 
0 10 37 -0.001395031 -0.08231859 -0.9966051 
-3.444199 10.6851 36.3149 -0.05735881 -0.06091004 -0.9964938 
-1.755799 10.1729 36.8271 0.001915411 -0.03661285 -0.9993277 
0 -1 37 0.06578447 0.6788267 0.7313458 
1.755799 10.1729 36.8271 -0.001924903 -0.03661313 -0.9993277 
3.4441 10.6851 36.3149 0.05734587 -0.06091046 -0.9964945 
3 0 1 2 
3 3 0 2 
3 4 1 0 
3 5 4 0 
3 0 6 7 
3 3 6 0 
3 0 7 5 
3 8 4 5 
3 8 9 4 
3 10 4 9 
3 4 10 1 
3 8 5 11 
3 12 9 8 
3 11 12 8 
3 13 9 14 
3 10 9 13 
3 12 14 9 
3 12 15 16 
3 14 12 16 
3 12 11 15 
3 17 18 11 
3 5 17 11 
3 18 15 11 
3 16 15 19 
3 20 19 15 
3 20 15 18 
3 19 21 16 
3 22 16 21 
3 16 22 14 
3 23 21 19 
3 21 23 24 
3 22 21 24 
3 22 25 14 
3 22 24 26 
3 25 22 26 
3 24 27 26 
3 24 28 27 
3 24 29 28 
3 24 23 29 
3 30 23 19 
3 23 30 29 
3 31 30 19 
3 29 30 31 
3 32 29 31 
3 33 29 34 
3 28 29 33 
3 32 34 29 
3 31 35 36 
3 35 31 19 
3 36 32 31 
3 19 20 35 
3 35 37 38 
3 20 37 35 
3 38 36 35 
3 39 36 38 
3 36 39 32 
3 40 39 38 
3 39 40 41 
3 32 39 41 
3 42 40 43 
3 44 43 40 
3 44 40 38 
3 41 40 42 
3 45 41 42 
3 41 45 46 
3 32 41 46 
3 47 42 43 
3 47 45 42 
3 45 48 49 
3 47 48 45 
3 46 45 50 
3 49 50 45 
3 47 51 48 
3 51 47 43 
3 52 48 51 
3 53 48 52 
3 48 53 49 
3 43 54 51 
3 55 51 54 
3 51 55 52 
3 52 56 57 
3 55 56 52 
3 58 53 52 
3 57 58 52 
3 58 49 53 
3 59 58 57 
3 58 60 49 
3 59 60 58 
3 61 57 56 
3 57 61 62 
3 63 59 57 
3 62 63 57 
3 59 63 60 
3 60 7 64 
3 60 63 7 
3 64 49 60 
3 65 63 62 
3 63 65 7 
3 66 65 62 
3 65 66 7 
3 66 67 68 
3 67 66 62 
3 66 68 7 
3 62 69 67 
3 10 67 69 
3 70 67 10 
3 70 68 67 
3 71 68 70 
3 7 68 71 
3 70 10 13 
3 72 71 70 
3 13 72 70 
3 10 69 1 
3 1 69 2 
3 61 69 62 
3 61 2 69 
3 73 3 2 
3 2 61 73 
3 61 56 73 
3 73 74 3 
3 73 56 74 
3 55 74 56 
3 74 75 3 
3 74 55 75 
3 55 54 75 
3 75 76 3 
3 75 54 76 
3 77 54 43 
3 77 76 54 
3 76 78 17 
3 3 76 17 
3 76 77 78 
3 77 38 37 
3 38 77 43 
3 77 37 78 
3 6 43 44 
3 6 38 43 
3 79 38 80 
3 79 44 38 
3 6 80 38 
3 81 7 6 
3 3 80 6 
3 6 44 81 
3 81 44 79 
3 81 82 83 
3 7 81 83 
3 81 84 82 
3 84 81 79 
3 7 26 5 
3 83 64 7 
3 7 71 26 
3 5 26 80 
3 17 5 80 
3 85 17 78 
3 85 18 17 
3 3 17 80 
3 78 37 85 
3 20 85 37 
3 85 20 18 
3 80 26 79 
3 79 86 84 
3 26 86 79 
3 87 82 84 
3 87 84 86 
3 87 88 89 
3 82 87 89 
3 88 87 86 
3 82 89 83 
3 89 90 83 
3 89 88 90 
3 91 90 88 
3 92 88 86 
3 91 88 92 
3 90 93 94 
3 83 90 94 
3 90 91 93 
3 91 95 93 
3 91 92 95 
3 93 96 94 
3 93 95 96 
3 97 96 95 
3 98 97 95 
3 92 98 95 
3 96 99 100 
3 94 96 100 
3 96 97 99 
3 97 101 99 
3 101 97 98 
3 99 102 100 
3 99 101 102 
3 103 102 101 
3 104 101 98 
3 103 101 104 
3 102 105 106 
3 100 102 106 
3 102 103 105 
3 103 107 105 
3 107 103 104 
3 105 108 106 
3 105 107 108 
3 109 108 107 
3 107 104 109 
3 108 110 106 
3 108 109 110 
3 109 111 110 
3 109 112 111 
3 104 112 109 
3 106 110 113 
3 114 113 110 
3 110 111 114 
3 115 114 111 
3 116 111 112 
3 115 111 116 
3 117 113 114 
3 118 117 114 
3 118 114 115 
3 119 120 117 
3 121 119 117 
3 118 121 117 
3 117 120 116 
3 117 116 113 
3 122 119 123 
3 120 119 122 
3 121 123 119 
3 120 124 116 
3 120 125 124 
3 126 125 120 
3 126 120 122 
3 123 127 122 
3 128 122 127 
3 126 122 128 
3 123 121 129 
3 130 127 123 
3 129 130 123 
3 127 130 113 
3 127 113 128 
3 128 131 125 
3 126 128 125 
3 112 131 128 
3 113 112 128 
3 125 131 132 
3 133 132 131 
3 133 131 112 
3 132 124 125 
3 134 124 132 
3 135 134 132 
3 135 132 133 
3 133 136 137 
3 135 133 137 
3 136 133 112 
3 135 138 134 
3 135 137 138 
3 124 134 116 
3 134 138 115 
3 116 134 115 
3 138 139 115 
3 138 137 140 
3 139 138 140 
3 141 137 136 
3 140 137 141 
3 142 139 140 
3 142 140 141 
3 139 143 115 
3 139 142 143 
3 115 143 144 
3 115 144 118 
3 145 143 142 
3 144 143 145 
3 146 142 141 
3 145 142 146 
3 147 144 145 
3 147 145 146 
3 144 148 118 
3 144 149 148 
3 147 149 144 
3 150 121 118 
3 151 150 118 
3 148 151 118 
3 152 148 149 
3 151 148 152 
3 149 147 146 
3 149 146 152 
3 153 151 152 
3 154 153 152 
3 146 154 152 
3 151 153 150 
3 150 155 129 
3 121 150 129 
3 153 155 150 
3 155 153 154 
3 130 155 154 
3 129 155 130 
3 130 154 156 
3 130 156 113 
3 156 157 158 
3 154 157 156 
3 156 158 113 
3 113 159 106 
3 158 159 113 
3 116 112 113 
3 160 158 157 
3 159 158 160 
3 159 160 161 
3 159 161 106 
3 162 163 160 
3 160 163 164 
3 157 162 160 
3 160 164 161 
3 161 164 165 
3 161 165 106 
3 164 166 167 
3 168 166 164 
3 163 168 164 
3 167 165 164 
3 169 163 170 
3 168 163 169 
3 162 170 163 
3 168 171 166 
3 171 168 169 
3 172 167 166 
3 173 166 171 
3 172 166 173 
3 171 100 173 
3 171 169 100 
3 100 169 170 
3 170 162 174 
3 175 170 174 
3 175 100 170 
3 98 100 106 
3 100 98 176 
3 173 100 176 
3 175 94 100 
3 176 172 173 
3 177 178 176 
3 172 176 178 
3 176 98 177 
3 179 178 177 
3 180 179 177 
3 180 177 98 
3 181 178 182 
3 172 178 181 
3 179 182 178 
3 179 183 184 
3 182 179 184 
3 179 180 183 
3 185 183 180 
3 185 180 98 
3 183 186 184 
3 186 183 185 
3 187 186 185 
3 187 185 98 
3 104 98 106 
3 188 98 92 
3 188 187 98 
3 189 190 187 
3 186 187 190 
3 189 187 188 
3 186 190 191 
3 184 186 191 
3 191 190 141 
3 192 141 190 
3 192 190 189 
3 191 141 136 
3 191 193 184 
3 193 191 136 
3 146 141 192 
3 146 192 154 
3 192 194 154 
3 192 195 194 
3 195 192 189 
3 154 194 157 
3 162 157 194 
3 174 194 195 
3 162 194 174 
3 195 189 196 
3 174 195 196 
3 197 174 196 
3 175 174 197 
3 198 34 196 
3 46 196 34 
3 196 46 197 
3 198 196 189 
3 198 189 188 
3 33 34 198 
3 188 33 198 
3 34 32 46 
3 46 50 197 
3 197 50 175 
3 199 175 50 
3 199 50 49 
3 199 200 201 
3 175 199 201 
3 199 49 200 
3 202 49 64 
3 49 202 200 
3 201 200 203 
3 204 203 200 
3 200 202 204 
3 201 203 94 
3 175 201 94 
3 203 204 205 
3 203 205 94 
3 204 206 205 
3 204 207 206 
3 202 207 204 
3 205 206 208 
3 94 205 208 
3 83 94 92 
3 92 94 208 
3 209 208 206 
3 208 209 210 
3 210 92 208 
3 211 206 207 
3 206 211 209 
3 209 212 210 
3 213 214 209 
3 211 213 209 
3 209 214 212 
3 210 212 215 
3 210 215 92 
3 216 215 212 
3 212 217 216 
3 214 217 212 
3 214 213 218 
3 214 219 217 
3 220 219 214 
3 220 214 218 
3 217 221 222 
3 28 217 222 
3 219 221 217 
3 28 216 217 
3 219 220 86 
3 221 219 86 
3 220 218 86 
3 218 223 86 
3 213 223 218 
3 223 224 83 
3 86 223 83 
3 224 223 213 
3 211 224 213 
3 224 225 83 
3 225 224 211 
3 211 207 226 
3 225 211 226 
3 225 226 83 
3 226 227 83 
3 226 207 227 
3 228 64 83 
3 227 228 83 
3 86 83 92 
3 202 227 207 
3 228 227 202 
3 228 202 64 
3 229 188 92 
3 215 229 92 
3 229 230 188 
3 216 230 229 
3 215 216 229 
3 33 188 230 
3 230 216 28 
3 230 28 33 
3 27 28 222 
3 27 222 86 
3 26 27 86 
3 222 221 86 
3 231 25 26 
3 72 231 26 
3 71 72 26 
3 14 231 13 
3 25 231 14 
3 72 13 231 
3 193 136 112 
3 193 232 184 
3 232 193 112 
3 104 232 112 
3 184 232 233 
3 233 232 104 
3 182 184 233 
3 234 182 233 
3 234 233 104 
3 104 106 235 
3 236 234 104 
3 237 236 104 
3 237 104 235 
3 234 236 181 
3 182 234 181 
3 237 181 236 
3 237 238 181 
3 237 235 238 
3 238 235 239 
3 235 106 239 
3 240 239 106 
3 165 240 106 
3 167 238 239 
3 240 167 239 
3 238 167 172 
3 238 172 181 
3 240 165 167 
3 241 242 243 
3 244 241 243 
3 245 242 241 
3 246 245 241 
3 241 247 248 
3 244 247 241 
3 241 248 246 
3 249 245 246 
3 249 250 245 
3 251 245 250 
3 245 251 242 
3 249 246 252 
3 253 250 249 
3 252 253 249 
3 254 250 255 
3 251 250 254 
3 253 255 250 
3 253 256 257 
3 255 253 257 
3 253 252 256 
3 258 259 252 
3 246 258 252 
3 259 256 252 
3 257 256 260 
3 261 260 256 
3 261 256 259 
3 260 262 257 
3 263 257 262 
3 257 263 255 
3 264 262 260 
3 262 264 265 
3 263 262 265 
3 263 266 255 
3 263 265 267 
3 266 263 267 
3 265 268 267 
3 265 269 268 
3 265 270 269 
3 265 264 270 
3 271 264 260 
3 264 271 270 
3 272 271 260 
3 270 271 272 
3 273 270 272 
3 274 270 275 
3 269 270 274 
3 273 275 270 
3 272 276 277 
3 276 272 260 
3 277 273 272 
3 260 261 276 
3 276 278 279 
3 261 278 276 
3 279 277 276 
3 280 277 279 
3 277 280 273 
3 281 280 279 
3 280 281 282 
3 273 280 282 
3 283 281 284 
3 285 284 281 
3 285 281 279 
3 282 281 283 
3 286 282 283 
3 282 286 287 
3 273 282 287 
3 288 283 284 
3 288 286 283 
3 286 289 290 
3 288 289 286 
3 287 286 291 
3 290 291 286 
3 288 292 289 
3 292 288 284 
3 293 289 292 
3 294 289 293 
3 289 294 290 
3 284 295 292 
3 296 292 295 
3 292 296 293 
3 293 297 298 
3 296 297 293 
3 299 294 293 
3 298 299 293 
3 299 290 294 
3 300 299 298 
3 299 301 290 
3 300 301 299 
3 302 298 297 
3 298 302 303 
3 304 300 298 
3 303 304 298 
3 300 304 301 
3 301 248 305 
3 301 304 248 
3 305 290 301 
3 306 304 303 
3 304 306 248 
3 307 306 303 
3 306 307 248 
3 307 308 309 
3 308 307 303 
3 307 309 248 
3 303 310 308 
3 251 308 310 
3 311 308 251 
3 311 309 308 
3 312 309 311 
3 248 309 312 
3 311 251 254 
3 313 312 311 
3 254 313 311 
3 251 310 242 
3 242 310 243 
3 302 310 303 
3 302 243 310 
3 314 244 243 
3 243 302 314 
3 302 297 314 
3 314 315 244 
3 314 297 315 
3 296 315 297 
3 315 316 244 
3 315 296 316 
3 296 295 316 
3 316 317 244 
3 316 295 317 
3 318 295 284 
3 318 317 295 
3 317 319 258 
3 244 317 258 
3 317 318 319 
3 318 279 278 
3 279 318 284 
3 318 278 319 
3 247 284 285 
3 247 279 284 
3 320 279 321 
3 320 285 279 
3 247 321 279 
3 322 248 247 
3 244 321 247 
3 247 285 322 
3 322 285 320 
3 322 323 324 
3 248 322 324 
3 322 325 323 
3 325 322 320 
3 248 267 246 
3 324 305 248 
3 248 312 267 
3 246 267 321 
3 258 246 321 
3 326 258 319 
3 326 259 258 
3 244 258 321 
3 319 278 326 
3 261 326 278 
3 326 261 259 
3 321 267 320 
3 320 327 325 
3 267 327 320 
3 328 323 325 
3 328 325 327 
3 328 329 330 
3 323 328 330 
3 329 328 327 
3 323 330 324 
3 330 331 324 
3 330 329 331 
3 332 331 329 
3 333 329 327 
3 332 329 333 
3 331 334 335 
3 324 331 335 
3 331 332 334 
3 332 336 334 
3 332 333 336 
3 334 337 335 
3 334 336 337 
3 338 337 336 
3 339 338 336 
3 333 339 336 
3 337 340 341 
3 335 337 341 
3 337 338 340 
3 338 342 340 
3 342 338 339 
3 340 343 341 
3 340 342 343 
3 344 343 342 
3 345 342 339 
3 344 342 345 
3 343 346 347 
3 341 343 347 
3 343 344 346 
3 344 348 346 
3 348 344 345 
3 346 349 347 
3 346 348 349 
3 350 349 348 
3 348 345 350 
3 349 351 347 
3 349 350 351 
3 350 352 351 
3 350 353 352 
3 345 353 350 
3 347 351 354 
3 355 354 351 
3 351 352 355 
3 356 355 352 
3 357 352 353 
3 356 352 357 
3 358 354 355 
3 359 358 355 
3 359 355 356 
3 360 361 358 
3 362 360 358 
3 359 362 358 
3 358 361 357 
3 358 357 354 
3 363 360 364 
3 361 360 363 
3 362 364 360 
3 361 365 357 
3 361 366 365 
3 367 366 361 
3 367 361 363 
3 364 368 363 
3 369 363 368 
3 367 363 369 
3 364 362 370 
3 371 368 364 
3 370 371 364 
3 368 371 354 
3 368 354 369 
3 369 372 366 
3 367 369 366 
3 353 372 369 
3 354 353 369 
3 366 372 373 
3 374 373 372 
3 374 372 353 
3 373 365 366 
3 375 365 373 
3 376 375 373 
3 376 373 374 
3 374 377 378 
3 376 374 378 
3 377 374 353 
3 376 379 375 
3 376 378 379 
3 365 375 357 
3 375 379 356 
3 357 375 356 
3 379 380 356 
3 379 378 381 
3 380 379 381 
3 382 378 377 
3 381 378 382 
3 383 380 381 
3 383 381 382 
3 380 384 356 
3 380 383 384 
3 356 384 385 
3 356 385 359 
3 386 384 383 
3 385 384 386 
3 387 383 382 
3 386 383 387 
3 388 385 386 
3 388 386 387 
3 385 389 359 
3 385 390 389 
3 388 390 385 
3 391 362 359 
3 392 391 359 
3 389 392 359 
3 393 389 390 
3 392 389 393 
3 390 388 387 
3 390 387 393 
3 394 392 393 
3 395 394 393 
3 387 395 393 
3 392 394 391 
3 391 396 370 
3 362 391 370 
3 394 396 391 
3 396 394 395 
3 371 396 395 
3 370 396 371 
3 371 395 397 
3 371 397 354 
3 397 398 399 
3 395 398 397 
3 397 399 354 
3 354 400 347 
3 399 400 354 
3 357 353 354 
3 401 399 398 
3 400 399 401 
3 400 401 402 
3 400 402 347 
3 403 404 401 
3 401 404 405 
3 398 403 401 
3 401 405 402 
3 402 405 406 
3 402 406 347 
3 405 407 408 
3 409 407 405 
3 404 409 405 
3 408 406 405 
3 410 404 411 
3 409 404 410 
3 403 411 404 
3 409 412 407 
3 412 409 410 
3 413 408 407 
3 414 407 412 
3 413 407 414 
3 412 341 414 
3 412 410 341 
3 341 410 411 
3 411 403 415 
3 416 411 415 
3 416 341 411 
3 339 341 347 
3 341 339 417 
3 414 341 417 
3 416 335 341 
3 417 413 414 
3 418 419 417 
3 413 417 419 
3 417 339 418 
3 420 419 418 
3 421 420 418 
3 421 418 339 
3 422 419 423 
3 413 419 422 
3 420 423 419 
3 420 424 425 
3 423 420 425 
3 420 421 424 
3 426 424 421 
3 426 421 339 
3 424 427 425 
3 427 424 426 
3 428 427 426 
3 428 426 339 
3 345 339 347 
3 429 339 333 
3 429 428 339 
3 430 431 428 
3 427 428 431 
3 430 428 429 
3 427 431 432 
3 425 427 432 
3 432 431 382 
3 433 382 431 
3 433 431 430 
3 432 382 377 
3 432 434 425 
3 434 432 377 
3 387 382 433 
3 387 433 395 
3 433 435 395 
3 433 436 435 
3 436 433 430 
3 395 435 398 
3 403 398 435 
3 415 435 436 
3 403 435 415 
3 436 430 437 
3 415 436 437 
3 438 415 437 
3 416 415 438 
3 439 275 437 
3 287 437 275 
3 437 287 438 
3 439 437 430 
3 439 430 429 
3 274 275 439 
3 429 274 439 
3 275 273 287 
3 287 291 438 
3 438 291 416 
3 440 416 291 
3 440 291 290 
3 440 441 442 
3 416 440 442 
3 440 290 441 
3 443 290 305 
3 290 443 441 
3 442 441 444 
3 445 444 441 
3 441 443 445 
3 442 444 335 
3 416 442 335 
3 444 445 446 
3 444 446 335 
3 445 447 446 
3 445 448 447 
3 443 448 445 
3 446 447 449 
3 335 446 449 
3 324 335 333 
3 333 335 449 
3 450 449 447 
3 449 450 451 
3 451 333 449 
3 452 447 448 
3 447 452 450 
3 450 453 451 
3 454 455 450 
3 452 454 450 
3 450 455 453 
3 451 453 456 
3 451 456 333 
3 457 456 453 
3 453 458 457 
3 455 458 453 
3 455 454 459 
3 455 460 458 
3 461 460 455 
3 461 455 459 
3 458 462 463 
3 269 458 463 
3 460 462 458 
3 269 457 458 
3 460 461 327 
3 462 460 327 
3 461 459 327 
3 459 464 327 
3 454 464 459 
3 464 465 324 
3 327 464 324 
3 465 464 454 
3 452 465 454 
3 465 466 324 
3 466 465 452 
3 452 448 467 
3 466 452 467 
3 466 467 324 
3 467 468 324 
3 467 448 468 
3 469 305 324 
3 468 469 324 
3 327 324 333 
3 443 468 448 
3 469 468 443 
3 469 443 305 
3 470 429 333 
3 456 470 333 
3 470 471 429 
3 457 471 470 
3 456 457 470 
3 274 429 471 
3 471 457 269 
3 471 269 274 
3 268 269 463 
3 268 463 327 
3 267 268 327 
3 463 462 327 
3 472 266 267 
3 313 472 267 
3 312 313 267 
3 255 472 254 
3 266 472 255 
3 313 254 472 
3 434 377 353 
3 434 473 425 
3 473 434 353 
3 345 473 353 
3 425 473 474 
3 474 473 345 
3 423 425 474 
3 475 423 474 
3 475 474 345 
3 345 347 476 
3 477 475 345 
3 478 477 345 
3 478 345 476 
3 475 477 422 
3 423 475 422 
3 478 422 477 
3 478 479 422 
3 478 476 479 
3 479 476 480 
3 476 347 480 
3 481 480 347 
3 406 481 347 
3 408 479 480 
3 481 408 480 
3 479 408 413 
3 479 413 422 
3 481 406 408 