ply
format ascii 1.0
comment VCGLIB generated
element vertex 352
property float x
property float y
property float z
property float nx
property float ny
property float nz
element face 696
property list uchar int vertex_indices
end_header
20 0 50 1.526037e-08 -1.740428e-15 -1 
20 0 -50 0 0 1 
19.94904 1.426784 -50 0 0 1 
19.94904 1.426784 50 7.500911e-08 5.364758e-09 -1 
19.79643 2.846297 50 -2.349982e-08 -3.378766e-09 -1 
19.79643 2.846297 -50 0 0 1 
19.54294 4.251306 -50 0 0 1 
19.54294 4.251306 50 1.101992e-08 2.397239e-09 -1 
19.18986 5.634651 50 7.513791e-09 2.206248e-09 -1 
19.18986 5.634651 -50 0 0 1 
18.73899 6.989284 50 1.147495e-08 4.279931e-09 -1 
18.73899 6.989284 -50 0 0 1 
18.19264 8.3083 50 1.350832e-08 6.169039e-09 -1 
18.19264 8.3083 -50 0 0 1 
17.55358 9.58498 -50 0 0 1 
17.55358 9.58498 50 -3.062037e-08 -1.671999e-08 -1 
16.82507 10.81282 50 -5.648781e-08 -3.630251e-08 -1 
16.82507 10.81282 -50 0 0 1 
16.01082 11.98555 50 -5.334575e-08 -3.993414e-08 -1 
16.01082 11.98555 -50 0 0 1 
15.11499 13.09721 -50 0 0 1 
15.11499 13.09721 50 -1.495082e-08 -1.295496e-08 -1 
14.14214 14.14214 50 -2.369695e-08 -2.369695e-08 -1 
14.14214 14.14214 -50 0 0 1 
13.09721 15.11499 -50 0 0 1 
13.09721 15.11499 50 -1.597266e-08 -1.843344e-08 -1 
11.98555 16.01082 50 -3.993414e-08 -5.334575e-08 -1 
11.98555 16.01082 -50 0 0 1 
10.81282 16.82507 -50 0 0 1 
10.81282 16.82507 50 2.928903e-08 4.557463e-08 -1 
9.58498 17.55358 -50 0 0 1 
9.58498 17.55358 50 -1.311414e-08 -2.401675e-08 -1 
8.3083 18.19264 50 -1.311416e-09 -2.871596e-09 -1 
8.3083 18.19264 -50 0 0 1 
6.989284 18.73899 -50 0 0 1 
6.989284 18.73899 50 -3.363161e-09 -9.016985e-09 -1 
5.634651 19.18986 -50 0 0 1 
5.634651 19.18986 50 2.514434e-09 8.563378e-09 -1 
4.251306 19.54294 -50 0 0 1 
4.251306 19.54294 50 1.253863e-08 5.763915e-08 -1 
2.846297 19.79643 50 -2.788248e-09 -1.939269e-08 -1 
2.846297 19.79643 -50 0 0 1 
1.426784 19.94904 -50 0 0 1 
1.426784 19.94904 50 6.194845e-09 8.661524e-08 -1 
0 20 -50 0 0 1 
0 20 50 -1.740428e-15 1.526037e-08 -1 
-1.426784 19.94904 -50 0 0 1 
-1.426784 19.94904 50 -6.194845e-09 8.661524e-08 -1 
-2.846297 19.79643 50 2.788248e-09 -1.939269e-08 -1 
-2.846297 19.79643 -50 0 0 1 
-4.251306 19.54294 -50 0 0 1 
-4.251306 19.54294 50 -1.253863e-08 5.763915e-08 -1 
-5.634651 19.18986 -50 0 0 1 
-5.634651 19.18986 50 -2.514434e-09 8.563378e-09 -1 
-6.989284 18.73899 -50 0 0 1 
-6.989284 18.73899 50 3.363161e-09 -9.016985e-09 -1 
-8.3083 18.19264 50 1.311416e-09 -2.871596e-09 -1 
-8.3083 18.19264 -50 0 0 1 
-9.58498 17.55358 -50 0 0 1 
-9.58498 17.55358 50 3.808278e-09 -6.974349e-09 -1 
-10.81282 16.82507 -50 0 0 1 
-10.81282 16.82507 50 -2.928903e-08 4.557463e-08 -1 
-11.98555 16.01082 -50 0 0 1 
-11.98555 16.01082 50 3.993414e-08 -5.334575e-08 -1 
-13.09721 15.11499 -50 0 0 1 
-13.09721 15.11499 50 1.597266e-08 -1.843344e-08 -1 
-14.14214 14.14214 -50 0 0 1 
-14.14214 14.14214 50 2.656825e-08 -2.656826e-08 -1 
-15.11499 13.09721 -50 0 0 1 
-15.11499 13.09721 50 1.495082e-08 -1.295496e-08 -1 
-16.01082 11.98555 -50 0 0 1 
-16.01082 11.98555 50 5.334575e-08 -3.993414e-08 -1 
-16.82507 10.81282 -50 0 0 1 
-16.82507 10.81282 50 -3.846952e-08 2.472286e-08 -1 
-17.55358 9.58498 -50 0 0 1 
-17.55358 9.58498 50 1.32896e-08 -7.256668e-09 -1 
-18.19264 8.3083 -50 0 0 1 
-18.19264 8.3083 50 -1.350832e-08 6.169039e-09 -1 
-18.73899 6.989284 -50 0 0 1 
-18.73899 6.989284 50 -1.147495e-08 4.279931e-09 -1 
-19.18986 5.634651 -50 0 0 1 
-19.18986 5.634651 50 -7.513791e-09 2.206248e-09 -1 
-19.54294 4.251306 -50 0 0 1 
-19.54294 4.251306 50 -3.518128e-08 7.653217e-09 -1 
-19.79643 2.846297 -50 0 0 1 
-19.79643 2.846297 50 2.286633e-08 -3.287684e-09 -1 
-19.94904 1.426784 -50 0 0 1 
-19.94904 1.426784 50 -7.48559e-08 5.353801e-09 -1 
-20 0 -50 0 0 1 
-20 0 50 -1.526037e-08 -1.740428e-15 -1 
-19.94904 -1.426784 -50 0 0 1 
-19.94904 -1.426784 50 -7.48559e-08 -5.353801e-09 -1 
-19.79643 -2.846297 -50 0 0 1 
-19.79643 -2.846297 50 2.286633e-08 3.287684e-09 -1 
-19.54294 -4.251306 -50 0 0 1 
-19.54294 -4.251306 50 -3.518128e-08 -7.653217e-09 -1 
-19.18986 -5.634651 -50 0 0 1 
-19.18986 -5.634651 50 -7.513791e-09 -2.206248e-09 -1 
-18.73899 -6.989284 -50 0 0 1 
-18.73899 -6.989284 50 -1.147495e-08 -4.279931e-09 -1 
-18.19264 -8.3083 -50 0 0 1 
-18.19264 -8.3083 50 -1.350832e-08 -6.169039e-09 -1 
-17.55358 -9.58498 -50 0 0 1 
-17.55358 -9.58498 50 1.32896e-08 7.256668e-09 -1 
-16.82507 -10.81282 -50 0 0 1 
-16.82507 -10.81282 50 -3.846952e-08 -2.472286e-08 -1 
-16.01082 -11.98555 -50 0 0 1 
-16.01082 -11.98555 50 5.334575e-08 3.993414e-08 -1 
-15.11499 -13.09721 -50 0 0 1 
-15.11499 -13.09721 50 1.495082e-08 1.295496e-08 -1 
-14.14214 -14.14214 -50 0 0 1 
-14.14214 -14.14214 50 2.201349e-08 2.201349e-08 -1 
-13.09721 -15.11499 -50 0 0 1 
-13.09721 -15.11499 50 1.597266e-08 1.843344e-08 -1 
-11.98555 -16.01082 -50 0 0 1 
-11.98555 -16.01082 50 3.993414e-08 5.334575e-08 -1 
-10.81282 -16.82507 -50 0 0 1 
-10.81282 -16.82507 50 -1.166709e-08 -1.815435e-08 -1 
-9.58498 -17.55358 50 3.808278e-09 6.974349e-09 -1 
-9.58498 -17.55358 -50 0 0 1 
-8.3083 -18.19264 -50 0 0 1 
-8.3083 -18.19264 50 1.311416e-09 2.871596e-09 -1 
-6.989284 -18.73899 50 3.363161e-09 9.016985e-09 -1 
-6.989284 -18.73899 -50 0 0 1 
-5.634651 -19.18986 50 -2.514434e-09 -8.563378e-09 -1 
-5.634651 -19.18986 -50 0 0 1 
-4.251306 -19.54294 50 -1.253863e-08 -5.763915e-08 -1 
-4.251306 -19.54294 -50 0 0 1 
-2.846297 -19.79643 -50 0 0 1 
-2.846297 -19.79643 50 2.788248e-09 1.939269e-08 -1 
-1.426784 -19.94904 50 -6.194845e-09 -8.661524e-08 -1 
-1.426784 -19.94904 -50 0 0 1 
0 -20 50 1.740428e-15 -1.526037e-08 -1 
0 -20 -50 0 0 1 
1.426784 -19.94904 50 6.194845e-09 -8.661524e-08 -1 
1.426784 -19.94904 -50 0 0 1 
2.846297 -19.79643 -50 0 0 1 
2.846297 -19.79643 50 -2.788248e-09 1.939269e-08 -1 
4.251306 -19.54294 50 -8.089158e-09 3.718528e-08 -1 
4.251306 -19.54294 -50 0 0 1 
5.634651 -19.18986 50 2.514434e-09 -8.563378e-09 -1 
5.634651 -19.18986 -50 0 0 1 
6.989284 -18.73899 50 -3.363161e-09 9.016985e-09 -1 
6.989284 -18.73899 -50 0 0 1 
8.3083 -18.19264 -50 0 0 1 
8.3083 -18.19264 50 -1.311416e-09 2.871596e-09 -1 
9.58498 -17.55358 50 -3.808278e-09 6.974349e-09 -1 
9.58498 -17.55358 -50 0 0 1 
10.81282 -16.82507 50 2.928903e-08 -4.557463e-08 -1 
10.81282 -16.82507 -50 0 0 1 
11.98555 -16.01082 50 -3.993414e-08 5.334575e-08 -1 
11.98555 -16.01082 -50 0 0 1 
13.09721 -15.11499 -50 0 0 1 
13.09721 -15.11499 50 -1.597266e-08 1.843344e-08 -1 
14.14214 -14.14214 50 -3.112302e-08 3.112302e-08 -1 
14.14214 -14.14214 -50 0 0 1 
15.11499 -13.09721 50 -1.495082e-08 1.295496e-08 -1 
15.11499 -13.09721 -50 0 0 1 
16.01082 -11.98555 50 -5.334575e-08 3.993414e-08 -1 
16.01082 -11.98555 -50 0 0 1 
16.82507 -10.81282 -50 0 0 1 
16.82507 -10.81282 50 -5.648781e-08 3.630251e-08 -1 
17.55358 -9.58498 50 -1.32896e-08 7.256668e-09 -1 
17.55358 -9.58498 -50 0 0 1 
18.19264 -8.3083 50 1.350832e-08 -6.169039e-09 -1 
18.19264 -8.3083 -50 0 0 1 
18.73899 -6.989284 50 2.628235e-09 -9.802819e-10 -1 
18.73899 -6.989284 -50 0 0 1 
19.18986 -5.634651 -50 0 0 1 
19.18986 -5.634651 50 7.513791e-09 -2.206248e-09 -1 
19.54294 -4.251306 50 -5.066315e-08 1.102108e-08 -1 
19.54294 -4.251306 -50 0 0 1 
19.79643 -2.846297 50 1.511538e-08 -2.173263e-09 -1 
19.79643 -2.846297 -50 0 0 1 
19.94904 -1.426784 -50 0 0 1 
19.94904 -1.426784 50 7.500911e-08 -5.364758e-09 -1 
20 0 50 -1.526037e-08 1.740428e-15 1.0 
20 0 -50 -0.0 -0.0 -1.0 
19.94904 1.426784 -50 -0.0 -0.0 -1.0 
19.94904 1.426784 50 -7.500911e-08 -5.364758e-09 1.0 
19.79643 2.846297 50 2.349982e-08 3.378766e-09 1.0 
19.79643 2.846297 -50 -0.0 -0.0 -1.0 
19.54294 4.251306 -50 -0.0 -0.0 -1.0 
19.54294 4.251306 50 -1.101992e-08 -2.397239e-09 1.0 
19.18986 5.634651 50 -7.513791e-09 -2.206248e-09 1.0 
19.18986 5.634651 -50 -0.0 -0.0 -1.0 
18.73899 6.989284 50 -1.147495e-08 -4.279931e-09 1.0 
18.73899 6.989284 -50 -0.0 -0.0 -1.0 
18.19264 8.3083 50 -1.350832e-08 -6.169039e-09 1.0 
18.19264 8.3083 -50 -0.0 -0.0 -1.0 
17.55358 9.58498 -50 -0.0 -0.0 -1.0 
17.55358 9.58498 50 3.062037e-08 1.671999e-08 1.0 
16.82507 10.81282 50 5.648781e-08 3.630251e-08 1.0 
16.82507 10.81282 -50 -0.0 -0.0 -1.0 
16.01082 11.98555 50 5.334575e-08 3.993414e-08 1.0 
16.01082 11.98555 -50 -0.0 -0.0 -1.0 
15.11499 13.09721 -50 -0.0 -0.0 -1.0 
15.11499 13.09721 50 1.495082e-08 1.295496e-08 1.0 
14.14214 14.14214 50 2.369695e-08 2.369695e-08 1.0 
14.14214 14.14214 -50 -0.0 -0.0 -1.0 
13.09721 15.11499 -50 -0.0 -0.0 -1.0 
13.09721 15.11499 50 1.597266e-08 1.843344e-08 1.0 
11.98555 16.01082 50 3.993414e-08 5.334575e-08 1.0 
11.98555 16.01082 -50 -0.0 -0.0 -1.0 
10.81282 16.82507 -50 -0.0 -0.0 -1.0 
10.81282 16.82507 50 -2.928903e-08 -4.557463e-08 1.0 
9.58498 17.55358 -50 -0.0 -0.0 -1.0 
9.58498 17.55358 50 1.311414e-08 2.401675e-08 1.0 
8.3083 18.19264 50 1.311416e-09 2.871596e-09 1.0 
8.3083 18.19264 -50 -0.0 -0.0 -1.0 
6.989284 18.73899 -50 -0.0 -0.0 -1.0 
6.989284 18.73899 50 3.363161e-09 9.016985e-09 1.0 
5.634651 19.18986 -50 -0.0 -0.0 -1.0 
5.634651 19.18986 50 -2.514434e-09 -8.563378e-09 1.0 
4.251306 19.54294 -50 -0.0 -0.0 -1.0 
4.251306 19.54294 50 -1.253863e-08 -5.763915e-08 1.0 
2.846297 19.79643 50 2.788248e-09 1.939269e-08 1.0 
2.846297 19.79643 -50 -0.0 -0.0 -1.0 
1.426784 19.94904 -50 -0.0 -0.0 -1.0 
1.426784 19.94904 50 -6.194845e-09 -8.661524e-08 1.0 
0 20 -50 -0.0 -0.0 -1.0 
0 20 50 1.740428e-15 -1.526037e-08 1.0 
-1.426784 19.94904 -50 -0.0 -0.0 -1.0 
-1.426784 19.94904 50 6.194845e-09 -8.661524e-08 1.0 
-2.846297 19.79643 50 -2.788248e-09 1.939269e-08 1.0 
-2.846297 19.79643 -50 -0.0 -0.0 -1.0 
-4.251306 19.54294 -50 -0.0 -0.0 -1.0 
-4.251306 19.54294 50 1.253863e-08 -5.763915e-08 1.0 
-5.634651 19.18986 -50 -0.0 -0.0 -1.0 
-5.634651 19.18986 50 2.514434e-09 -8.563378e-09 1.0 
-6.989284 18.73899 -50 -0.0 -0.0 -1.0 
-6.989284 18.73899 50 -3.363161e-09 9.016985e-09 1.0 
-8.3083 18.19264 50 -1.311416e-09 2.871596e-09 1.0 
-8.3083 18.19264 -50 -0.0 -0.0 -1.0 
-9.58498 17.55358 -50 -0.0 -0.0 -1.0 
-9.58498 17.55358 50 -3.808278e-09 6.974349e-09 1.0 
-10.81282 16.82507 -50 -0.0 -0.0 -1.0 
-10.81282 16.82507 50 2.928903e-08 -4.557463e-08 1.0 
-11.98555 16.01082 -50 -0.0 -0.0 -1.0 
-11.98555 16.01082 50 -3.993414e-08 5.334575e-08 1.0 
-13.09721 15.11499 -50 -0.0 -0.0 -1.0 
-13.09721 15.11499 50 -1.597266e-08 1.843344e-08 1.0 
-14.14214 14.14214 -50 -0.0 -0.0 -1.0 
-14.14214 14.14214 50 -2.656825e-08 2.656826e-08 1.0 
-15.11499 13.09721 -50 -0.0 -0.0 -1.0 
-15.11499 13.09721 50 -1.495082e-08 1.295496e-08 1.0 
-16.01082 11.98555 -50 -0.0 -0.0 -1.0 
-16.01082 11.98555 50 -5.334575e-08 3.993414e-08 1.0 
-16.82507 10.81282 -50 -0.0 -0.0 -1.0 
-16.82507 10.81282 50 3.846952e-08 -2.472286e-08 1.0 
-17.55358 9.58498 -50 -0.0 -0.0 -1.0 
-17.55358 9.58498 50 -1.32896e-08 7.256668e-09 1.0 
-18.19264 8.3083 -50 -0.0 -0.0 -1.0 
-18.19264 8.3083 50 1.350832e-08 -6.169039e-09 1.0 
-18.73899 6.989284 -50 -0.0 -0.0 -1.0 
-18.73899 6.989284 50 1.147495e-08 -4.279931e-09 1.0 
-19.18986 5.634651 -50 -0.0 -0.0 -1.0 
-19.18986 5.634651 50 7.513791e-09 -2.206248e-09 1.0 
-19.54294 4.251306 -50 -0.0 -0.0 -1.0 
-19.54294 4.251306 50 3.518128e-08 -7.653217e-09 1.0 
-19.79643 2.846297 -50 -0.0 -0.0 -1.0 
-19.79643 2.846297 50 -2.286633e-08 3.287684e-09 1.0 
-19.94904 1.426784 -50 -0.0 -0.0 -1.0 
-19.94904 1.426784 50 7.48559e-08 -5.353801e-09 1.0 
-20 0 -50 -0.0 -0.0 -1.0 
-20 0 50 1.526037e-08 1.740428e-15 1.0 
-19.94904 -1.426784 -50 -0.0 -0.0 -1.0 
-19.94904 -1.426784 50 7.48559e-08 5.353801e-09 1.0 
-19.79643 -2.846297 -50 -0.0 -0.0 -1.0 
-19.79643 -2.846297 50 -2.286633e-08 -3.287684e-09 1.0 
-19.54294 -4.251306 -50 -0.0 -0.0 -1.0 
-19.54294 -4.251306 50 3.518128e-08 7.653217e-09 1.0 
-19.18986 -5.634651 -50 -0.0 -0.0 -1.0 
-19.18986 -5.634651 50 7.513791e-09 2.206248e-09 1.0 
-18.73899 -6.989284 -50 -0.0 -0.0 -1.0 
-18.73899 -6.989284 50 1.147495e-08 4.279931e-09 1.0 
-18.19264 -8.3083 -50 -0.0 -0.0 -1.0 
-18.19264 -8.3083 50 1.350832e-08 6.169039e-09 1.0 
-17.55358 -9.58498 -50 -0.0 -0.0 -1.0 
-17.55358 -9.58498 50 -1.32896e-08 -7.256668e-09 1.0 
-16.82507 -10.81282 -50 -0.0 -0.0 -1.0 
-16.82507 -10.81282 50 3.846952e-08 2.472286e-08 1.0 
-16.01082 -11.98555 -50 -0.0 -0.0 -1.0 
-16.01082 -11.98555 50 -5.334575e-08 -3.993414e-08 1.0 
-15.11499 -13.09721 -50 -0.0 -0.0 -1.0 
-15.11499 -13.09721 50 -1.495082e-08 -1.295496e-08 1.0 
-14.14214 -14.14214 -50 -0.0 -0.0 -1.0 
-14.14214 -14.14214 50 -2.201349e-08 -2.201349e-08 1.0 
-13.09721 -15.11499 -50 -0.0 -0.0 -1.0 
-13.09721 -15.11499 50 -1.597266e-08 -1.843344e-08 1.0 
-11.98555 -16.01082 -50 -0.0 -0.0 -1.0 
-11.98555 -16.01082 50 -3.993414e-08 -5.334575e-08 1.0 
-10.81282 -16.82507 -50 -0.0 -0.0 -1.0 
-10.81282 -16.82507 50 1.166709e-08 1.815435e-08 1.0 
-9.58498 -17.55358 50 -3.808278e-09 -6.974349e-09 1.0 
-9.58498 -17.55358 -50 -0.0 -0.0 -1.0 
-8.3083 -18.19264 -50 -0.0 -0.0 -1.0 
-8.3083 -18.19264 50 -1.311416e-09 -2.871596e-09 1.0 
-6.989284 -18.73899 50 -3.363161e-09 -9.016985e-09 1.0 
-6.989284 -18.73899 -50 -0.0 -0.0 -1.0 
-5.634651 -19.18986 50 2.514434e-09 8.563378e-09 1.0 
-5.634651 -19.18986 -50 -0.0 -0.0 -1.0 
-4.251306 -19.54294 50 1.253863e-08 5.763915e-08 1.0 
-4.251306 -19.54294 -50 -0.0 -0.0 -1.0 
-2.846297 -19.79643 -50 -0.0 -0.0 -1.0 
-2.846297 -19.79643 50 -2.788248e-09 -1.939269e-08 1.0 
-1.426784 -19.94904 50 6.194845e-09 8.661524e-08 1.0 
-1.426784 -19.94904 -50 -0.0 -0.0 -1.0 
0 -20 50 -1.740428e-15 1.526037e-08 1.0 
0 -20 -50 -0.0 -0.0 -1.0 
1.426784 -19.94904 50 -6.194845e-09 8.661524e-08 1.0 
1.426784 -19.94904 -50 -0.0 -0.0 -1.0 
2.846297 -19.79643 -50 -0.0 -0.0 -1.0 
2.846297 -19.79643 50 2.788248e-09 -1.939269e-08 1.0 
4.251306 -19.54294 50 8.089158e-09 -3.718528e-08 1.0 
4.251306 -19.54294 -50 -0.0 -0.0 -1.0 
5.634651 -19.18986 50 -2.514434e-09 8.563378e-09 1.0 
5.634651 -19.18986 -50 -0.0 -0.0 -1.0 
6.989284 -18.73899 50 3.363161e-09 -9.016985e-09 1.0 
6.989284 -18.73899 -50 -0.0 -0.0 -1.0 
8.3083 -18.19264 -50 -0.0 -0.0 -1.0 
8.3083 -18.19264 50 1.311416e-09 -2.871596e-09 1.0 
9.58498 -17.55358 50 3.808278e-09 -6.974349e-09 1.0 
9.58498 -17.55358 -50 -0.0 -0.0 -1.0 
10.81282 -16.82507 50 -2.928903e-08 4.557463e-08 1.0 
10.81282 -16.82507 -50 -0.0 -0.0 -1.0 
11.98555 -16.01082 50 3.993414e-08 -5.334575e-08 1.0 
11.98555 -16.01082 -50 -0.0 -0.0 -1.0 
13.09721 -15.11499 -50 -0.0 -0.0 -1.0 
13.09721 -15.11499 50 1.597266e-08 -1.843344e-08 1.0 
14.14214 -14.14214 50 3.112302e-08 -3.112302e-08 1.0 
14.14214 -14.14214 -50 -0.0 -0.0 -1.0 
15.11499 -13.09721 50 1.495082e-08 -1.295496e-08 1.0 
15.11499 -13.09721 -50 -0.0 -0.0 -1.0 
16.01082 -11.98555 50 5.334575e-08 -3.993414e-08 1.0 
16.01082 -11.98555 -50 -0.0 -0.0 -1.0 
16.82507 -10.81282 -50 -0.0 -0.0 -1.0 
16.82507 -10.81282 50 5.648781e-08 -3.630251e-08 1.0 
17.55358 -9.58498 50 1.32896e-08 -7.256668e-09 1.0 
17.55358 -9.58498 -50 -0.0 -0.0 -1.0 
18.19264 -8.3083 50 -1.350832e-08 6.169039e-09 1.0 
18.19264 -8.3083 -50 -0.0 -0.0 -1.0 
18.73899 -6.989284 50 -2.628235e-09 9.802819e-10 1.0 
18.73899 -6.989284 -50 -0.0 -0.0 -1.0 
19.18986 -5.634651 -50 -0.0 -0.0 -1.0 
19.18986 -5.634651 50 -7.513791e-09 2.206248e-09 1.0 
19.54294 -4.251306 50 5.066315e-08 -1.102108e-08 1.0 
19.54294 -4.251306 -50 -0.0 -0.0 -1.0 
19.79643 -2.846297 50 -1.511538e-08 2.173263e-09 1.0 
19.79643 -2.846297 -50 -0.0 -0.0 -1.0 
19.94904 -1.426784 -50 -0.0 -0.0 -1.0 
19.94904 -1.426784 50 -7.500911e-08 5.364758e-09 1.0 
3 0 1 2 
3 3 0 2 
3 4 3 2 
3 4 2 5 
3 4 5 6 
3 7 4 6 
3 8 6 9 
3 8 7 6 
3 10 8 9 
3 10 9 11 
3 12 10 11 
3 12 11 13 
3 12 13 14 
3 15 12 14 
3 16 15 14 
3 16 14 17 
3 18 16 17 
3 18 17 19 
3 18 19 20 
3 21 18 20 
3 22 23 24 
3 22 21 20 
3 22 20 23 
3 25 22 24 
3 26 24 27 
3 26 27 28 
3 26 25 24 
3 29 28 30 
3 29 26 28 
3 31 29 30 
3 32 30 33 
3 32 33 34 
3 32 31 30 
3 35 34 36 
3 35 32 34 
3 37 36 38 
3 37 35 36 
3 39 37 38 
3 40 38 41 
3 40 41 42 
3 40 39 38 
3 43 42 44 
3 43 40 42 
3 45 44 46 
3 45 43 44 
3 47 45 46 
3 48 46 49 
3 48 49 50 
3 48 47 46 
3 51 50 52 
3 51 48 50 
3 53 52 54 
3 53 51 52 
3 55 53 54 
3 56 54 57 
3 56 57 58 
3 56 55 54 
3 59 58 60 
3 59 56 58 
3 61 59 60 
3 61 60 62 
3 63 61 62 
3 63 62 64 
3 65 63 64 
3 65 64 66 
3 67 65 66 
3 67 66 68 
3 69 67 68 
3 69 68 70 
3 71 69 70 
3 71 70 72 
3 73 72 74 
3 73 71 72 
3 75 74 76 
3 75 73 74 
3 77 76 78 
3 77 75 76 
3 79 78 80 
3 79 77 78 
3 81 80 82 
3 81 79 80 
3 83 82 84 
3 83 81 82 
3 85 84 86 
3 85 83 84 
3 87 86 88 
3 87 85 86 
3 89 88 90 
3 89 87 88 
3 91 90 92 
3 91 89 90 
3 93 92 94 
3 93 91 92 
3 95 94 96 
3 95 93 94 
3 97 96 98 
3 97 95 96 
3 99 98 100 
3 99 97 98 
3 101 100 102 
3 101 99 100 
3 103 102 104 
3 103 101 102 
3 105 104 106 
3 105 103 104 
3 107 106 108 
3 107 105 106 
3 109 108 110 
3 109 107 108 
3 111 110 112 
3 111 109 110 
3 113 111 112 
3 113 112 114 
3 115 113 114 
3 115 114 116 
3 117 115 116 
3 118 117 116 
3 118 116 119 
3 118 119 120 
3 121 118 120 
3 122 121 120 
3 122 120 123 
3 124 122 123 
3 124 123 125 
3 126 124 125 
3 126 125 127 
3 126 127 128 
3 129 126 128 
3 130 129 128 
3 130 128 131 
3 132 130 131 
3 132 131 133 
3 134 132 133 
3 134 133 135 
3 134 135 136 
3 137 134 136 
3 138 137 136 
3 138 136 139 
3 140 138 139 
3 140 139 141 
3 142 141 143 
3 142 143 144 
3 142 140 141 
3 145 142 144 
3 146 144 147 
3 146 145 144 
3 148 147 149 
3 148 146 147 
3 150 149 151 
3 150 151 152 
3 150 148 149 
3 153 150 152 
3 154 152 155 
3 154 153 152 
3 156 155 157 
3 156 154 155 
3 158 157 159 
3 158 159 160 
3 158 156 157 
3 161 158 160 
3 162 161 160 
3 162 160 163 
3 164 162 163 
3 164 163 165 
3 166 164 165 
3 166 165 167 
3 166 167 168 
3 169 166 168 
3 170 169 168 
3 170 168 171 
3 172 170 171 
3 172 171 173 
3 172 173 174 
3 175 172 174 
3 175 174 1 
3 0 175 1 
3 10 4 8 
3 75 77 79 
3 113 109 111 
3 146 79 87 
3 146 87 142 
3 146 75 79 
3 146 142 145 
3 31 32 35 
3 31 35 37 
3 31 47 4 
3 31 37 47 
3 105 107 109 
3 31 4 10 
3 71 73 75 
3 71 75 146 
3 105 109 113 
3 71 146 148 
3 117 113 115 
3 16 12 15 
3 153 148 150 
3 26 29 31 
3 26 31 10 
3 67 69 71 
3 67 71 148 
3 101 103 105 
3 21 10 12 
3 21 16 18 
3 21 26 10 
3 21 12 16 
3 121 117 118 
3 156 67 148 
3 156 148 153 
3 156 153 154 
3 22 25 26 
3 22 26 21 
3 161 63 65 
3 161 65 67 
3 97 99 101 
3 161 156 158 
3 161 67 156 
3 59 61 63 
3 59 63 161 
3 162 59 161 
3 95 97 101 
3 56 59 162 
3 126 122 124 
3 129 122 126 
3 53 55 56 
3 53 162 164 
3 53 56 162 
3 91 105 113 
3 91 95 101 
3 91 93 95 
3 91 101 105 
3 130 113 117 
3 130 117 121 
3 170 166 169 
3 130 122 129 
3 130 91 113 
3 130 121 122 
3 48 51 53 
3 47 53 164 
3 47 48 53 
3 47 166 170 
3 47 164 166 
3 87 89 91 
3 134 91 130 
3 134 87 91 
3 134 130 132 
3 137 87 134 
3 43 45 47 
3 83 85 87 
3 4 0 3 
3 4 47 170 
3 4 170 172 
3 4 172 175 
3 4 175 0 
3 79 81 83 
3 39 40 43 
3 79 83 87 
3 142 87 137 
3 142 137 138 
3 142 138 140 
3 37 43 47 
3 37 39 43 
3 8 4 7 
3 9 5 11 
3 78 76 74 
3 110 108 112 
3 86 78 147 
3 143 86 147 
3 78 74 147 
3 144 143 147 
3 34 33 30 
3 36 34 30 
3 5 46 30 
3 46 36 30 
3 11 5 30 
3 108 106 104 
3 74 72 70 
3 147 74 70 
3 112 108 104 
3 149 147 70 
3 114 112 116 
3 14 13 17 
3 30 28 27 
3 11 30 27 
3 151 149 152 
3 70 68 66 
3 149 70 66 
3 104 102 100 
3 13 11 20 
3 19 17 20 
3 11 27 20 
3 17 13 20 
3 119 116 120 
3 149 66 157 
3 152 149 157 
3 27 24 23 
3 155 152 157 
3 20 27 23 
3 64 62 160 
3 66 64 160 
3 100 98 96 
3 159 157 160 
3 157 66 160 
3 62 60 58 
3 160 62 58 
3 160 58 163 
3 100 96 94 
3 163 58 57 
3 125 123 127 
3 127 123 128 
3 57 54 52 
3 165 163 52 
3 163 57 52 
3 112 104 90 
3 100 94 90 
3 94 92 90 
3 104 100 90 
3 116 112 131 
3 120 116 131 
3 168 167 171 
3 128 123 131 
3 112 90 131 
3 123 120 131 
3 52 50 49 
3 165 52 46 
3 52 49 46 
3 171 167 46 
3 167 165 46 
3 90 88 86 
3 131 90 135 
3 90 86 135 
3 133 131 135 
3 135 86 136 
3 46 44 42 
3 86 84 82 
3 2 1 5 
3 171 46 5 
3 173 171 5 
3 174 173 5 
3 1 174 5 
3 42 41 38 
3 82 80 78 
3 86 82 78 
3 136 86 143 
3 46 42 36 
3 139 136 143 
3 141 139 143 
3 42 38 36 
3 6 5 9 
3 176 177 178 
3 179 176 178 
3 180 179 178 
3 180 178 181 
3 180 181 182 
3 183 180 182 
3 184 182 185 
3 184 183 182 
3 186 184 185 
3 186 185 187 
3 188 186 187 
3 188 187 189 
3 188 189 190 
3 191 188 190 
3 192 191 190 
3 192 190 193 
3 194 192 193 
3 194 193 195 
3 194 195 196 
3 197 194 196 
3 198 199 200 
3 198 197 196 
3 198 196 199 
3 201 198 200 
3 202 200 203 
3 202 203 204 
3 202 201 200 
3 205 204 206 
3 205 202 204 
3 207 205 206 
3 208 206 209 
3 208 209 210 
3 208 207 206 
3 211 210 212 
3 211 208 210 
3 213 212 214 
3 213 211 212 
3 215 213 214 
3 216 214 217 
3 216 217 218 
3 216 215 214 
3 219 218 220 
3 219 216 218 
3 221 220 222 
3 221 219 220 
3 223 221 222 
3 224 222 225 
3 224 225 226 
3 224 223 222 
3 227 226 228 
3 227 224 226 
3 229 228 230 
3 229 227 228 
3 231 229 230 
3 232 230 233 
3 232 233 234 
3 232 231 230 
3 235 234 236 
3 235 232 234 
3 237 235 236 
3 237 236 238 
3 239 237 238 
3 239 238 240 
3 241 239 240 
3 241 240 242 
3 243 241 242 
3 243 242 244 
3 245 243 244 
3 245 244 246 
3 247 245 246 
3 247 246 248 
3 249 248 250 
3 249 247 248 
3 251 250 252 
3 251 249 250 
3 253 252 254 
3 253 251 252 
3 255 254 256 
3 255 253 254 
3 257 256 258 
3 257 255 256 
3 259 258 260 
3 259 257 258 
3 261 260 262 
3 261 259 260 
3 263 262 264 
3 263 261 262 
3 265 264 266 
3 265 263 264 
3 267 266 268 
3 267 265 266 
3 269 268 270 
3 269 267 268 
3 271 270 272 
3 271 269 270 
3 273 272 274 
3 273 271 272 
3 275 274 276 
3 275 273 274 
3 277 276 278 
3 277 275 276 
3 279 278 280 
3 279 277 278 
3 281 280 282 
3 281 279 280 
3 283 282 284 
3 283 281 282 
3 285 284 286 
3 285 283 284 
3 287 286 288 
3 287 285 286 
3 289 287 288 
3 289 288 290 
3 291 289 290 
3 291 290 292 
3 293 291 292 
3 294 293 292 
3 294 292 295 
3 294 295 296 
3 297 294 296 
3 298 297 296 
3 298 296 299 
3 300 298 299 
3 300 299 301 
3 302 300 301 
3 302 301 303 
3 302 303 304 
3 305 302 304 
3 306 305 304 
3 306 304 307 
3 308 306 307 
3 308 307 309 
3 310 308 309 
3 310 309 311 
3 310 311 312 
3 313 310 312 
3 314 313 312 
3 314 312 315 
3 316 314 315 
3 316 315 317 
3 318 317 319 
3 318 319 320 
3 318 316 317 
3 321 318 320 
3 322 320 323 
3 322 321 320 
3 324 323 325 
3 324 322 323 
3 326 325 327 
3 326 327 328 
3 326 324 325 
3 329 326 328 
3 330 328 331 
3 330 329 328 
3 332 331 333 
3 332 330 331 
3 334 333 335 
3 334 335 336 
3 334 332 333 
3 337 334 336 
3 338 337 336 
3 338 336 339 
3 340 338 339 
3 340 339 341 
3 342 340 341 
3 342 341 343 
3 342 343 344 
3 345 342 344 
3 346 345 344 
3 346 344 347 
3 348 346 347 
3 348 347 349 
3 348 349 350 
3 351 348 350 
3 351 350 177 
3 176 351 177 
3 186 180 184 
3 251 253 255 
3 289 285 287 
3 322 255 263 
3 322 263 318 
3 322 251 255 
3 322 318 321 
3 207 208 211 
3 207 211 213 
3 207 223 180 
3 207 213 223 
3 281 283 285 
3 207 180 186 
3 247 249 251 
3 247 251 322 
3 281 285 289 
3 247 322 324 
3 293 289 291 
3 192 188 191 
3 329 324 326 
3 202 205 207 
3 202 207 186 
3 243 245 247 
3 243 247 324 
3 277 279 281 
3 197 186 188 
3 197 192 194 
3 197 202 186 
3 197 188 192 
3 297 293 294 
3 332 243 324 
3 332 324 329 
3 332 329 330 
3 198 201 202 
3 198 202 197 
3 337 239 241 
3 337 241 243 
3 273 275 277 
3 337 332 334 
3 337 243 332 
3 235 237 239 
3 235 239 337 
3 338 235 337 
3 271 273 277 
3 232 235 338 
3 302 298 300 
3 305 298 302 
3 229 231 232 
3 229 338 340 
3 229 232 338 
3 267 281 289 
3 267 271 277 
3 267 269 271 
3 267 277 281 
3 306 289 293 
3 306 293 297 
3 346 342 345 
3 306 298 305 
3 306 267 289 
3 306 297 298 
3 224 227 229 
3 223 229 340 
3 223 224 229 
3 223 342 346 
3 223 340 342 
3 263 265 267 
3 310 267 306 
3 310 263 267 
3 310 306 308 
3 313 263 310 
3 219 221 223 
3 259 261 263 
3 180 176 179 
3 180 223 346 
3 180 346 348 
3 180 348 351 
3 180 351 176 
3 255 257 259 
3 215 216 219 
3 255 259 263 
3 318 263 313 
3 318 313 314 
3 318 314 316 
3 213 219 223 
3 213 215 219 
3 184 180 183 
3 185 181 187 
3 254 252 250 
3 286 284 288 
3 262 254 323 
3 319 262 323 
3 254 250 323 
3 320 319 323 
3 210 209 206 
3 212 210 206 
3 181 222 206 
3 222 212 206 
3 187 181 206 
3 284 282 280 
3 250 248 246 
3 323 250 246 
3 288 284 280 
3 325 323 246 
3 290 288 292 
3 190 189 193 
3 206 204 203 
3 187 206 203 
3 327 325 328 
3 246 244 242 
3 325 246 242 
3 280 278 276 
3 189 187 196 
3 195 193 196 
3 187 203 196 
3 193 189 196 
3 295 292 296 
3 325 242 333 
3 328 325 333 
3 203 200 199 
3 331 328 333 
3 196 203 199 
3 240 238 336 
3 242 240 336 
3 276 274 272 
3 335 333 336 
3 333 242 336 
3 238 236 234 
3 336 238 234 
3 336 234 339 
3 276 272 270 
3 339 234 233 
3 301 299 303 
3 303 299 304 
3 233 230 228 
3 341 339 228 
3 339 233 228 
3 288 280 266 
3 276 270 266 
3 270 268 266 
3 280 276 266 
3 292 288 307 
3 296 292 307 
3 344 343 347 
3 304 299 307 
3 288 266 307 
3 299 296 307 
3 228 226 225 
3 341 228 222 
3 228 225 222 
3 347 343 222 
3 343 341 222 
3 266 264 262 
3 307 266 311 
3 266 262 311 
3 309 307 311 
3 311 262 312 
3 222 220 218 
3 262 260 258 
3 178 177 181 
3 347 222 181 
3 349 347 181 
3 350 349 181 
3 177 350 181 
3 218 217 214 
3 258 256 254 
3 262 258 254 
3 312 262 319 
3 222 218 212 
3 315 312 319 
3 317 315 319 
3 218 214 212 
3 182 181 185 