ply
format ascii 1.0
comment VCGLIB generated
element vertex 440
property float x
property float y
property float z
property float nx
property float ny
property float nz
element face 888
property list uchar int vertex_indices
end_header
-0.75 -9.85 14.9529 -0.01677266 -0.9014021 0.4326581 
-0.75 -9.85 24.85 -0.002144026 0.7081443 0.7060645 
-0.8250005 -9.925 24.925 -0.002153113 0.7083174 0.7058908 
-0.9 -10 15.08379 -0.02978336 -0.8840226 0.4664944 
-2.4846 -9.85 14.4614 -0.1625751 -0.8719908 0.4617374 
-0.75 -6.87128 18.34219 -0.3150129 -0.8720351 0.3745953 
-0.75 -7.42735 19.40171 -0.3696944 -0.920514 0.1264125 
-0.75 -5.88651 17.66246 0.3221696 -0.323986 0.8895166 
-0.75 -4.69866 17.51823 -0.1438893 0.1280913 0.9812688 
-0.75 -0.15 14.9529 0.01984695 -0.8944091 -0.4468092 
-7.2 -6.87128 18.34219 0.9152954 -0.3450483 0.2077883 
-7.2 -5.88651 17.66246 0.5137027 0.3745489 0.7718955 
-0.75 -7.42735 20.59829 -0.2921963 -0.9414275 -0.1683315 
-7.2 -7.42735 19.40171 -0.4755982 -0.8664959 0.1516285 
-7.5 -7.52271 18.78513 0.8195197 -0.5403602 0.1907834 
-7.5 -6.74577 17.81087 0.979052 -0.1483653 0.1394449 
-7.2 -4.69866 17.51823 -0.9078526 -0.333896 -0.2536079 
-7.5 -5.62306 17.2702 0.9599925 -0.1975837 0.1984319 
-7.5 -0.15 -0.06209961 0.1495412 0.8340079 0.5311009 
-7.5 -9.85 -24.85 -0.906441 0.3505896 0.2354816 
-7.5 -9.85 24.85 -0.9024776 -0.2898197 -0.3186513 
-7.5 -7.8 20 -0.9852085 -0.1712942 0.004750608 
-7.425 -9.925 -24.925 -0.9051315 0.3530354 0.2368608 
-7.5 9.85 -24.85 -0.9879656 -0.1522189 0.02744843 
-7.5 9.85 -10.0621 0.2858618 -0.9012443 -0.3256405 
-7.425 9.925 -24.925 -0.9997191 0.01530762 0.01809502 
-7.35 10 -10 0.2699241 -0.9068745 -0.323604 
-7.35 0 0 0.1462983 0.8354259 0.5297738 
-7.35 10 -24.85 -0.998345 0.05621592 0.01213149 
7.35 10 -10 -0.2699243 -0.9068744 -0.3236042 
7.35 10 -24.85 -0.9983451 -0.0562119 -0.01213208 
7.35 0 0 -0.146299 0.8354262 0.5297732 
7.5 9.85 -10.0621 -0.2858619 -0.9012442 -0.3256406 
7.425 9.925 -24.925 -0.9997191 -0.01530246 -0.01809574 
-7.35 9.85 -25 -0.9997423 0.01361681 0.01816124 
7.35 9.85 -25 -0.9997424 -0.01361172 -0.01816198 
7.5 9.85 -24.85 -0.987965 0.1522228 -0.02744896 
7.5 -9.85 -24.85 0.9064416 0.3505879 0.2354818 
7.425 -9.925 -24.925 0.9051306 0.3530369 0.236862 
7.5 -0.15 -0.06209961 -0.1495419 0.8340083 0.5311002 
7.5 -9.85 24.85 -0.9024777 0.2898197 0.3186513 
7.5 -7.52271 18.78513 -0.8195192 -0.540361 0.1907836 
7.5 -6.74577 17.81087 -0.9790518 -0.1483666 0.1394449 
7.5 -7.8 20 -0.9852086 0.1712937 -0.004750642 
7.2 -7.42735 19.40171 -0.4755948 0.8664976 -0.1516294 
7.2 -6.87128 18.34219 -0.9152954 -0.3450482 0.2077885 
7.5 -5.62306 17.2702 -0.9599915 -0.1975874 0.1984326 
7.2 -5.88651 17.66246 -0.5137028 0.3745492 0.7718953 
0.75 -5.88651 17.66246 -0.3221696 -0.3239857 0.8895167 
0.75 -6.87128 18.34219 0.3150132 -0.8720351 0.3745951 
7.2 -7.42735 20.59829 -0.9246788 0.3788719 0.03775119 
0.75 -7.42735 19.40171 0.3696947 -0.9205138 0.1264125 
0.75 -9.85 14.9529 0.01677251 -0.9014021 0.4326581 
0.75 -4.69866 17.51823 0.1438956 0.1280914 0.9812679 
7.2 -4.69866 17.51823 -0.9078496 0.3339031 0.2536096 
0.75 -3.57984 17.94254 -0.3244309 0.502037 0.8016878 
0.75 -0.15 14.9529 -0.01984673 -0.8944092 -0.446809 
7.5 -4.37694 17.2702 -0.8430359 0.4647979 0.2706537 
7.2 -3.57984 17.94254 -0.9647378 0.1888194 0.1833798 
0.75 -2.78636 18.83819 -0.2515756 -0.9278698 -0.2752587 
7.5 -3.25423 17.81087 -0.9751491 0.1745808 0.136403 
7.2 -2.78636 18.83819 -0.8539179 0.4754339 0.2116291 
7.5 -2.477289 18.78513 -0.6075746 0.7603823 0.2295034 
7.2 -2.5 20 -0.7942252 -0.6042162 0.06425832 
0.75 -2.5 20 -0.3515222 -0.9358675 0.02416742 
0.75 -0.15 24.85 -0.007177944 -0.6895795 0.7241744 
0.75 -2.78636 21.16181 -0.3614327 -0.8883802 0.2831027 
7.5 -2.200001 20 -0.9915105 -0.1300157 0.001690834 
7.5 -2.477289 21.21487 -0.921216 -0.3677639 0.1269288 
7.2 -2.78636 21.16181 -0.9526628 -0.2233233 0.2063017 
7.5 -0.15 24.85 -0.8905206 -0.3212678 0.322118 
7.5 -3.25423 22.18913 -0.9870468 -0.09498792 0.1292898 
7.2 -3.57984 22.05746 -0.9793476 -0.1149445 0.1663312 
0.75 -3.57984 22.05746 -0.6736042 0.1158886 -0.7299501 
0.75 -4.69866 22.48177 0.2244391 -0.1046121 0.9688568 
7.5 -4.37694 22.7298 -0.986032 0.07084405 -0.1507382 
7.2 -4.69866 22.48177 -0.9920533 0.02807091 -0.1226472 
7.5 -5.62306 22.7298 -0.9887108 -0.06652113 -0.1342609 
7.2 -5.88651 22.33754 -0.8907184 0.2237634 0.3956648 
0.75 -5.88651 22.33754 0.2556153 0.2662471 0.9293941 
0.75 -9.85 24.85 -0.002144031 -0.7081444 -0.7060643 
0.75 -6.87128 21.65781 -0.09433399 -0.6803454 0.7267952 
7.5 -6.74577 22.18913 -0.989394 0.0868536 0.1164298 
7.2 -6.87128 21.65781 -0.9783825 0.1230539 0.166209 
7.5 -7.52271 21.21487 -0.9056022 0.3830275 0.1821388 
0.75 -7.42735 20.59829 0.2921961 -0.9414276 -0.1683314 
7.425 -9.925 24.925 -0.8932153 0.3059275 0.329507 
7.425 -0.075 24.925 -0.8800053 -0.3385808 0.3330971 
7.35 0 24.85 -0.8697839 -0.3529952 0.3447759 
5.7273 0 6.759398 -0.6563221 -0.7037069 0.2720991 
6.1334 0 8.548799 -0.5445187 -0.8386718 0.01135745 
4.811399 0 5.169498 -0.536714 -0.5893533 0.6038219 
3.467199 0 3.9205 -0.441019 -0.4937306 0.7494881 
1.814351 0 3.123701 -0.2227444 -0.5334395 0.8159824 
0 0 2.85 3.155623e-07 -0.54836 0.8362424 
3.403899 -0.15 4.059 -0.4476019 -0.494121 0.7453167 
4.7181 -0.15 5.293301 -0.5486143 -0.5874869 0.5948794 
1.78244 -0.15 3.270898 -0.2266011 -0.5352113 0.8137572 
0 -0.15 3 2.643987e-07 -0.549012 0.8358145 
-1.81435 0 3.123701 0.2227443 -0.5334388 0.8159829 
-1.78244 -0.15 3.270898 0.226601 -0.5352106 0.8137577 
-1.78244 -9.85 3.270898 0.2068422 0.6538112 0.7278374 
0 -9.85 3 8.567433e-07 0.6169031 0.7870391 
1.78244 -9.85 3.270898 -0.2068422 0.6538112 0.7278374 
3.403899 -9.85 4.059 -0.4431762 0.6186196 0.6487717 
1.814351 -10 3.123701 -0.2035121 0.6580465 0.7249535 
0 -10 2.85 8.504956e-07 0.6204208 0.7842691 
-1.81435 -10 3.123701 0.2052624 0.6570519 0.7253621 
3.467199 -10 3.9205 -0.4364744 0.6219438 0.6501355 
4.811399 -10 5.169498 -0.600538 0.6364577 0.4840203 
4.7181 -9.85 5.293301 -0.6101395 0.6324562 0.4772095 
7.35 -10 -24.85 0.9050038 0.3540853 0.2357788 
-7.35 -10 -24.85 -0.9050046 0.3540841 0.2357778 
-3.46719 -10 3.9205 0.4364726 0.621944 0.6501364 
-3.40395 -9.85 4.059 0.4431875 0.6186143 0.648769 
-3.40395 -0.15 4.059 0.4476088 -0.4941137 0.7453174 
-4.8114 -10 5.169498 0.6005378 0.6364571 0.4840212 
-4.7181 -9.85 5.293301 0.6101394 0.6324557 0.4772103 
-4.7181 -0.15 5.293301 0.5486138 -0.5874859 0.5948808 
-4.8114 0 5.169498 0.5367135 -0.5893524 0.6038231 
-3.46719 0 3.9205 0.4410168 -0.4937308 0.7494892 
-5.72732 0 6.759398 0.6563253 -0.7037039 0.272099 
-5.60626 -0.15 6.862299 0.6626294 -0.7002442 0.2656694 
-6.13343 0 8.548799 0.5445235 -0.8386686 0.01135729 
-7.425 -0.075 24.925 0.8800054 -0.3385808 0.333097 
-7.35 0 24.85 0.8697839 -0.3529952 0.3447759 
-5.98822 -0.15 8.6243 0.5517383 -0.8339589 0.009875353 
-5.99356 0 10.3783 0.588267 -0.8035953 -0.09042395 
-5.60626 -9.85 6.862299 0.6357342 0.7239922 0.2677263 
-5.98822 -9.85 8.6243 -0.5068644 -0.8614109 -0.03255248 
-5.8295 -0.15 10.4202 0.590174 -0.8019511 -0.0925694 
-5.32017 0 12.0852 0.8786618 -0.4634857 -0.1146052 
-5.14443 -0.15 12.0878 0.868992 -0.4745231 -0.1402878 
-5.8295 -9.85 10.4202 -0.5803818 -0.8113096 0.07024088 
-6.13343 -10 8.548799 -0.498575 -0.8661678 -0.03429642 
-5.72732 -10 6.759398 0.5739847 0.7827058 0.2406516 
-5.99356 -10 10.3783 -0.5645536 -0.8230774 0.0618289 
-7.35 -10 24.85 -0.8831426 -0.3196373 -0.3433529 
-5.14443 -9.85 12.0878 -0.8541734 -0.5038213 0.1286543 
-5.32017 -10 12.0852 -0.8620161 -0.4913664 0.1244481 
-4.1732 -10 13.5174 -0.5363545 -0.7577117 0.3717484 
-3.99487 -9.85 13.4767 -0.4952027 -0.7662789 0.4093786 
-3.99487 -0.15 13.4767 0.5220931 -0.7699746 -0.3668213 
-2.65476 -10 14.5475 -0.2045547 -0.8467851 0.4910319 
-0.9 -10 24.85 -0.004854468 -0.7060756 -0.7081198 
-2.4846 -0.15 14.4614 0.1820979 -0.8593528 -0.4778631 
-2.65476 0 14.5475 0.2226612 -0.8385501 -0.4972481 
-4.1732 0 13.5174 0.3632284 -0.8661257 -0.3433531 
-0.9 0 15.08379 0.0274729 -0.8845914 -0.4655569 
-0.9 0 24.85 0.008252939 -0.6892343 0.7244916 
-7.425 -9.925 24.925 -0.8932152 -0.3059275 -0.329507 
7.35 -9.85 -25 0.9051936 0.352075 0.2380499 
-7.35 -9.85 -25 -0.9051931 0.3520765 0.2380496 
7.35 -10 24.85 -0.8831425 0.3196373 0.3433531 
5.7273 -10 6.759398 -0.573981 0.7827087 0.2406511 
6.1334 -10 8.548799 -0.49857 0.8661707 0.0342963 
5.6063 -9.85 6.862299 -0.6357393 0.7239876 0.2677266 
5.988199 -9.85 8.6243 -0.5068606 0.8614132 0.0325525 
5.993599 -10 10.3783 -0.5645565 0.8230755 -0.06182823 
5.6063 -0.15 6.862299 -0.662634 -0.7002394 0.2656709 
5.988199 -0.15 8.6243 -0.5517345 -0.8339613 0.009875581 
5.8295 -9.85 10.4202 -0.5803801 0.8113108 -0.07024097 
5.3202 -10 12.0852 -0.8620185 0.4913631 -0.1244441 
5.1444 -9.85 12.0878 -0.8541698 0.5038264 -0.1286574 
5.8295 -0.15 10.4202 -0.5901724 -0.8019523 -0.09256934 
5.993599 0 10.3783 -0.5882708 -0.8035926 -0.09042332 
5.3202 0 12.0852 -0.8786642 -0.4634823 -0.1146011 
5.1444 -0.15 12.0878 -0.8689888 -0.4745281 -0.1402911 
4.173199 -10 13.5174 -0.5363528 0.757713 -0.3717482 
3.9949 -9.85 13.4767 -0.4952049 0.7662789 -0.4093762 
2.6548 -10 14.5475 0.2045588 -0.8467855 0.4910296 
0.9 -10 24.85 -0.004854469 0.7060757 0.7081198 
2.4846 -9.85 14.4614 0.1625746 -0.8719909 0.4617373 
3.9949 -0.15 13.4767 -0.5220947 -0.7699747 -0.3668189 
4.173199 0 13.5174 -0.3632286 -0.8661258 -0.3433528 
2.6548 0 14.5475 -0.2226659 -0.83855 -0.4972462 
2.4846 -0.15 14.4614 -0.1820973 -0.8593529 -0.4778631 
0.9 -10 15.08379 0.02978308 -0.8840228 0.466494 
0.825001 -9.925 24.925 -0.002153109 -0.7083173 -0.7058909 
0.9 0 15.08379 -0.02747262 -0.8845917 -0.4655565 
0.825001 -0.075 24.925 -0.008189038 -0.6889873 0.7247272 
0.9 0 24.85 -0.008252937 -0.6892343 0.7244916 
7.35 -9.85 25 -0.8871351 0.3150659 0.337231 
7.35 -0.15 25 -0.8732236 -0.3482198 0.3409156 
0.9 -9.85 25 -0.00486168 0.7061305 0.708065 
0.9 -0.15 25 -0.008257922 -0.6892099 0.7245147 
-7.5 -0.15 24.85 0.8905207 -0.3212678 0.3221179 
-7.5 -7.52271 21.21487 -0.9056019 -0.3830277 -0.1821399 
-7.5 -6.74577 22.18913 -0.989394 -0.08685356 -0.1164298 
-7.5 -5.62306 22.7298 -0.9887108 0.06652115 0.1342609 
-7.2 -7.42735 20.59829 -0.9246784 -0.3788727 -0.03775229 
-7.2 -6.87128 21.65781 0.9783825 0.123054 0.1662091 
-0.75 -6.87128 21.65781 0.09433382 -0.6803454 0.7267952 
-7.2 -5.88651 22.33754 0.8907185 0.2237633 0.3956647 
-0.75 -5.88651 22.33754 -0.2556153 0.2662471 0.9293941 
-7.2 -4.69866 22.48177 -0.9920533 -0.02807091 0.1226472 
-0.75 -4.69866 22.48177 -0.2244391 -0.1046121 0.9688568 
-0.75 -0.15 24.85 0.00717794 -0.6895796 0.7241743 
-0.75 -3.57984 22.05746 -0.6736042 -0.1158886 0.7299501 
-7.5 -4.37694 22.7298 -0.986032 -0.07084402 0.1507381 
-7.2 -3.57984 22.05746 0.9793476 -0.1149445 0.1663311 
-0.75 -2.78636 21.16181 0.3614329 -0.88838 0.283103 
-7.5 -3.25423 22.18913 0.9870468 -0.09498792 0.1292898 
-7.2 -2.78636 21.16181 0.9526627 -0.2233232 0.2063019 
-7.5 -2.477289 21.21487 0.9212156 -0.3677643 0.12693 
-7.2 -2.5 20 0.7942246 -0.604217 0.06425862 
-0.75 -2.5 20 0.3515226 -0.9358674 0.02416744 
-0.75 -2.78636 18.83819 0.2515753 -0.9278699 -0.2752588 
-0.8250005 -0.075 24.925 0.008189037 -0.6889871 0.7247273 
-0.75 -3.57984 17.94254 -0.3244325 -0.5020367 -0.8016874 
-7.2 -2.78636 18.83819 -0.8539177 -0.4754344 -0.211629 
-7.2 -3.57984 17.94254 -0.964738 -0.1888188 -0.1833795 
-7.5 -3.25423 17.81087 -0.9751495 -0.1745788 -0.1364029 
-7.5 -4.37694 17.2702 -0.8430436 -0.4647854 -0.2706511 
-7.5 -2.477289 18.78513 -0.6075746 -0.7603824 -0.2295034 
-7.5 -2.200001 20 0.9915105 -0.130016 0.001690855 
-0.9 -0.15 25 0.008257921 -0.6892099 0.7245147 
-7.35 -0.15 25 0.8732237 -0.3482197 0.3409156 
-0.9 -9.85 25 -0.00486168 -0.7061305 -0.708065 
-7.35 -9.85 25 -0.8871351 -0.3150658 -0.337231 
-0.75 -9.85 14.9529 0.01677266 0.9014021 -0.4326581 
-0.75 -9.85 24.85 0.002144026 -0.7081443 -0.7060645 
-0.8250005 -9.925 24.925 0.002153113 -0.7083174 -0.7058908 
-0.9 -10 15.08379 0.02978336 0.8840226 -0.4664944 
-2.4846 -9.85 14.4614 0.1625751 0.8719908 -0.4617374 
-0.75 -6.87128 18.34219 0.3150129 0.8720351 -0.3745953 
-0.75 -7.42735 19.40171 0.3696944 0.920514 -0.1264125 
-0.75 -5.88651 17.66246 -0.3221696 0.323986 -0.8895166 
-0.75 -4.69866 17.51823 0.1438893 -0.1280913 -0.9812688 
-0.75 -0.15 14.9529 -0.01984695 0.8944091 0.4468092 
-7.2 -6.87128 18.34219 -0.9152954 0.3450483 -0.2077883 
-7.2 -5.88651 17.66246 -0.5137027 -0.3745489 -0.7718955 
-0.75 -7.42735 20.59829 0.2921963 0.9414275 0.1683315 
-7.2 -7.42735 19.40171 0.4755982 0.8664959 -0.1516285 
-7.5 -7.52271 18.78513 -0.8195197 0.5403602 -0.1907834 
-7.5 -6.74577 17.81087 -0.979052 0.1483653 -0.1394449 
-7.2 -4.69866 17.51823 0.9078526 0.333896 0.2536079 
-7.5 -5.62306 17.2702 -0.9599925 0.1975837 -0.1984319 
-7.5 -0.15 -0.06209961 -0.1495412 -0.8340079 -0.5311009 
-7.5 -9.85 -24.85 0.906441 -0.3505896 -0.2354816 
-7.5 -9.85 24.85 0.9024776 0.2898197 0.3186513 
-7.5 -7.8 20 0.9852085 0.1712942 -0.004750608 
-7.425 -9.925 -24.925 0.9051315 -0.3530354 -0.2368608 
-7.5 9.85 -24.85 0.9879656 0.1522189 -0.02744843 
-7.5 9.85 -10.0621 -0.2858618 0.9012443 0.3256405 
-7.425 9.925 -24.925 0.9997191 -0.01530762 -0.01809502 
-7.35 10 -10 -0.2699241 0.9068745 0.323604 
-7.35 0 0 -0.1462983 -0.8354259 -0.5297738 
-7.35 10 -24.85 0.998345 -0.05621592 -0.01213149 
7.35 10 -10 0.2699243 0.9068744 0.3236042 
7.35 10 -24.85 0.9983451 0.0562119 0.01213208 
7.35 0 0 0.146299 -0.8354262 -0.5297732 
7.5 9.85 -10.0621 0.2858619 0.9012442 0.3256406 
7.425 9.925 -24.925 0.9997191 0.01530246 0.01809574 
-7.35 9.85 -25 0.9997423 -0.01361681 -0.01816124 
7.35 9.85 -25 0.9997424 0.01361172 0.01816198 
7.5 9.85 -24.85 0.987965 -0.1522228 0.02744896 
7.5 -9.85 -24.85 -0.9064416 -0.3505879 -0.2354818 
7.425 -9.925 -24.925 -0.9051306 -0.3530369 -0.236862 
7.5 -0.15 -0.06209961 0.1495419 -0.8340083 -0.5311002 
7.5 -9.85 24.85 0.9024777 -0.2898197 -0.3186513 
7.5 -7.52271 18.78513 0.8195192 0.540361 -0.1907836 
7.5 -6.74577 17.81087 0.9790518 0.1483666 -0.1394449 
7.5 -7.8 20 0.9852086 -0.1712937 0.004750642 
7.2 -7.42735 19.40171 0.4755948 -0.8664976 0.1516294 
7.2 -6.87128 18.34219 0.9152954 0.3450482 -0.2077885 
7.5 -5.62306 17.2702 0.9599915 0.1975874 -0.1984326 
7.2 -5.88651 17.66246 0.5137028 -0.3745492 -0.7718953 
0.75 -5.88651 17.66246 0.3221696 0.3239857 -0.8895167 
0.75 -6.87128 18.34219 -0.3150132 0.8720351 -0.3745951 
7.2 -7.42735 20.59829 0.9246788 -0.3788719 -0.03775119 
0.75 -7.42735 19.40171 -0.3696947 0.9205138 -0.1264125 
0.75 -9.85 14.9529 -0.01677251 0.9014021 -0.4326581 
0.75 -4.69866 17.51823 -0.1438956 -0.1280914 -0.9812679 
7.2 -4.69866 17.51823 0.9078496 -0.3339031 -0.2536096 
0.75 -3.57984 17.94254 0.3244309 -0.502037 -0.8016878 
0.75 -0.15 14.9529 0.01984673 0.8944092 0.446809 
7.5 -4.37694 17.2702 0.8430359 -0.4647979 -0.2706537 
7.2 -3.57984 17.94254 0.9647378 -0.1888194 -0.1833798 
0.75 -2.78636 18.83819 0.2515756 0.9278698 0.2752587 
7.5 -3.25423 17.81087 0.9751491 -0.1745808 -0.136403 
7.2 -2.78636 18.83819 0.8539179 -0.4754339 -0.2116291 
7.5 -2.477289 18.78513 0.6075746 -0.7603823 -0.2295034 
7.2 -2.5 20 0.7942252 0.6042162 -0.06425832 
0.75 -2.5 20 0.3515222 0.9358675 -0.02416742 
0.75 -0.15 24.85 0.007177944 0.6895795 -0.7241744 
0.75 -2.78636 21.16181 0.3614327 0.8883802 -0.2831027 
7.5 -2.200001 20 0.9915105 0.1300157 -0.001690834 
7.5 -2.477289 21.21487 0.921216 0.3677639 -0.1269288 
7.2 -2.78636 21.16181 0.9526628 0.2233233 -0.2063017 
7.5 -0.15 24.85 0.8905206 0.3212678 -0.322118 
7.5 -3.25423 22.18913 0.9870468 0.09498792 -0.1292898 
7.2 -3.57984 22.05746 0.9793476 0.1149445 -0.1663312 
0.75 -3.57984 22.05746 0.6736042 -0.1158886 0.7299501 
0.75 -4.69866 22.48177 -0.2244391 0.1046121 -0.9688568 
7.5 -4.37694 22.7298 0.986032 -0.07084405 0.1507382 
7.2 -4.69866 22.48177 0.9920533 -0.02807091 0.1226472 
7.5 -5.62306 22.7298 0.9887108 0.06652113 0.1342609 
7.2 -5.88651 22.33754 0.8907184 -0.2237634 -0.3956648 
0.75 -5.88651 22.33754 -0.2556153 -0.2662471 -0.9293941 
0.75 -9.85 24.85 0.002144031 0.7081444 0.7060643 
0.75 -6.87128 21.65781 0.09433399 0.6803454 -0.7267952 
7.5 -6.74577 22.18913 0.989394 -0.0868536 -0.1164298 
7.2 -6.87128 21.65781 0.9783825 -0.1230539 -0.166209 
7.5 -7.52271 21.21487 0.9056022 -0.3830275 -0.1821388 
0.75 -7.42735 20.59829 -0.2921961 0.9414276 0.1683314 
7.425 -9.925 24.925 0.8932153 -0.3059275 -0.329507 
7.425 -0.075 24.925 0.8800053 0.3385808 -0.3330971 
7.35 0 24.85 0.8697839 0.3529952 -0.3447759 
5.7273 0 6.759398 0.6563221 0.7037069 -0.2720991 
6.1334 0 8.548799 0.5445187 0.8386718 -0.01135745 
4.811399 0 5.169498 0.536714 0.5893533 -0.6038219 
3.467199 0 3.9205 0.441019 0.4937306 -0.7494881 
1.814351 0 3.123701 0.2227444 0.5334395 -0.8159824 
0 0 2.85 -3.155623e-07 0.54836 -0.8362424 
3.403899 -0.15 4.059 0.4476019 0.494121 -0.7453167 
4.7181 -0.15 5.293301 0.5486143 0.5874869 -0.5948794 
1.78244 -0.15 3.270898 0.2266011 0.5352113 -0.8137572 
0 -0.15 3 -2.643987e-07 0.549012 -0.8358145 
-1.81435 0 3.123701 -0.2227443 0.5334388 -0.8159829 
-1.78244 -0.15 3.270898 -0.226601 0.5352106 -0.8137577 
-1.78244 -9.85 3.270898 -0.2068422 -0.6538112 -0.7278374 
0 -9.85 3 -8.567433e-07 -0.6169031 -0.7870391 
1.78244 -9.85 3.270898 0.2068422 -0.6538112 -0.7278374 
3.403899 -9.85 4.059 0.4431762 -0.6186196 -0.6487717 
1.814351 -10 3.123701 0.2035121 -0.6580465 -0.7249535 
0 -10 2.85 -8.504956e-07 -0.6204208 -0.7842691 
-1.81435 -10 3.123701 -0.2052624 -0.6570519 -0.7253621 
3.467199 -10 3.9205 0.4364744 -0.6219438 -0.6501355 
4.811399 -10 5.169498 0.600538 -0.6364577 -0.4840203 
4.7181 -9.85 5.293301 0.6101395 -0.6324562 -0.4772095 
7.35 -10 -24.85 -0.9050038 -0.3540853 -0.2357788 
-7.35 -10 -24.85 0.9050046 -0.3540841 -0.2357778 
-3.46719 -10 3.9205 -0.4364726 -0.621944 -0.6501364 
-3.40395 -9.85 4.059 -0.4431875 -0.6186143 -0.648769 
-3.40395 -0.15 4.059 -0.4476088 0.4941137 -0.7453174 
-4.8114 -10 5.169498 -0.6005378 -0.6364571 -0.4840212 
-4.7181 -9.85 5.293301 -0.6101394 -0.6324557 -0.4772103 
-4.7181 -0.15 5.293301 -0.5486138 0.5874859 -0.5948808 
-4.8114 0 5.169498 -0.5367135 0.5893524 -0.6038231 
-3.46719 0 3.9205 -0.4410168 0.4937308 -0.7494892 
-5.72732 0 6.759398 -0.6563253 0.7037039 -0.272099 
-5.60626 -0.15 6.862299 -0.6626294 0.7002442 -0.2656694 
-6.13343 0 8.548799 -0.5445235 0.8386686 -0.01135729 
-7.425 -0.075 24.925 -0.8800054 0.3385808 -0.333097 
-7.35 0 24.85 -0.8697839 0.3529952 -0.3447759 
-5.98822 -0.15 8.6243 -0.5517383 0.8339589 -0.009875353 
-5.99356 0 10.3783 -0.588267 0.8035953 0.09042395 
-5.60626 -9.85 6.862299 -0.6357342 -0.7239922 -0.2677263 
-5.98822 -9.85 8.6243 0.5068644 0.8614109 0.03255248 
-5.8295 -0.15 10.4202 -0.590174 0.8019511 0.0925694 
-5.32017 0 12.0852 -0.8786618 0.4634857 0.1146052 
-5.14443 -0.15 12.0878 -0.868992 0.4745231 0.1402878 
-5.8295 -9.85 10.4202 0.5803818 0.8113096 -0.07024088 
-6.13343 -10 8.548799 0.498575 0.8661678 0.03429642 
-5.72732 -10 6.759398 -0.5739847 -0.7827058 -0.2406516 
-5.99356 -10 10.3783 0.5645536 0.8230774 -0.0618289 
-7.35 -10 24.85 0.8831426 0.3196373 0.3433529 
-5.14443 -9.85 12.0878 0.8541734 0.5038213 -0.1286543 
-5.32017 -10 12.0852 0.8620161 0.4913664 -0.1244481 
-4.1732 -10 13.5174 0.5363545 0.7577117 -0.3717484 
-3.99487 -9.85 13.4767 0.4952027 0.7662789 -0.4093786 
-3.99487 -0.15 13.4767 -0.5220931 0.7699746 0.3668213 
-2.65476 -10 14.5475 0.2045547 0.8467851 -0.4910319 
-0.9 -10 24.85 0.004854468 0.7060756 0.7081198 
-2.4846 -0.15 14.4614 -0.1820979 0.8593528 0.4778631 
-2.65476 0 14.5475 -0.2226612 0.8385501 0.4972481 
-4.1732 0 13.5174 -0.3632284 0.8661257 0.3433531 
-0.9 0 15.08379 -0.0274729 0.8845914 0.4655569 
-0.9 0 24.85 -0.008252939 0.6892343 -0.7244916 
-7.425 -9.925 24.925 0.8932152 0.3059275 0.329507 
7.35 -9.85 -25 -0.9051936 -0.352075 -0.2380499 
-7.35 -9.85 -25 0.9051931 -0.3520765 -0.2380496 
7.35 -10 24.85 0.8831425 -0.3196373 -0.3433531 
5.7273 -10 6.759398 0.573981 -0.7827087 -0.2406511 
6.1334 -10 8.548799 0.49857 -0.8661707 -0.0342963 
5.6063 -9.85 6.862299 0.6357393 -0.7239876 -0.2677266 
5.988199 -9.85 8.6243 0.5068606 -0.8614132 -0.0325525 
5.993599 -10 10.3783 0.5645565 -0.8230755 0.06182823 
5.6063 -0.15 6.862299 0.662634 0.7002394 -0.2656709 
5.988199 -0.15 8.6243 0.5517345 0.8339613 -0.009875581 
5.8295 -9.85 10.4202 0.5803801 -0.8113108 0.07024097 
5.3202 -10 12.0852 0.8620185 -0.4913631 0.1244441 
5.1444 -9.85 12.0878 0.8541698 -0.5038264 0.1286574 
5.8295 -0.15 10.4202 0.5901724 0.8019523 0.09256934 
5.993599 0 10.3783 0.5882708 0.8035926 0.09042332 
5.3202 0 12.0852 0.8786642 0.4634823 0.1146011 
5.1444 -0.15 12.0878 0.8689888 0.4745281 0.1402911 
4.173199 -10 13.5174 0.5363528 -0.757713 0.3717482 
3.9949 -9.85 13.4767 0.4952049 -0.7662789 0.4093762 
2.6548 -10 14.5475 -0.2045588 0.8467855 -0.4910296 
0.9 -10 24.85 0.004854469 -0.7060757 -0.7081198 
2.4846 -9.85 14.4614 -0.1625746 0.8719909 -0.4617373 
3.9949 -0.15 13.4767 0.5220947 0.7699747 0.3668189 
4.173199 0 13.5174 0.3632286 0.8661258 0.3433528 
2.6548 0 14.5475 0.2226659 0.83855 0.4972462 
2.4846 -0.15 14.4614 0.1820973 0.8593529 0.4778631 
0.9 -10 15.08379 -0.02978308 0.8840228 -0.466494 
0.825001 -9.925 24.925 0.002153109 0.7083173 0.7058909 
0.9 0 15.08379 0.02747262 0.8845917 0.4655565 
0.825001 -0.075 24.925 0.008189038 0.6889873 -0.7247272 
0.9 0 24.85 0.008252937 0.6892343 -0.7244916 
7.35 -9.85 25 0.8871351 -0.3150659 -0.337231 
7.35 -0.15 25 0.8732236 0.3482198 -0.3409156 
0.9 -9.85 25 0.00486168 -0.7061305 -0.708065 
0.9 -0.15 25 0.008257922 0.6892099 -0.7245147 
-7.5 -0.15 24.85 -0.8905207 0.3212678 -0.3221179 
-7.5 -7.52271 21.21487 0.9056019 0.3830277 0.1821399 
-7.5 -6.74577 22.18913 0.989394 0.08685356 0.1164298 
-7.5 -5.62306 22.7298 0.9887108 -0.06652115 -0.1342609 
-7.2 -7.42735 20.59829 0.9246784 0.3788727 0.03775229 
-7.2 -6.87128 21.65781 -0.9783825 -0.123054 -0.1662091 
-0.75 -6.87128 21.65781 -0.09433382 0.6803454 -0.7267952 
-7.2 -5.88651 22.33754 -0.8907185 -0.2237633 -0.3956647 
-0.75 -5.88651 22.33754 0.2556153 -0.2662471 -0.9293941 
-7.2 -4.69866 22.48177 0.9920533 0.02807091 -0.1226472 
-0.75 -4.69866 22.48177 0.2244391 0.1046121 -0.9688568 
-0.75 -0.15 24.85 -0.00717794 0.6895796 -0.7241743 
-0.75 -3.57984 22.05746 0.6736042 0.1158886 -0.7299501 
-7.5 -4.37694 22.7298 0.986032 0.07084402 -0.1507381 
-7.2 -3.57984 22.05746 -0.9793476 0.1149445 -0.1663311 
-0.75 -2.78636 21.16181 -0.3614329 0.88838 -0.283103 
-7.5 -3.25423 22.18913 -0.9870468 0.09498792 -0.1292898 
-7.2 -2.78636 21.16181 -0.9526627 0.2233232 -0.2063019 
-7.5 -2.477289 21.21487 -0.9212156 0.3677643 -0.12693 
-7.2 -2.5 20 -0.7942246 0.604217 -0.06425862 
-0.75 -2.5 20 -0.3515226 0.9358674 -0.02416744 
-0.75 -2.78636 18.83819 -0.2515753 0.9278699 0.2752588 
-0.8250005 -0.075 24.925 -0.008189037 0.6889871 -0.7247273 
-0.75 -3.57984 17.94254 0.3244325 0.5020367 0.8016874 
-7.2 -2.78636 18.83819 0.8539177 0.4754344 0.211629 
-7.2 -3.57984 17.94254 0.964738 0.1888188 0.1833795 
-7.5 -3.25423 17.81087 0.9751495 0.1745788 0.1364029 
-7.5 -4.37694 17.2702 0.8430436 0.4647854 0.2706511 
-7.5 -2.477289 18.78513 0.6075746 0.7603824 0.2295034 
-7.5 -2.200001 20 -0.9915105 0.130016 -0.001690855 
-0.9 -0.15 25 -0.008257921 0.6892099 -0.7245147 
-7.35 -0.15 25 -0.8732237 0.3482197 -0.3409156 
-0.9 -9.85 25 0.00486168 0.7061305 0.708065 
-7.35 -9.85 25 0.8871351 0.3150658 0.337231 
3 0 1 2 
3 3 0 2 
3 0 3 4 
3 0 5 6 
3 1 0 6 
3 7 5 0 
3 8 7 0 
3 9 8 0 
3 0 4 9 
3 5 10 6 
3 11 10 5 
3 7 11 5 
3 12 1 6 
3 13 6 10 
3 6 13 12 
3 10 14 13 
3 15 14 10 
3 11 15 10 
3 16 17 11 
3 15 11 17 
3 11 7 16 
3 15 17 18 
3 19 15 18 
3 15 19 14 
3 14 20 21 
3 19 20 14 
3 21 13 14 
3 20 19 22 
3 19 23 22 
3 19 18 23 
3 23 24 25 
3 23 25 22 
3 18 24 23 
3 24 26 25 
3 24 18 27 
3 26 24 27 
3 28 26 29 
3 28 25 26 
3 26 27 29 
3 28 30 25 
3 30 28 29 
3 27 31 29 
3 32 29 31 
3 29 32 33 
3 30 29 33 
3 30 33 25 
3 34 25 33 
3 35 34 33 
3 32 36 33 
3 37 38 33 
3 36 37 33 
3 35 33 38 
3 39 32 31 
3 39 36 32 
3 39 37 36 
3 37 40 38 
3 41 37 42 
3 40 37 41 
3 39 42 37 
3 43 40 41 
3 44 41 45 
3 43 41 44 
3 42 45 41 
3 46 42 39 
3 42 46 47 
3 45 42 47 
3 45 47 48 
3 45 49 44 
3 49 45 48 
3 50 43 44 
3 51 44 49 
3 50 44 51 
3 49 48 52 
3 49 52 51 
3 48 53 52 
3 48 47 53 
3 47 46 54 
3 54 53 47 
3 53 55 56 
3 52 53 56 
3 53 54 55 
3 57 54 46 
3 54 57 58 
3 54 58 55 
3 55 59 56 
3 55 58 59 
3 58 60 61 
3 57 60 58 
3 61 59 58 
3 57 46 39 
3 60 57 39 
3 62 60 39 
3 62 61 60 
3 61 62 63 
3 61 63 64 
3 59 61 64 
3 56 59 64 
3 65 56 64 
3 66 65 64 
3 64 63 66 
3 63 67 68 
3 62 67 63 
3 63 68 69 
3 63 69 66 
3 62 39 67 
3 67 70 68 
3 39 70 67 
3 71 68 70 
3 68 71 69 
3 69 71 72 
3 66 69 73 
3 72 73 69 
3 66 73 65 
3 73 74 65 
3 73 72 74 
3 75 72 71 
3 72 75 76 
3 72 76 74 
3 75 71 70 
3 40 75 70 
3 77 75 40 
3 75 77 76 
3 76 77 78 
3 74 76 79 
3 78 79 76 
3 74 79 80 
3 65 74 80 
3 79 81 80 
3 79 78 81 
3 82 78 77 
3 78 82 83 
3 78 83 81 
3 82 77 40 
3 84 82 40 
3 82 84 83 
3 83 84 50 
3 81 83 85 
3 50 85 83 
3 81 85 80 
3 51 80 85 
3 85 50 51 
3 43 50 84 
3 43 84 40 
3 40 86 38 
3 40 70 86 
3 70 87 86 
3 70 39 87 
3 39 31 87 
3 88 87 31 
3 89 90 31 
3 91 89 31 
3 92 91 31 
3 93 92 31 
3 94 93 31 
3 27 94 31 
3 31 90 88 
3 91 92 95 
3 91 96 89 
3 96 91 95 
3 95 92 97 
3 93 97 92 
3 93 94 98 
3 97 93 98 
3 94 99 98 
3 99 94 27 
3 98 100 101 
3 98 102 97 
3 102 98 101 
3 98 99 100 
3 97 103 104 
3 95 97 104 
3 102 103 97 
3 102 105 103 
3 106 105 102 
3 107 106 102 
3 101 107 102 
3 108 103 105 
3 103 108 104 
3 104 109 110 
3 108 109 104 
3 110 95 104 
3 108 105 111 
3 109 108 111 
3 105 106 111 
3 106 107 112 
3 111 106 112 
3 107 101 113 
3 107 113 112 
3 114 113 101 
3 100 115 101 
3 101 115 114 
3 116 113 114 
3 113 116 112 
3 117 116 114 
3 114 118 117 
3 115 118 114 
3 115 119 118 
3 120 119 115 
3 100 120 115 
3 120 100 99 
3 120 99 27 
3 119 120 27 
3 121 118 119 
3 121 119 27 
3 122 117 118 
3 118 121 122 
3 121 123 122 
3 123 121 27 
3 27 18 124 
3 125 27 124 
3 125 123 27 
3 122 123 126 
3 127 126 123 
3 127 123 125 
3 122 126 128 
3 117 122 128 
3 128 126 129 
3 130 129 126 
3 126 127 130 
3 127 131 130 
3 131 127 125 
3 130 132 133 
3 129 130 133 
3 130 131 132 
3 129 133 134 
3 129 134 128 
3 128 135 117 
3 134 135 128 
3 116 117 135 
3 135 134 112 
3 116 135 112 
3 134 133 136 
3 134 136 137 
3 112 134 137 
3 138 136 133 
3 133 132 138 
3 139 136 138 
3 136 139 137 
3 140 139 138 
3 141 140 138 
3 142 138 132 
3 138 142 141 
3 139 140 137 
3 140 141 143 
3 137 140 144 
3 143 144 140 
3 4 143 141 
3 141 145 4 
3 142 145 141 
3 142 146 145 
3 147 146 142 
3 132 147 142 
3 147 132 131 
3 147 131 125 
3 146 147 125 
3 148 145 146 
3 149 148 146 
3 149 146 125 
3 9 4 145 
3 9 145 148 
3 3 143 4 
3 144 3 2 
3 3 144 143 
3 2 150 144 
3 137 144 150 
3 137 150 22 
3 112 137 22 
3 151 38 22 
3 152 151 22 
3 112 22 38 
3 150 20 22 
3 22 25 152 
3 111 112 38 
3 86 153 38 
3 111 38 153 
3 151 35 38 
3 154 109 111 
3 155 154 111 
3 153 155 111 
3 154 155 156 
3 154 110 109 
3 110 154 156 
3 156 155 157 
3 158 157 155 
3 158 155 153 
3 156 96 110 
3 159 96 156 
3 157 159 156 
3 95 110 96 
3 159 89 96 
3 159 157 160 
3 90 89 159 
3 160 90 159 
3 157 158 161 
3 161 160 157 
3 158 162 161 
3 162 158 153 
3 161 162 163 
3 164 160 161 
3 163 164 161 
3 164 165 160 
3 90 160 165 
3 90 165 88 
3 166 165 164 
3 165 166 88 
3 164 163 167 
3 167 166 164 
3 168 163 162 
3 163 168 169 
3 169 167 163 
3 168 162 153 
3 168 170 169 
3 170 168 171 
3 171 168 153 
3 169 170 172 
3 173 167 169 
3 172 173 169 
3 173 174 167 
3 166 167 174 
3 166 174 88 
3 175 174 173 
3 174 175 88 
3 173 172 176 
3 176 175 173 
3 177 172 170 
3 52 172 177 
3 52 176 172 
3 177 170 171 
3 177 171 178 
3 171 153 178 
3 52 177 178 
3 80 52 178 
3 56 176 52 
3 52 80 51 
3 179 175 176 
3 56 179 176 
3 179 56 180 
3 65 180 56 
3 181 179 180 
3 179 181 175 
3 181 180 87 
3 88 181 87 
3 175 181 88 
3 87 182 86 
3 183 182 87 
3 183 87 180 
3 182 184 86 
3 184 182 183 
3 184 178 86 
3 153 86 178 
3 184 185 178 
3 185 184 183 
3 185 183 180 
3 185 180 178 
3 178 180 80 
3 65 80 180 
3 34 35 151 
3 34 152 25 
3 152 34 151 
3 20 150 124 
3 186 20 124 
3 187 21 20 
3 188 187 20 
3 189 188 20 
3 186 189 20 
3 190 187 191 
3 21 187 190 
3 188 191 187 
3 13 21 190 
3 12 190 192 
3 13 190 12 
3 191 192 190 
3 191 188 193 
3 191 193 194 
3 192 191 194 
3 188 189 193 
3 193 189 195 
3 194 193 196 
3 195 196 193 
3 194 196 1 
3 192 194 1 
3 12 192 1 
3 1 197 2 
3 1 196 197 
3 196 198 197 
3 196 195 198 
3 199 195 189 
3 195 199 200 
3 195 200 198 
3 198 201 197 
3 198 200 201 
3 200 202 203 
3 199 202 200 
3 203 201 200 
3 199 189 186 
3 202 199 186 
3 204 202 186 
3 204 203 202 
3 203 204 205 
3 203 205 206 
3 201 203 206 
3 206 197 201 
3 9 197 206 
3 207 9 206 
3 206 205 207 
3 197 208 2 
3 197 9 208 
3 209 8 9 
3 207 209 9 
3 9 148 208 
3 207 210 209 
3 205 210 207 
3 211 209 210 
3 209 211 8 
3 8 16 7 
3 211 16 8 
3 210 212 211 
3 213 211 212 
3 211 213 16 
3 214 212 210 
3 205 214 210 
3 212 214 18 
3 213 212 18 
3 17 213 18 
3 213 17 16 
3 18 186 124 
3 18 214 215 
3 186 18 215 
3 205 215 214 
3 204 215 205 
3 204 186 215 
3 124 216 208 
3 125 124 208 
3 217 216 124 
3 217 124 150 
3 216 218 208 
3 216 217 219 
3 218 216 219 
3 218 2 208 
3 149 125 208 
3 148 149 208 
3 218 219 2 
3 219 150 2 
3 219 217 150 
3 220 221 222 
3 223 220 222 
3 220 223 224 
3 220 225 226 
3 221 220 226 
3 227 225 220 
3 228 227 220 
3 229 228 220 
3 220 224 229 
3 225 230 226 
3 231 230 225 
3 227 231 225 
3 232 221 226 
3 233 226 230 
3 226 233 232 
3 230 234 233 
3 235 234 230 
3 231 235 230 
3 236 237 231 
3 235 231 237 
3 231 227 236 
3 235 237 238 
3 239 235 238 
3 235 239 234 
3 234 240 241 
3 239 240 234 
3 241 233 234 
3 240 239 242 
3 239 243 242 
3 239 238 243 
3 243 244 245 
3 243 245 242 
3 238 244 243 
3 244 246 245 
3 244 238 247 
3 246 244 247 
3 248 246 249 
3 248 245 246 
3 246 247 249 
3 248 250 245 
3 250 248 249 
3 247 251 249 
3 252 249 251 
3 249 252 253 
3 250 249 253 
3 250 253 245 
3 254 245 253 
3 255 254 253 
3 252 256 253 
3 257 258 253 
3 256 257 253 
3 255 253 258 
3 259 252 251 
3 259 256 252 
3 259 257 256 
3 257 260 258 
3 261 257 262 
3 260 257 261 
3 259 262 257 
3 263 260 261 
3 264 261 265 
3 263 261 264 
3 262 265 261 
3 266 262 259 
3 262 266 267 
3 265 262 267 
3 265 267 268 
3 265 269 264 
3 269 265 268 
3 270 263 264 
3 271 264 269 
3 270 264 271 
3 269 268 272 
3 269 272 271 
3 268 273 272 
3 268 267 273 
3 267 266 274 
3 274 273 267 
3 273 275 276 
3 272 273 276 
3 273 274 275 
3 277 274 266 
3 274 277 278 
3 274 278 275 
3 275 279 276 
3 275 278 279 
3 278 280 281 
3 277 280 278 
3 281 279 278 
3 277 266 259 
3 280 277 259 
3 282 280 259 
3 282 281 280 
3 281 282 283 
3 281 283 284 
3 279 281 284 
3 276 279 284 
3 285 276 284 
3 286 285 284 
3 284 283 286 
3 283 287 288 
3 282 287 283 
3 283 288 289 
3 283 289 286 
3 282 259 287 
3 287 290 288 
3 259 290 287 
3 291 288 290 
3 288 291 289 
3 289 291 292 
3 286 289 293 
3 292 293 289 
3 286 293 285 
3 293 294 285 
3 293 292 294 
3 295 292 291 
3 292 295 296 
3 292 296 294 
3 295 291 290 
3 260 295 290 
3 297 295 260 
3 295 297 296 
3 296 297 298 
3 294 296 299 
3 298 299 296 
3 294 299 300 
3 285 294 300 
3 299 301 300 
3 299 298 301 
3 302 298 297 
3 298 302 303 
3 298 303 301 
3 302 297 260 
3 304 302 260 
3 302 304 303 
3 303 304 270 
3 301 303 305 
3 270 305 303 
3 301 305 300 
3 271 300 305 
3 305 270 271 
3 263 270 304 
3 263 304 260 
3 260 306 258 
3 260 290 306 
3 290 307 306 
3 290 259 307 
3 259 251 307 
3 308 307 251 
3 309 310 251 
3 311 309 251 
3 312 311 251 
3 313 312 251 
3 314 313 251 
3 247 314 251 
3 251 310 308 
3 311 312 315 
3 311 316 309 
3 316 311 315 
3 315 312 317 
3 313 317 312 
3 313 314 318 
3 317 313 318 
3 314 319 318 
3 319 314 247 
3 318 320 321 
3 318 322 317 
3 322 318 321 
3 318 319 320 
3 317 323 324 
3 315 317 324 
3 322 323 317 
3 322 325 323 
3 326 325 322 
3 327 326 322 
3 321 327 322 
3 328 323 325 
3 323 328 324 
3 324 329 330 
3 328 329 324 
3 330 315 324 
3 328 325 331 
3 329 328 331 
3 325 326 331 
3 326 327 332 
3 331 326 332 
3 327 321 333 
3 327 333 332 
3 334 333 321 
3 320 335 321 
3 321 335 334 
3 336 333 334 
3 333 336 332 
3 337 336 334 
3 334 338 337 
3 335 338 334 
3 335 339 338 
3 340 339 335 
3 320 340 335 
3 340 320 319 
3 340 319 247 
3 339 340 247 
3 341 338 339 
3 341 339 247 
3 342 337 338 
3 338 341 342 
3 341 343 342 
3 343 341 247 
3 247 238 344 
3 345 247 344 
3 345 343 247 
3 342 343 346 
3 347 346 343 
3 347 343 345 
3 342 346 348 
3 337 342 348 
3 348 346 349 
3 350 349 346 
3 346 347 350 
3 347 351 350 
3 351 347 345 
3 350 352 353 
3 349 350 353 
3 350 351 352 
3 349 353 354 
3 349 354 348 
3 348 355 337 
3 354 355 348 
3 336 337 355 
3 355 354 332 
3 336 355 332 
3 354 353 356 
3 354 356 357 
3 332 354 357 
3 358 356 353 
3 353 352 358 
3 359 356 358 
3 356 359 357 
3 360 359 358 
3 361 360 358 
3 362 358 352 
3 358 362 361 
3 359 360 357 
3 360 361 363 
3 357 360 364 
3 363 364 360 
3 224 363 361 
3 361 365 224 
3 362 365 361 
3 362 366 365 
3 367 366 362 
3 352 367 362 
3 367 352 351 
3 367 351 345 
3 366 367 345 
3 368 365 366 
3 369 368 366 
3 369 366 345 
3 229 224 365 
3 229 365 368 
3 223 363 224 
3 364 223 222 
3 223 364 363 
3 222 370 364 
3 357 364 370 
3 357 370 242 
3 332 357 242 
3 371 258 242 
3 372 371 242 
3 332 242 258 
3 370 240 242 
3 242 245 372 
3 331 332 258 
3 306 373 258 
3 331 258 373 
3 371 255 258 
3 374 329 331 
3 375 374 331 
3 373 375 331 
3 374 375 376 
3 374 330 329 
3 330 374 376 
3 376 375 377 
3 378 377 375 
3 378 375 373 
3 376 316 330 
3 379 316 376 
3 377 379 376 
3 315 330 316 
3 379 309 316 
3 379 377 380 
3 310 309 379 
3 380 310 379 
3 377 378 381 
3 381 380 377 
3 378 382 381 
3 382 378 373 
3 381 382 383 
3 384 380 381 
3 383 384 381 
3 384 385 380 
3 310 380 385 
3 310 385 308 
3 386 385 384 
3 385 386 308 
3 384 383 387 
3 387 386 384 
3 388 383 382 
3 383 388 389 
3 389 387 383 
3 388 382 373 
3 388 390 389 
3 390 388 391 
3 391 388 373 
3 389 390 392 
3 393 387 389 
3 392 393 389 
3 393 394 387 
3 386 387 394 
3 386 394 308 
3 395 394 393 
3 394 395 308 
3 393 392 396 
3 396 395 393 
3 397 392 390 
3 272 392 397 
3 272 396 392 
3 397 390 391 
3 397 391 398 
3 391 373 398 
3 272 397 398 
3 300 272 398 
3 276 396 272 
3 272 300 271 
3 399 395 396 
3 276 399 396 
3 399 276 400 
3 285 400 276 
3 401 399 400 
3 399 401 395 
3 401 400 307 
3 308 401 307 
3 395 401 308 
3 307 402 306 
3 403 402 307 
3 403 307 400 
3 402 404 306 
3 404 402 403 
3 404 398 306 
3 373 306 398 
3 404 405 398 
3 405 404 403 
3 405 403 400 
3 405 400 398 
3 398 400 300 
3 285 300 400 
3 254 255 371 
3 254 372 245 
3 372 254 371 
3 240 370 344 
3 406 240 344 
3 407 241 240 
3 408 407 240 
3 409 408 240 
3 406 409 240 
3 410 407 411 
3 241 407 410 
3 408 411 407 
3 233 241 410 
3 232 410 412 
3 233 410 232 
3 411 412 410 
3 411 408 413 
3 411 413 414 
3 412 411 414 
3 408 409 413 
3 413 409 415 
3 414 413 416 
3 415 416 413 
3 414 416 221 
3 412 414 221 
3 232 412 221 
3 221 417 222 
3 221 416 417 
3 416 418 417 
3 416 415 418 
3 419 415 409 
3 415 419 420 
3 415 420 418 
3 418 421 417 
3 418 420 421 
3 420 422 423 
3 419 422 420 
3 423 421 420 
3 419 409 406 
3 422 419 406 
3 424 422 406 
3 424 423 422 
3 423 424 425 
3 423 425 426 
3 421 423 426 
3 426 417 421 
3 229 417 426 
3 427 229 426 
3 426 425 427 
3 417 428 222 
3 417 229 428 
3 429 228 229 
3 427 429 229 
3 229 368 428 
3 427 430 429 
3 425 430 427 
3 431 429 430 
3 429 431 228 
3 228 236 227 
3 431 236 228 
3 430 432 431 
3 433 431 432 
3 431 433 236 
3 434 432 430 
3 425 434 430 
3 432 434 238 
3 433 432 238 
3 237 433 238 
3 433 237 236 
3 238 406 344 
3 238 434 435 
3 406 238 435 
3 425 435 434 
3 424 435 425 
3 424 406 435 
3 344 436 428 
3 345 344 428 
3 437 436 344 
3 437 344 370 
3 436 438 428 
3 436 437 439 
3 438 436 439 
3 438 222 428 
3 369 345 428 
3 368 369 428 
3 438 439 222 
3 439 370 222 
3 439 437 370 