ply
format ascii 1.0
comment VCGLIB generated
element vertex 132
property float x
property float y
property float z
property float nx
property float ny
property float nz
element face 256
property list uchar int vertex_indices
end_header
4.5 7.400001 -60 -2.068851e-08 -1.045566e-09 -1 
4.5 7.400001 60 2.091885e-08 1.09654e-09 -1 
3.897538 6.158645 60 2.138038e-08 1.197728e-09 -1 
3.897538 6.158645 -60 -2.115021e-08 -1.143164e-09 -1 
3.398974 4.872037 60 2.115197e-08 1.100572e-09 -1 
3.398974 4.872037 -60 -2.115597e-08 -1.029494e-09 -1 
3.00767 3.548856 60 2.138622e-08 1.082391e-09 -1 
3.00767 3.548856 -60 -2.115432e-08 -1.062053e-09 -1 
2.726267 2.198028 -60 -2.092339e-08 -1.014897e-09 -1 
2.726267 2.198028 60 2.115517e-08 1.037484e-09 -1 
2.556662 0.8286643 -60 -1.132595e-07 -2.041738e-09 -1 
2.556662 0.8286643 60 1.126548e-07 2.008703e-09 -1 
2.5 -0.5499998 60 1.401818e-07 -5.104404e-09 -1 
2.5 -0.5499998 -60 -1.401266e-07 5.127553e-09 -1 
2.556662 -1.928664 -60 -6.478057e-08 4.355961e-09 -1 
2.556662 -1.928664 60 6.453399e-08 -4.348014e-09 -1 
2.726267 -3.298028 -60 -6.429198e-08 4.272348e-09 -1 
2.726267 -3.298028 60 6.428782e-08 -4.333871e-09 -1 
3.00767 -4.648856 60 6.478464e-08 -4.295798e-09 -1 
3.00767 -4.648856 -60 -6.478464e-08 4.295797e-09 -1 
3.398974 -5.972037 -60 -6.45427e-08 4.219025e-09 -1 
3.398974 -5.972037 60 6.477692e-08 -4.410137e-09 -1 
3.897538 -7.258644 -60 -6.502004e-08 4.46936e-09 -1 
3.897538 -7.258644 60 6.502673e-08 -4.370229e-09 -1 
4.5 -8.5 -60 -6.428443e-08 4.384264e-09 -1 
4.5 -8.5 60 6.430121e-08 -4.135694e-09 -1 
-4.5 -8.5 60 -6.430121e-08 -4.135694e-09 -1 
-4.5 -8.5 -60 6.428443e-08 4.384264e-09 -1 
-3.897538 -7.258644 60 -6.502673e-08 -4.370229e-09 -1 
-3.897538 -7.258644 -60 6.502004e-08 4.46936e-09 -1 
-3.398974 -5.972037 60 -6.477692e-08 -4.410137e-09 -1 
-3.398974 -5.972037 -60 6.45427e-08 4.219025e-09 -1 
-3.00767 -4.648856 60 -6.452762e-08 -4.442374e-09 -1 
-3.00767 -4.648856 -60 6.478464e-08 4.295797e-09 -1 
-2.726267 -3.298028 -60 6.429198e-08 4.272348e-09 -1 
-2.726267 -3.298028 60 -6.428782e-08 -4.333871e-09 -1 
-2.556662 -1.928664 -60 6.478057e-08 4.355961e-09 -1 
-2.556662 -1.928664 60 -6.453399e-08 -4.348014e-09 -1 
-2.5 -0.5499998 60 -1.401818e-07 -5.104404e-09 -1 
-2.5 -0.5499998 -60 1.401266e-07 5.127553e-09 -1 
-2.556662 0.8286643 -60 1.132595e-07 -2.041738e-09 -1 
-2.556662 0.8286643 60 -1.126548e-07 2.008703e-09 -1 
-2.726267 2.198028 -60 2.092339e-08 -1.014897e-09 -1 
-2.726267 2.198028 60 -2.115517e-08 1.037484e-09 -1 
-3.00767 3.548856 60 -2.138622e-08 1.082391e-09 -1 
-3.00767 3.548856 -60 2.115432e-08 -1.062053e-09 -1 
-3.398974 4.872037 -60 2.115597e-08 -1.029494e-09 -1 
-3.398974 4.872037 60 -2.115197e-08 1.100572e-09 -1 
-3.897538 6.158645 -60 2.115021e-08 -1.143164e-09 -1 
-3.897538 6.158645 60 -2.138038e-08 1.197728e-09 -1 
-4.5 7.400001 60 -2.091885e-08 1.09654e-09 -1 
-4.5 7.400001 -60 2.068851e-08 -1.045566e-09 -1 
3.432757 7.876026 -60 -2.115506e-08 -1.047436e-09 -1 
3.432757 7.876026 60 2.13881e-08 1.04537e-09 -1 
2.316247 8.221011 60 1.006965e-19 3.409231e-26 -1 
2.316247 8.221011 -60 2.321551e-20 -6.666903e-20 -1 
1.166494 8.430001 60 -7.311859e-21 1.055454e-27 -1 
1.166494 8.430001 -60 -7.311859e-21 6.841789e-21 1 
0 8.5 60 1 0 0 
0 8.5 -60 1 0 0 
-1.166494 8.430001 60 7.311859e-21 1.055454e-27 -1 
-1.166494 8.430001 -60 7.311859e-21 6.841789e-21 1 
-2.316247 8.221011 60 -1.006965e-19 3.409231e-26 -1 
-2.316247 8.221011 -60 -2.321551e-20 -6.666903e-20 -1 
-3.432757 7.876026 60 -2.13881e-08 1.04537e-09 -1 
-3.432757 7.876026 -60 2.115506e-08 -1.047436e-09 -1 
4.5 7.400001 -60 2.068851e-08 1.045566e-09 1.0 
4.5 7.400001 60 -2.091885e-08 -1.09654e-09 1.0 
3.897538 6.158645 60 -2.138038e-08 -1.197728e-09 1.0 
3.897538 6.158645 -60 2.115021e-08 1.143164e-09 1.0 
3.398974 4.872037 60 -2.115197e-08 -1.100572e-09 1.0 
3.398974 4.872037 -60 2.115597e-08 1.029494e-09 1.0 
3.00767 3.548856 60 -2.138622e-08 -1.082391e-09 1.0 
3.00767 3.548856 -60 2.115432e-08 1.062053e-09 1.0 
2.726267 2.198028 -60 2.092339e-08 1.014897e-09 1.0 
2.726267 2.198028 60 -2.115517e-08 -1.037484e-09 1.0 
2.556662 0.8286643 -60 1.132595e-07 2.041738e-09 1.0 
2.556662 0.8286643 60 -1.126548e-07 -2.008703e-09 1.0 
2.5 -0.5499998 60 -1.401818e-07 5.104404e-09 1.0 
2.5 -0.5499998 -60 1.401266e-07 -5.127553e-09 1.0 
2.556662 -1.928664 -60 6.478057e-08 -4.355961e-09 1.0 
2.556662 -1.928664 60 -6.453399e-08 4.348014e-09 1.0 
2.726267 -3.298028 -60 6.429198e-08 -4.272348e-09 1.0 
2.726267 -3.298028 60 -6.428782e-08 4.333871e-09 1.0 
3.00767 -4.648856 60 -6.478464e-08 4.295798e-09 1.0 
3.00767 -4.648856 -60 6.478464e-08 -4.295797e-09 1.0 
3.398974 -5.972037 -60 6.45427e-08 -4.219025e-09 1.0 
3.398974 -5.972037 60 -6.477692e-08 4.410137e-09 1.0 
3.897538 -7.258644 -60 6.502004e-08 -4.46936e-09 1.0 
3.897538 -7.258644 60 -6.502673e-08 4.370229e-09 1.0 
4.5 -8.5 -60 6.428443e-08 -4.384264e-09 1.0 
4.5 -8.5 60 -6.430121e-08 4.135694e-09 1.0 
-4.5 -8.5 60 6.430121e-08 4.135694e-09 1.0 
-4.5 -8.5 -60 -6.428443e-08 -4.384264e-09 1.0 
-3.897538 -7.258644 60 6.502673e-08 4.370229e-09 1.0 
-3.897538 -7.258644 -60 -6.502004e-08 -4.46936e-09 1.0 
-3.398974 -5.972037 60 6.477692e-08 4.410137e-09 1.0 
-3.398974 -5.972037 -60 -6.45427e-08 -4.219025e-09 1.0 
-3.00767 -4.648856 60 6.452762e-08 4.442374e-09 1.0 
-3.00767 -4.648856 -60 -6.478464e-08 -4.295797e-09 1.0 
-2.726267 -3.298028 -60 -6.429198e-08 -4.272348e-09 1.0 
-2.726267 -3.298028 60 6.428782e-08 4.333871e-09 1.0 
-2.556662 -1.928664 -60 -6.478057e-08 -4.355961e-09 1.0 
-2.556662 -1.928664 60 6.453399e-08 4.348014e-09 1.0 
-2.5 -0.5499998 60 1.401818e-07 5.104404e-09 1.0 
-2.5 -0.5499998 -60 -1.401266e-07 -5.127553e-09 1.0 
-2.556662 0.8286643 -60 -1.132595e-07 2.041738e-09 1.0 
-2.556662 0.8286643 60 1.126548e-07 -2.008703e-09 1.0 
-2.726267 2.198028 -60 -2.092339e-08 1.014897e-09 1.0 
-2.726267 2.198028 60 2.115517e-08 -1.037484e-09 1.0 
-3.00767 3.548856 60 2.138622e-08 -1.082391e-09 1.0 
-3.00767 3.548856 -60 -2.115432e-08 1.062053e-09 1.0 
-3.398974 4.872037 -60 -2.115597e-08 1.029494e-09 1.0 
-3.398974 4.872037 60 2.115197e-08 -1.100572e-09 1.0 
-3.897538 6.158645 -60 -2.115021e-08 1.143164e-09 1.0 
-3.897538 6.158645 60 2.138038e-08 -1.197728e-09 1.0 
-4.5 7.400001 60 2.091885e-08 -1.09654e-09 1.0 
-4.5 7.400001 -60 -2.068851e-08 1.045566e-09 1.0 
3.432757 7.876026 -60 2.115506e-08 1.047436e-09 1.0 
3.432757 7.876026 60 -2.13881e-08 -1.04537e-09 1.0 
2.316247 8.221011 60 -1.006965e-19 -3.409231e-26 1.0 
2.316247 8.221011 -60 -2.321551e-20 6.666903e-20 1.0 
1.166494 8.430001 60 7.311859e-21 -1.055454e-27 1.0 
1.166494 8.430001 -60 7.311859e-21 -6.841789e-21 -1.0 
0 8.5 60 -1.0 -0.0 -0.0 
0 8.5 -60 -1.0 -0.0 -0.0 
-1.166494 8.430001 60 -7.311859e-21 -1.055454e-27 1.0 
-1.166494 8.430001 -60 -7.311859e-21 -6.841789e-21 -1.0 
-2.316247 8.221011 60 1.006965e-19 -3.409231e-26 1.0 
-2.316247 8.221011 -60 2.321551e-20 6.666903e-20 1.0 
-3.432757 7.876026 60 2.13881e-08 -1.04537e-09 1.0 
-3.432757 7.876026 -60 -2.115506e-08 1.047436e-09 1.0 
3 0 1 2 
3 3 2 4 
3 3 0 2 
3 5 4 6 
3 5 3 4 
3 7 5 6 
3 8 6 9 
3 8 7 6 
3 10 9 11 
3 10 11 12 
3 10 8 9 
3 13 10 12 
3 14 12 15 
3 14 13 12 
3 16 15 17 
3 16 17 18 
3 16 14 15 
3 19 16 18 
3 20 18 21 
3 20 19 18 
3 22 21 23 
3 22 20 21 
3 24 23 25 
3 24 22 23 
3 26 27 24 
3 25 26 24 
3 27 26 28 
3 29 28 30 
3 29 27 28 
3 31 30 32 
3 31 29 30 
3 33 31 32 
3 34 32 35 
3 34 33 32 
3 36 35 37 
3 36 37 38 
3 36 34 35 
3 39 36 38 
3 40 38 41 
3 40 39 38 
3 42 41 43 
3 42 43 44 
3 42 40 41 
3 45 42 44 
3 46 44 47 
3 46 45 44 
3 48 47 49 
3 48 49 50 
3 48 46 47 
3 51 48 50 
3 1 0 52 
3 53 1 52 
3 54 53 55 
3 53 52 55 
3 56 54 57 
3 54 55 57 
3 58 56 59 
3 56 57 59 
3 60 58 61 
3 58 59 61 
3 62 60 63 
3 60 61 63 
3 64 62 65 
3 62 63 65 
3 50 64 51 
3 64 65 51 
3 63 46 48 
3 63 61 46 
3 65 63 48 
3 51 65 48 
3 27 22 24 
3 29 20 22 
3 29 22 27 
3 31 19 20 
3 31 20 29 
3 33 16 19 
3 33 19 31 
3 34 14 16 
3 34 16 33 
3 36 13 14 
3 36 14 34 
3 39 10 13 
3 39 13 36 
3 40 8 10 
3 40 10 39 
3 52 0 3 
3 42 7 8 
3 42 8 40 
3 55 3 5 
3 55 52 3 
3 45 7 42 
3 57 55 5 
3 59 5 7 
3 59 45 46 
3 59 7 45 
3 59 57 5 
3 61 59 46 
3 49 47 62 
3 47 60 62 
3 49 62 64 
3 49 64 50 
3 25 23 26 
3 23 21 28 
3 26 23 28 
3 21 18 30 
3 28 21 30 
3 18 17 32 
3 30 18 32 
3 17 15 35 
3 32 17 35 
3 15 12 37 
3 35 15 37 
3 12 11 38 
3 37 12 38 
3 11 9 41 
3 38 11 41 
3 2 1 53 
3 9 6 43 
3 41 9 43 
3 4 2 54 
3 2 53 54 
3 43 6 44 
3 4 54 56 
3 6 4 58 
3 47 44 58 
3 44 6 58 
3 4 56 58 
3 47 58 60 
3 66 67 68 
3 69 68 70 
3 69 66 68 
3 71 70 72 
3 71 69 70 
3 73 71 72 
3 74 72 75 
3 74 73 72 
3 76 75 77 
3 76 77 78 
3 76 74 75 
3 79 76 78 
3 80 78 81 
3 80 79 78 
3 82 81 83 
3 82 83 84 
3 82 80 81 
3 85 82 84 
3 86 84 87 
3 86 85 84 
3 88 87 89 
3 88 86 87 
3 90 89 91 
3 90 88 89 
3 92 93 90 
3 91 92 90 
3 93 92 94 
3 95 94 96 
3 95 93 94 
3 97 96 98 
3 97 95 96 
3 99 97 98 
3 100 98 101 
3 100 99 98 
3 102 101 103 
3 102 103 104 
3 102 100 101 
3 105 102 104 
3 106 104 107 
3 106 105 104 
3 108 107 109 
3 108 109 110 
3 108 106 107 
3 111 108 110 
3 112 110 113 
3 112 111 110 
3 114 113 115 
3 114 115 116 
3 114 112 113 
3 117 114 116 
3 67 66 118 
3 119 67 118 
3 120 119 121 
3 119 118 121 
3 122 120 123 
3 120 121 123 
3 124 122 125 
3 122 123 125 
3 126 124 127 
3 124 125 127 
3 128 126 129 
3 126 127 129 
3 130 128 131 
3 128 129 131 
3 116 130 117 
3 130 131 117 
3 129 112 114 
3 129 127 112 
3 131 129 114 
3 117 131 114 
3 93 88 90 
3 95 86 88 
3 95 88 93 
3 97 85 86 
3 97 86 95 
3 99 82 85 
3 99 85 97 
3 100 80 82 
3 100 82 99 
3 102 79 80 
3 102 80 100 
3 105 76 79 
3 105 79 102 
3 106 74 76 
3 106 76 105 
3 118 66 69 
3 108 73 74 
3 108 74 106 
3 121 69 71 
3 121 118 69 
3 111 73 108 
3 123 121 71 
3 125 71 73 
3 125 111 112 
3 125 73 111 
3 125 123 71 
3 127 125 112 
3 115 113 128 
3 113 126 128 
3 115 128 130 
3 115 130 116 
3 91 89 92 
3 89 87 94 
3 92 89 94 
3 87 84 96 
3 94 87 96 
3 84 83 98 
3 96 84 98 
3 83 81 101 
3 98 83 101 
3 81 78 103 
3 101 81 103 
3 78 77 104 
3 103 78 104 
3 77 75 107 
3 104 77 107 
3 68 67 119 
3 75 72 109 
3 107 75 109 
3 70 68 120 
3 68 119 120 
3 109 72 110 
3 70 120 122 
3 72 70 124 
3 113 110 124 
3 110 72 124 
3 70 122 124 
3 113 124 126 