ply
format ascii 1.0
comment VCGLIB generated
element vertex 576
property float x
property float y
property float z
property float nx
property float ny
property float nz
element face 1144
property list uchar int vertex_indices
end_header
5.28964 8.486443 30 0 0 1 
4.403942 8.978045 30 0 0 1 
-9.189578 -3.943558 30 0 0 1 
-8.207634 -5.712682 30 0 0 1 
-6.889669 -7.247928 30 0 0 1 
-8.743466 -4.85302 30 0 0 1 
6.889669 -7.247928 30 0 0 1 
7.587581 -6.513725 30 0 0 1 
6.12106 -7.907757 30 0 0 1 
-9.541392 -2.993631 30 0 0 1 
3.473053 9.377522 30 0 0 1 
2.506525 9.680771 30 0 0 1 
5.28964 -8.486443 30 0 0 1 
-9.7953 -2.012985 30 0 0 1 
8.207634 -5.712682 30 0 0 1 
8.743466 -4.85302 30 0 0 1 
1.514278 9.884684 30 0 0 1 
0.506492 9.987165 30 0 0 1 
4.403942 -8.978045 30 0 0 1 
3.473053 -9.377522 30 0 0 1 
-9.948693 -1.011683 30 0 0 1 
-10 0 30 0 0 1 
9.189578 -3.943558 30 0 0 1 
9.541392 -2.993631 30 0 0 1 
-9.948693 1.011683 30 0 0 1 
-0.506492 9.987165 30 0 0 1 
-2.506525 9.680771 30 0 0 1 
-1.514278 9.884684 30 0 0 1 
-9.7953 2.012985 30 0 0 1 
-9.541392 2.993631 30 0 0 1 
9.7953 -2.012985 30 0 0 1 
9.948693 -1.011683 30 0 0 1 
10 0 30 0 0 1 
0.506492 -9.987165 30 0 0 1 
1.514278 -9.884684 30 0 0 1 
-0.506492 -9.987165 30 0 0 1 
2.506525 -9.680771 30 0 0 1 
-3.473053 9.377522 30 0 0 1 
-4.403942 8.978045 30 0 0 1 
-9.189578 3.943558 30 0 0 1 
-8.743466 4.85302 30 0 0 1 
9.948693 1.011683 30 0 0 1 
9.7953 2.012985 30 0 0 1 
-5.28964 8.486443 30 0 0 1 
-6.12106 7.907757 30 0 0 1 
-8.207634 5.712682 30 0 0 1 
-7.587581 6.513725 30 0 0 1 
-6.889669 7.247928 30 0 0 1 
-2.506525 -9.680771 30 0 0 1 
-1.514278 -9.884684 30 0 0 1 
-3.473053 -9.377522 30 0 0 1 
9.541392 2.993631 30 0 0 1 
8.743466 4.85302 30 0 0 1 
9.189578 3.943558 30 0 0 1 
-4.403942 -8.978045 30 0 0 1 
-5.28964 -8.486443 30 0 0 1 
-6.12106 -7.907757 30 0 0 1 
6.889669 7.247928 30 0 0 1 
8.207634 5.712682 30 0 0 1 
7.587581 6.513725 30 0 0 1 
-7.587581 -6.513725 30 0 0 1 
6.12106 7.907757 30 0 0 1 
10 0 -10 -0.05787207 -0.002686799 0.9983204 
9.948693 1.011683 -10 -0.05638475 -0.007986891 0.9983771 
9.7953 2.012985 -10 -0.038696 -0.008575396 0.9992142 
9.541392 2.993631 -10 -0.03776175 -0.01183898 0.9992166 
9.189578 3.943558 -10 -0.03674936 -0.01500088 0.9992119 
8.743466 4.85302 -10 -0.05087073 -0.0254559 0.9983808 
8.207634 5.712682 -10 -0.04778957 -0.03054551 0.9983903 
7.587581 6.513725 -10 -0.04453075 -0.03643121 0.9983435 
6.889669 7.247928 -10 -0.0411774 -0.042866 0.9982319 
6.12106 7.907757 -10 -0.03523733 -0.0474398 0.9982524 
5.28964 8.486443 -10 -0.02898819 -0.05091513 0.9982822 
4.403942 8.978045 -10 -0.02274922 -0.05145863 0.998416 
3.473053 9.377522 -10 -0.01338493 -0.03799577 0.9991882 
2.506525 9.680771 -10 -0.009708395 -0.03837924 0.9992161 
1.514278 9.884684 -10 -0.006555524 -0.03908274 0.9992145 
0.506492 9.987165 -10 -0.004972987 -0.05521899 0.9984619 
-0.506492 9.987165 -10 0.0005478424 -0.05648391 0.9984034 
-1.514278 9.884684 -10 0.007167688 -0.05842257 0.9982662 
-2.506525 9.680771 -10 0.01435688 -0.05747814 0.9982435 
-3.473053 9.377522 -10 0.02154393 -0.05544861 0.9982291 
-4.403942 8.978045 -10 0.02683958 -0.05072073 0.9983522 
-5.28964 8.486443 -10 0.03258101 -0.04786593 0.9983222 
-6.12106 7.907757 -10 0.02501034 -0.03091895 0.9992089 
-6.889669 7.247928 -10 0.02760108 -0.0284056 0.9992154 
-7.587581 6.513725 -10 0.02979921 -0.02606408 0.999216 
-8.207634 5.712682 -10 0.03287029 -0.02356511 0.9991818 
-8.743466 4.85302 -10 0.04891208 -0.02996282 0.9983535 
-9.189578 3.943558 -10 0.05284291 -0.02498538 0.9982902 
-9.541392 2.993631 -10 0.05640643 -0.01891442 0.9982287 
-9.7953 2.012985 -10 0.05671242 -0.01133913 0.9983262 
-9.948693 1.011683 -10 0.05891407 -0.00420309 0.9982542 
-10 0 -10 0.05790608 0.002405415 0.9983191 
-9.948693 -1.011683 -10 0.05638475 0.007986891 0.9983771 
-9.7953 -2.012985 -10 0.038696 0.008575396 0.9992142 
-9.541392 -2.993631 -10 0.03776175 0.01183898 0.9992166 
-9.189578 -3.943558 -10 0.03674936 0.01500088 0.9992119 
-8.743466 -4.85302 -10 0.05087073 0.0254559 0.9983808 
-8.207634 -5.712682 -10 0.04778957 0.03054551 0.9983903 
-7.587581 -6.513725 -10 0.04453075 0.03643121 0.9983435 
-6.889669 -7.247928 -10 0.0411774 0.042866 0.9982319 
-6.12106 -7.907757 -10 0.03523733 0.0474398 0.9982524 
-5.28964 -8.486443 -10 0.02898819 0.05091513 0.9982822 
-4.403942 -8.978045 -10 0.02274922 0.05145863 0.998416 
-3.473053 -9.377522 -10 0.01338493 0.03799577 0.9991882 
-2.506525 -9.680771 -10 0.009708395 0.03837924 0.9992161 
-1.514278 -9.884684 -10 0.006555524 0.03908274 0.9992145 
-0.506492 -9.987165 -10 0.004972987 0.05521899 0.9984619 
0.506492 -9.987165 -10 -0.0005478424 0.05648391 0.9984034 
1.514278 -9.884684 -10 -0.007167688 0.05842257 0.9982662 
2.506525 -9.680771 -10 -0.01435688 0.05747814 0.9982435 
3.473053 -9.377522 -10 -0.02154393 0.05544861 0.9982291 
4.403942 -8.978045 -10 -0.02683958 0.05072073 0.9983522 
5.28964 -8.486443 -10 -0.03258101 0.04786593 0.9983222 
6.12106 -7.907757 -10 -0.02501034 0.03091895 0.9992089 
6.889669 -7.247928 -10 -0.02760108 0.0284056 0.9992154 
7.587581 -6.513725 -10 -0.02979921 0.02606408 0.999216 
8.207634 -5.712682 -10 -0.03287029 0.02356511 0.9991818 
8.743466 -4.85302 -10 -0.04882174 0.03022302 0.9983501 
9.189578 -3.943558 -10 -0.05284291 0.02498538 0.9982902 
9.541392 -2.993631 -10 -0.05640643 0.01891442 0.9982287 
9.7953 -2.012985 -10 -0.05671242 0.01133913 0.9983262 
9.948693 -1.011683 -10 -0.05891407 0.00420309 0.9982542 
-11.03586 -10.15922 -10 0.040698 0.03468627 0.9985693 
-10.15922 -11.03586 -10 0.03615898 0.03809271 0.9986198 
-11.83711 -9.213191 -10 0.04616056 0.03249012 0.9984055 
-9.213191 -11.83711 -10 0.03041254 0.04413047 0.9985628 
-8.204223 -12.5575 -10 0.02798453 0.04946313 0.9983838 
-12.5575 -8.204223 -10 0.05209523 0.03123115 0.9981536 
-7.139211 -13.19211 -10 0.02647541 0.0553409 0.9981164 
-13.19211 -7.139211 -10 0.1033805 0.04574682 0.9935893 
-6.025431 -13.7366 -10 0.03725545 0.1062725 0.9936389 
-13.7366 -6.025431 -10 0.1098923 0.04182938 0.9930629 
-14.18726 -4.870492 -10 0.1136426 0.03707901 0.9928296 
-4.870492 -14.18726 -10 0.03310603 0.1125732 0.9930918 
-14.541 -3.682282 -10 0.1143881 0.03151657 0.9929361 
-3.682282 -14.541 -10 0.02823004 0.1161195 0.992834 
-2.468919 -14.79542 -10 0.02264067 0.1166563 0.9929143 
-14.79542 -2.468919 -10 0.1146861 0.02586313 0.9930651 
-1.23869 -14.94877 -10 0.01642716 0.1142529 0.9933159 
-14.94877 -1.23869 -10 0.1115023 0.01877584 0.9935868 
0 -15 -10 0.002228499 0.06389426 0.9979542 
-15 0 -10 0.05940524 0.00424044 0.9982249 
-14.94877 1.23869 -10 0.05571259 -0.0028146 0.9984429 
1.23869 -14.94877 -10 -0.001426768 0.05910411 0.9982508 
-14.79542 2.468919 -10 0.05260129 -0.007814918 0.998585 
2.468919 -14.79542 -10 -0.005624504 0.05481338 0.9984808 
-14.541 3.682282 -10 0.05095189 -0.01325434 0.9986132 
3.682282 -14.541 -10 -0.01312424 0.05127867 0.9985982 
4.870492 -14.18726 -10 -0.0184653 0.04934719 0.998611 
-14.18726 4.870492 -10 0.05089312 -0.01902351 0.9985229 
6.025431 -13.7366 -10 -0.02420554 0.04900007 0.9985054 
-13.7366 6.025431 -10 0.05215041 -0.02490554 0.9983286 
-13.19211 7.139211 -10 0.05289017 -0.03272299 0.998064 
7.139211 -13.19211 -10 -0.03012828 0.04997808 0.9982958 
-12.5575 8.204223 -10 0.09221827 -0.06997052 0.9932774 
8.204223 -12.5575 -10 -0.03589445 0.05171242 0.9980167 
-11.83711 9.213191 -10 0.09092095 -0.0766959 0.9929004 
9.213191 -11.83711 -10 -0.07678019 0.08621816 0.9933133 
10.15922 -11.03586 -10 -0.08340234 0.08465524 0.9929137 
-11.03586 10.15922 -10 0.08496656 -0.07855051 0.9932827 
11.03586 -10.15922 -10 -0.08496656 0.07855051 0.9932827 
-10.15922 11.03586 -10 0.08340234 -0.08465524 0.9929137 
11.83711 -9.213191 -10 -0.09092095 0.0766959 0.9929004 
-9.213191 11.83711 -10 0.07678019 -0.08621816 0.9933133 
12.5575 -8.204223 -10 -0.09221827 0.06997052 0.9932774 
-8.204223 12.5575 -10 0.03589445 -0.05171242 0.9980167 
13.19211 -7.139211 -10 -0.05289017 0.03272299 0.998064 
-7.139211 13.19211 -10 0.03012828 -0.04997808 0.9982958 
13.7366 -6.025431 -10 -0.05215041 0.02490554 0.9983286 
-6.025431 13.7366 -10 0.02420554 -0.04900007 0.9985054 
14.18726 -4.870492 -10 -0.05089312 0.01902351 0.9985229 
-4.870492 14.18726 -10 0.0184653 -0.04934719 0.998611 
14.541 -3.682282 -10 -0.05095189 0.01325434 0.9986132 
-3.682282 14.541 -10 0.01312424 -0.05127867 0.9985982 
14.79542 -2.468919 -10 -0.05260129 0.007814918 0.998585 
-2.468919 14.79542 -10 0.005624504 -0.05481338 0.9984808 
14.94877 -1.23869 -10 -0.05571259 0.0028146 0.9984429 
-1.23869 14.94877 -10 0.001426768 -0.05910411 0.9982508 
15 0 -10 -0.05977386 -0.001695363 0.9982105 
0 15 -10 -0.002225195 -0.06389748 0.997954 
14.94877 1.23869 -10 -0.1115023 -0.01877584 0.9935868 
1.23869 14.94877 -10 -0.01642716 -0.1142529 0.9933159 
14.79542 2.468919 -10 -0.1146861 -0.02586313 0.9930651 
2.468919 14.79542 -10 -0.02264067 -0.1166563 0.9929143 
14.541 3.682282 -10 -0.1143881 -0.03151657 0.9929361 
3.682282 14.541 -10 -0.02823004 -0.1161195 0.992834 
14.18726 4.870492 -10 -0.1136426 -0.03707901 0.9928296 
4.870492 14.18726 -10 -0.03310603 -0.1125732 0.9930918 
13.7366 6.025431 -10 -0.1098923 -0.04182938 0.9930629 
6.025431 13.7366 -10 -0.03725545 -0.1062725 0.9936389 
13.19211 7.139211 -10 -0.1033805 -0.04574682 0.9935893 
7.139211 13.19211 -10 -0.02647541 -0.0553409 0.9981164 
12.5575 8.204223 -10 -0.05209523 -0.03123115 0.9981536 
8.204223 12.5575 -10 -0.02798453 -0.04946313 0.9983838 
11.83711 9.213191 -10 -0.04616056 -0.03249012 0.9984055 
9.213191 11.83711 -10 -0.03041254 -0.04413047 0.9985628 
11.03586 10.15922 -10 -0.040698 -0.03468627 0.9985693 
10.15922 11.03586 -10 -0.03615898 -0.03809271 0.9986198 
15 0 -30 -0.5965198 -0.01143001 0.8025169 
14.94877 -1.23869 -30 -0.5674517 0.03291655 0.8227485 
14.79542 -2.468919 -30 -0.9793219 0.1630565 -0.1197546 
14.541 -3.682282 -30 -0.9624262 0.2438509 -0.1194681 
14.18726 -4.870492 -30 -0.9387242 0.3229332 -0.1204615 
13.7366 -6.025431 -30 -0.5137801 0.238312 0.8241587 
13.19211 -7.139211 -30 -0.5282495 0.2936094 0.7967095 
12.5575 -8.204223 -30 -0.5165681 0.3430168 0.7845361 
11.83711 -9.213191 -30 -0.496503 0.3896872 0.7756472 
11.03586 -10.15922 -30 -0.4688713 0.432411 0.7701821 
10.15922 -11.03586 -30 -0.4327081 0.4680101 0.7705389 
9.213191 -11.83711 -30 -0.3836805 0.4831423 0.7869961 
8.204223 -12.5575 -30 -0.3354337 0.4983089 0.7994826 
7.139211 -13.19211 -30 -0.2825831 0.4997773 0.8187609 
6.025431 -13.7366 -30 -0.3995045 0.9090106 -0.1187264 
4.870492 -14.18726 -30 -0.3225709 0.93898 -0.1194344 
3.682282 -14.541 -30 -0.2434033 0.9623002 -0.1213797 
2.468919 -14.79542 -30 -0.1626306 0.9796399 -0.1177151 
1.23869 -14.94877 -30 -0.03957969 0.5983771 0.8002364 
0 -15 -30 0.007517374 0.6248844 0.7806811 
-1.23869 -14.94877 -30 0.05748112 0.6319662 0.7728613 
-2.468919 -14.79542 -30 0.1077277 0.6285225 0.7702949 
-3.682282 -14.541 -30 0.1550107 0.6194507 0.7695794 
-4.870492 -14.18726 -30 0.202353 0.6011269 0.7731104 
-6.025431 -13.7366 -30 0.1987935 0.4685358 0.8607876 
-7.139211 -13.19211 -30 0.2762806 0.527673 0.8032622 
-8.204223 -12.5575 -30 0.3027749 0.4827064 0.8217797 
-9.213191 -11.83711 -30 0.6094199 0.7838941 -0.1188172 
-10.15922 -11.03586 -30 0.6723607 0.7304069 -0.1201537 
-11.03586 -10.15922 -30 0.7308177 0.6721313 -0.1189328 
-11.83711 -9.213191 -30 0.4499515 0.3352166 0.8277521 
-12.5575 -8.204223 -30 0.4975969 0.3138741 0.8086287 
-13.19211 -7.139211 -30 0.4422365 0.2312718 0.8665681 
-13.7366 -6.025431 -30 0.5784094 0.2511419 0.7761252 
-14.18726 -4.870492 -30 0.6023791 0.2064104 0.7710604 
-14.541 -3.682282 -30 0.6147855 0.1573347 0.7728419 
-14.79542 -2.468919 -30 0.6213827 0.1074524 0.776104 
-14.94877 -1.23869 -30 0.6250762 0.05791848 0.778412 
-15 0 -30 0.6084064 0.008642902 0.7935786 
-14.94877 1.23869 -30 0.5674517 -0.03291655 0.8227485 
-14.79542 2.468919 -30 0.9793219 -0.1630565 -0.1197546 
-14.541 3.682282 -30 0.9624262 -0.2438509 -0.1194681 
-14.18726 4.870492 -30 0.9387242 -0.3229332 -0.1204615 
-13.7366 6.025431 -30 0.5137801 -0.238312 0.8241587 
-13.19211 7.139211 -30 0.5282495 -0.2936094 0.7967095 
-12.5575 8.204223 -30 0.5165681 -0.3430168 0.7845361 
-11.83711 9.213191 -30 0.496503 -0.3896872 0.7756472 
-11.03586 10.15922 -30 0.4688713 -0.432411 0.7701821 
-10.15922 11.03586 -30 0.4327081 -0.4680101 0.7705389 
-9.213191 11.83711 -30 0.3836805 -0.4831423 0.7869961 
-8.204223 12.5575 -30 0.3354337 -0.4983089 0.7994826 
-7.139211 13.19211 -30 0.2825831 -0.4997773 0.8187609 
-6.025431 13.7366 -30 0.3995045 -0.9090106 -0.1187264 
-4.870492 14.18726 -30 0.3225709 -0.93898 -0.1194344 
-3.682282 14.541 -30 0.2434033 -0.9623002 -0.1213797 
-2.468919 14.79542 -30 0.1626306 -0.9796399 -0.1177151 
-1.23869 14.94877 -30 0.03957969 -0.5983771 0.8002364 
0 15 -30 -0.007517374 -0.6248844 0.7806811 
1.23869 14.94877 -30 -0.05748112 -0.6319662 0.7728613 
2.468919 14.79542 -30 -0.1077277 -0.6285225 0.7702949 
3.682282 14.541 -30 -0.1550107 -0.6194507 0.7695794 
4.870492 14.18726 -30 -0.202353 -0.6011269 0.7731104 
6.025431 13.7366 -30 -0.1987935 -0.4685358 0.8607876 
7.139211 13.19211 -30 -0.2762806 -0.527673 0.8032622 
8.204223 12.5575 -30 -0.3027749 -0.4827064 0.8217797 
9.213191 11.83711 -30 -0.6094199 -0.7838941 -0.1188172 
10.15922 11.03586 -30 -0.6723607 -0.7304069 -0.1201537 
11.03586 10.15922 -30 -0.7308177 -0.6721313 -0.1189328 
11.83711 9.213191 -30 -0.4499515 -0.3352166 0.8277521 
12.5575 8.204223 -30 -0.4975969 -0.3138741 0.8086287 
13.19211 7.139211 -30 -0.4422365 -0.2312718 0.8665681 
13.7366 6.025431 -30 -0.5784094 -0.2511419 0.7761252 
14.18726 4.870492 -30 -0.6023791 -0.2064104 0.7710604 
14.541 3.682282 -30 -0.6147855 -0.1573347 0.7728419 
14.79542 2.468919 -30 -0.6213827 -0.1074524 0.776104 
14.94877 1.23869 -30 -0.6250762 -0.05791848 0.778412 
9.745412 -2.242086 -30 -0.3469634 0.07783794 0.9346431 
2.931002 -9.560818 -30 -0.09770382 0.32566 0.9404252 
6.81441 7.318731 -30 -0.1564435 -0.1620085 0.9743093 
-9.745412 2.242086 -30 0.3469634 -0.07783794 0.9346431 
-2.931002 9.560818 -30 0.09770382 -0.32566 0.9404252 
-6.81441 -7.318731 -30 0.1564435 0.1620085 0.9743093 
-6.81441 -7.318731 -15 0.04048202 0.04361871 0.9982277 
-9.745412 2.242086 -15 0.05815582 -0.01340769 0.9982175 
2.931002 -9.560818 -15 -0.01760677 0.05759381 0.9981848 
9.745412 -2.242086 -15 -0.05815582 0.01340769 0.9982175 
6.81441 7.318731 -15 -0.04048202 -0.04361871 0.9982277 
-2.931002 9.560818 -15 0.01760677 -0.05759381 0.9981848 
5.28964 8.486443 30 -0.0 -0.0 -1.0 
4.403942 8.978045 30 -0.0 -0.0 -1.0 
-9.189578 -3.943558 30 -0.0 -0.0 -1.0 
-8.207634 -5.712682 30 -0.0 -0.0 -1.0 
-6.889669 -7.247928 30 -0.0 -0.0 -1.0 
-8.743466 -4.85302 30 -0.0 -0.0 -1.0 
6.889669 -7.247928 30 -0.0 -0.0 -1.0 
7.587581 -6.513725 30 -0.0 -0.0 -1.0 
6.12106 -7.907757 30 -0.0 -0.0 -1.0 
-9.541392 -2.993631 30 -0.0 -0.0 -1.0 
3.473053 9.377522 30 -0.0 -0.0 -1.0 
2.506525 9.680771 30 -0.0 -0.0 -1.0 
5.28964 -8.486443 30 -0.0 -0.0 -1.0 
-9.7953 -2.012985 30 -0.0 -0.0 -1.0 
8.207634 -5.712682 30 -0.0 -0.0 -1.0 
8.743466 -4.85302 30 -0.0 -0.0 -1.0 
1.514278 9.884684 30 -0.0 -0.0 -1.0 
0.506492 9.987165 30 -0.0 -0.0 -1.0 
4.403942 -8.978045 30 -0.0 -0.0 -1.0 
3.473053 -9.377522 30 -0.0 -0.0 -1.0 
-9.948693 -1.011683 30 -0.0 -0.0 -1.0 
-10 0 30 -0.0 -0.0 -1.0 
9.189578 -3.943558 30 -0.0 -0.0 -1.0 
9.541392 -2.993631 30 -0.0 -0.0 -1.0 
-9.948693 1.011683 30 -0.0 -0.0 -1.0 
-0.506492 9.987165 30 -0.0 -0.0 -1.0 
-2.506525 9.680771 30 -0.0 -0.0 -1.0 
-1.514278 9.884684 30 -0.0 -0.0 -1.0 
-9.7953 2.012985 30 -0.0 -0.0 -1.0 
-9.541392 2.993631 30 -0.0 -0.0 -1.0 
9.7953 -2.012985 30 -0.0 -0.0 -1.0 
9.948693 -1.011683 30 -0.0 -0.0 -1.0 
10 0 30 -0.0 -0.0 -1.0 
0.506492 -9.987165 30 -0.0 -0.0 -1.0 
1.514278 -9.884684 30 -0.0 -0.0 -1.0 
-0.506492 -9.987165 30 -0.0 -0.0 -1.0 
2.506525 -9.680771 30 -0.0 -0.0 -1.0 
-3.473053 9.377522 30 -0.0 -0.0 -1.0 
-4.403942 8.978045 30 -0.0 -0.0 -1.0 
-9.189578 3.943558 30 -0.0 -0.0 -1.0 
-8.743466 4.85302 30 -0.0 -0.0 -1.0 
9.948693 1.011683 30 -0.0 -0.0 -1.0 
9.7953 2.012985 30 -0.0 -0.0 -1.0 
-5.28964 8.486443 30 -0.0 -0.0 -1.0 
-6.12106 7.907757 30 -0.0 -0.0 -1.0 
-8.207634 5.712682 30 -0.0 -0.0 -1.0 
-7.587581 6.513725 30 -0.0 -0.0 -1.0 
-6.889669 7.247928 30 -0.0 -0.0 -1.0 
-2.506525 -9.680771 30 -0.0 -0.0 -1.0 
-1.514278 -9.884684 30 -0.0 -0.0 -1.0 
-3.473053 -9.377522 30 -0.0 -0.0 -1.0 
9.541392 2.993631 30 -0.0 -0.0 -1.0 
8.743466 4.85302 30 -0.0 -0.0 -1.0 
9.189578 3.943558 30 -0.0 -0.0 -1.0 
-4.403942 -8.978045 30 -0.0 -0.0 -1.0 
-5.28964 -8.486443 30 -0.0 -0.0 -1.0 
-6.12106 -7.907757 30 -0.0 -0.0 -1.0 
6.889669 7.247928 30 -0.0 -0.0 -1.0 
8.207634 5.712682 30 -0.0 -0.0 -1.0 
7.587581 6.513725 30 -0.0 -0.0 -1.0 
-7.587581 -6.513725 30 -0.0 -0.0 -1.0 
6.12106 7.907757 30 -0.0 -0.0 -1.0 
10 0 -10 0.05787207 0.002686799 -0.9983204 
9.948693 1.011683 -10 0.05638475 0.007986891 -0.9983771 
9.7953 2.012985 -10 0.038696 0.008575396 -0.9992142 
9.541392 2.993631 -10 0.03776175 0.01183898 -0.9992166 
9.189578 3.943558 -10 0.03674936 0.01500088 -0.9992119 
8.743466 4.85302 -10 0.05087073 0.0254559 -0.9983808 
8.207634 5.712682 -10 0.04778957 0.03054551 -0.9983903 
7.587581 6.513725 -10 0.04453075 0.03643121 -0.9983435 
6.889669 7.247928 -10 0.0411774 0.042866 -0.9982319 
6.12106 7.907757 -10 0.03523733 0.0474398 -0.9982524 
5.28964 8.486443 -10 0.02898819 0.05091513 -0.9982822 
4.403942 8.978045 -10 0.02274922 0.05145863 -0.998416 
3.473053 9.377522 -10 0.01338493 0.03799577 -0.9991882 
2.506525 9.680771 -10 0.009708395 0.03837924 -0.9992161 
1.514278 9.884684 -10 0.006555524 0.03908274 -0.9992145 
0.506492 9.987165 -10 0.004972987 0.05521899 -0.9984619 
-0.506492 9.987165 -10 -0.0005478424 0.05648391 -0.9984034 
-1.514278 9.884684 -10 -0.007167688 0.05842257 -0.9982662 
-2.506525 9.680771 -10 -0.01435688 0.05747814 -0.9982435 
-3.473053 9.377522 -10 -0.02154393 0.05544861 -0.9982291 
-4.403942 8.978045 -10 -0.02683958 0.05072073 -0.9983522 
-5.28964 8.486443 -10 -0.03258101 0.04786593 -0.9983222 
-6.12106 7.907757 -10 -0.02501034 0.03091895 -0.9992089 
-6.889669 7.247928 -10 -0.02760108 0.0284056 -0.9992154 
-7.587581 6.513725 -10 -0.02979921 0.02606408 -0.999216 
-8.207634 5.712682 -10 -0.03287029 0.02356511 -0.9991818 
-8.743466 4.85302 -10 -0.04891208 0.02996282 -0.9983535 
-9.189578 3.943558 -10 -0.05284291 0.02498538 -0.9982902 
-9.541392 2.993631 -10 -0.05640643 0.01891442 -0.9982287 
-9.7953 2.012985 -10 -0.05671242 0.01133913 -0.9983262 
-9.948693 1.011683 -10 -0.05891407 0.00420309 -0.9982542 
-10 0 -10 -0.05790608 -0.002405415 -0.9983191 
-9.948693 -1.011683 -10 -0.05638475 -0.007986891 -0.9983771 
-9.7953 -2.012985 -10 -0.038696 -0.008575396 -0.9992142 
-9.541392 -2.993631 -10 -0.03776175 -0.01183898 -0.9992166 
-9.189578 -3.943558 -10 -0.03674936 -0.01500088 -0.9992119 
-8.743466 -4.85302 -10 -0.05087073 -0.0254559 -0.9983808 
-8.207634 -5.712682 -10 -0.04778957 -0.03054551 -0.9983903 
-7.587581 -6.513725 -10 -0.04453075 -0.03643121 -0.9983435 
-6.889669 -7.247928 -10 -0.0411774 -0.042866 -0.9982319 
-6.12106 -7.907757 -10 -0.03523733 -0.0474398 -0.9982524 
-5.28964 -8.486443 -10 -0.02898819 -0.05091513 -0.9982822 
-4.403942 -8.978045 -10 -0.02274922 -0.05145863 -0.998416 
-3.473053 -9.377522 -10 -0.01338493 -0.03799577 -0.9991882 
-2.506525 -9.680771 -10 -0.009708395 -0.03837924 -0.9992161 
-1.514278 -9.884684 -10 -0.006555524 -0.03908274 -0.9992145 
-0.506492 -9.987165 -10 -0.004972987 -0.05521899 -0.9984619 
0.506492 -9.987165 -10 0.0005478424 -0.05648391 -0.9984034 
1.514278 -9.884684 -10 0.007167688 -0.05842257 -0.9982662 
2.506525 -9.680771 -10 0.01435688 -0.05747814 -0.9982435 
3.473053 -9.377522 -10 0.02154393 -0.05544861 -0.9982291 
4.403942 -8.978045 -10 0.02683958 -0.05072073 -0.9983522 
5.28964 -8.486443 -10 0.03258101 -0.04786593 -0.9983222 
6.12106 -7.907757 -10 0.02501034 -0.03091895 -0.9992089 
6.889669 -7.247928 -10 0.02760108 -0.0284056 -0.9992154 
7.587581 -6.513725 -10 0.02979921 -0.02606408 -0.999216 
8.207634 -5.712682 -10 0.03287029 -0.02356511 -0.9991818 
8.743466 -4.85302 -10 0.04882174 -0.03022302 -0.9983501 
9.189578 -3.943558 -10 0.05284291 -0.02498538 -0.9982902 
9.541392 -2.993631 -10 0.05640643 -0.01891442 -0.9982287 
9.7953 -2.012985 -10 0.05671242 -0.01133913 -0.9983262 
9.948693 -1.011683 -10 0.05891407 -0.00420309 -0.9982542 
-11.03586 -10.15922 -10 -0.040698 -0.03468627 -0.9985693 
-10.15922 -11.03586 -10 -0.03615898 -0.03809271 -0.9986198 
-11.83711 -9.213191 -10 -0.04616056 -0.03249012 -0.9984055 
-9.213191 -11.83711 -10 -0.03041254 -0.04413047 -0.9985628 
-8.204223 -12.5575 -10 -0.02798453 -0.04946313 -0.9983838 
-12.5575 -8.204223 -10 -0.05209523 -0.03123115 -0.9981536 
-7.139211 -13.19211 -10 -0.02647541 -0.0553409 -0.9981164 
-13.19211 -7.139211 -10 -0.1033805 -0.04574682 -0.9935893 
-6.025431 -13.7366 -10 -0.03725545 -0.1062725 -0.9936389 
-13.7366 -6.025431 -10 -0.1098923 -0.04182938 -0.9930629 
-14.18726 -4.870492 -10 -0.1136426 -0.03707901 -0.9928296 
-4.870492 -14.18726 -10 -0.03310603 -0.1125732 -0.9930918 
-14.541 -3.682282 -10 -0.1143881 -0.03151657 -0.9929361 
-3.682282 -14.541 -10 -0.02823004 -0.1161195 -0.992834 
-2.468919 -14.79542 -10 -0.02264067 -0.1166563 -0.9929143 
-14.79542 -2.468919 -10 -0.1146861 -0.02586313 -0.9930651 
-1.23869 -14.94877 -10 -0.01642716 -0.1142529 -0.9933159 
-14.94877 -1.23869 -10 -0.1115023 -0.01877584 -0.9935868 
0 -15 -10 -0.002228499 -0.06389426 -0.9979542 
-15 0 -10 -0.05940524 -0.00424044 -0.9982249 
-14.94877 1.23869 -10 -0.05571259 0.0028146 -0.9984429 
1.23869 -14.94877 -10 0.001426768 -0.05910411 -0.9982508 
-14.79542 2.468919 -10 -0.05260129 0.007814918 -0.998585 
2.468919 -14.79542 -10 0.005624504 -0.05481338 -0.9984808 
-14.541 3.682282 -10 -0.05095189 0.01325434 -0.9986132 
3.682282 -14.541 -10 0.01312424 -0.05127867 -0.9985982 
4.870492 -14.18726 -10 0.0184653 -0.04934719 -0.998611 
-14.18726 4.870492 -10 -0.05089312 0.01902351 -0.9985229 
6.025431 -13.7366 -10 0.02420554 -0.04900007 -0.9985054 
-13.7366 6.025431 -10 -0.05215041 0.02490554 -0.9983286 
-13.19211 7.139211 -10 -0.05289017 0.03272299 -0.998064 
7.139211 -13.19211 -10 0.03012828 -0.04997808 -0.9982958 
-12.5575 8.204223 -10 -0.09221827 0.06997052 -0.9932774 
8.204223 -12.5575 -10 0.03589445 -0.05171242 -0.9980167 
-11.83711 9.213191 -10 -0.09092095 0.0766959 -0.9929004 
9.213191 -11.83711 -10 0.07678019 -0.08621816 -0.9933133 
10.15922 -11.03586 -10 0.08340234 -0.08465524 -0.9929137 
-11.03586 10.15922 -10 -0.08496656 0.07855051 -0.9932827 
11.03586 -10.15922 -10 0.08496656 -0.07855051 -0.9932827 
-10.15922 11.03586 -10 -0.08340234 0.08465524 -0.9929137 
11.83711 -9.213191 -10 0.09092095 -0.0766959 -0.9929004 
-9.213191 11.83711 -10 -0.07678019 0.08621816 -0.9933133 
12.5575 -8.204223 -10 0.09221827 -0.06997052 -0.9932774 
-8.204223 12.5575 -10 -0.03589445 0.05171242 -0.9980167 
13.19211 -7.139211 -10 0.05289017 -0.03272299 -0.998064 
-7.139211 13.19211 -10 -0.03012828 0.04997808 -0.9982958 
13.7366 -6.025431 -10 0.05215041 -0.02490554 -0.9983286 
-6.025431 13.7366 -10 -0.02420554 0.04900007 -0.9985054 
14.18726 -4.870492 -10 0.05089312 -0.01902351 -0.9985229 
-4.870492 14.18726 -10 -0.0184653 0.04934719 -0.998611 
14.541 -3.682282 -10 0.05095189 -0.01325434 -0.9986132 
-3.682282 14.541 -10 -0.01312424 0.05127867 -0.9985982 
14.79542 -2.468919 -10 0.05260129 -0.007814918 -0.998585 
-2.468919 14.79542 -10 -0.005624504 0.05481338 -0.9984808 
14.94877 -1.23869 -10 0.05571259 -0.0028146 -0.9984429 
-1.23869 14.94877 -10 -0.001426768 0.05910411 -0.9982508 
15 0 -10 0.05977386 0.001695363 -0.9982105 
0 15 -10 0.002225195 0.06389748 -0.997954 
14.94877 1.23869 -10 0.1115023 0.01877584 -0.9935868 
1.23869 14.94877 -10 0.01642716 0.1142529 -0.9933159 
14.79542 2.468919 -10 0.1146861 0.02586313 -0.9930651 
2.468919 14.79542 -10 0.02264067 0.1166563 -0.9929143 
14.541 3.682282 -10 0.1143881 0.03151657 -0.9929361 
3.682282 14.541 -10 0.02823004 0.1161195 -0.992834 
14.18726 4.870492 -10 0.1136426 0.03707901 -0.9928296 
4.870492 14.18726 -10 0.03310603 0.1125732 -0.9930918 
13.7366 6.025431 -10 0.1098923 0.04182938 -0.9930629 
6.025431 13.7366 -10 0.03725545 0.1062725 -0.9936389 
13.19211 7.139211 -10 0.1033805 0.04574682 -0.9935893 
7.139211 13.19211 -10 0.02647541 0.0553409 -0.9981164 
12.5575 8.204223 -10 0.05209523 0.03123115 -0.9981536 
8.204223 12.5575 -10 0.02798453 0.04946313 -0.9983838 
11.83711 9.213191 -10 0.04616056 0.03249012 -0.9984055 
9.213191 11.83711 -10 0.03041254 0.04413047 -0.9985628 
11.03586 10.15922 -10 0.040698 0.03468627 -0.9985693 
10.15922 11.03586 -10 0.03615898 0.03809271 -0.9986198 
15 0 -30 0.5965198 0.01143001 -0.8025169 
14.94877 -1.23869 -30 0.5674517 -0.03291655 -0.8227485 
14.79542 -2.468919 -30 0.9793219 -0.1630565 0.1197546 
14.541 -3.682282 -30 0.9624262 -0.2438509 0.1194681 
14.18726 -4.870492 -30 0.9387242 -0.3229332 0.1204615 
13.7366 -6.025431 -30 0.5137801 -0.238312 -0.8241587 
13.19211 -7.139211 -30 0.5282495 -0.2936094 -0.7967095 
12.5575 -8.204223 -30 0.5165681 -0.3430168 -0.7845361 
11.83711 -9.213191 -30 0.496503 -0.3896872 -0.7756472 
11.03586 -10.15922 -30 0.4688713 -0.432411 -0.7701821 
10.15922 -11.03586 -30 0.4327081 -0.4680101 -0.7705389 
9.213191 -11.83711 -30 0.3836805 -0.4831423 -0.7869961 
8.204223 -12.5575 -30 0.3354337 -0.4983089 -0.7994826 
7.139211 -13.19211 -30 0.2825831 -0.4997773 -0.8187609 
6.025431 -13.7366 -30 0.3995045 -0.9090106 0.1187264 
4.870492 -14.18726 -30 0.3225709 -0.93898 0.1194344 
3.682282 -14.541 -30 0.2434033 -0.9623002 0.1213797 
2.468919 -14.79542 -30 0.1626306 -0.9796399 0.1177151 
1.23869 -14.94877 -30 0.03957969 -0.5983771 -0.8002364 
0 -15 -30 -0.007517374 -0.6248844 -0.7806811 
-1.23869 -14.94877 -30 -0.05748112 -0.6319662 -0.7728613 
-2.468919 -14.79542 -30 -0.1077277 -0.6285225 -0.7702949 
-3.682282 -14.541 -30 -0.1550107 -0.6194507 -0.7695794 
-4.870492 -14.18726 -30 -0.202353 -0.6011269 -0.7731104 
-6.025431 -13.7366 -30 -0.1987935 -0.4685358 -0.8607876 
-7.139211 -13.19211 -30 -0.2762806 -0.527673 -0.8032622 
-8.204223 -12.5575 -30 -0.3027749 -0.4827064 -0.8217797 
-9.213191 -11.83711 -30 -0.6094199 -0.7838941 0.1188172 
-10.15922 -11.03586 -30 -0.6723607 -0.7304069 0.1201537 
-11.03586 -10.15922 -30 -0.7308177 -0.6721313 0.1189328 
-11.83711 -9.213191 -30 -0.4499515 -0.3352166 -0.8277521 
-12.5575 -8.204223 -30 -0.4975969 -0.3138741 -0.8086287 
-13.19211 -7.139211 -30 -0.4422365 -0.2312718 -0.8665681 
-13.7366 -6.025431 -30 -0.5784094 -0.2511419 -0.7761252 
-14.18726 -4.870492 -30 -0.6023791 -0.2064104 -0.7710604 
-14.541 -3.682282 -30 -0.6147855 -0.1573347 -0.7728419 
-14.79542 -2.468919 -30 -0.6213827 -0.1074524 -0.776104 
-14.94877 -1.23869 -30 -0.6250762 -0.05791848 -0.778412 
-15 0 -30 -0.6084064 -0.008642902 -0.7935786 
-14.94877 1.23869 -30 -0.5674517 0.03291655 -0.8227485 
-14.79542 2.468919 -30 -0.9793219 0.1630565 0.1197546 
-14.541 3.682282 -30 -0.9624262 0.2438509 0.1194681 
-14.18726 4.870492 -30 -0.9387242 0.3229332 0.1204615 
-13.7366 6.025431 -30 -0.5137801 0.238312 -0.8241587 
-13.19211 7.139211 -30 -0.5282495 0.2936094 -0.7967095 
-12.5575 8.204223 -30 -0.5165681 0.3430168 -0.7845361 
-11.83711 9.213191 -30 -0.496503 0.3896872 -0.7756472 
-11.03586 10.15922 -30 -0.4688713 0.432411 -0.7701821 
-10.15922 11.03586 -30 -0.4327081 0.4680101 -0.7705389 
-9.213191 11.83711 -30 -0.3836805 0.4831423 -0.7869961 
-8.204223 12.5575 -30 -0.3354337 0.4983089 -0.7994826 
-7.139211 13.19211 -30 -0.2825831 0.4997773 -0.8187609 
-6.025431 13.7366 -30 -0.3995045 0.9090106 0.1187264 
-4.870492 14.18726 -30 -0.3225709 0.93898 0.1194344 
-3.682282 14.541 -30 -0.2434033 0.9623002 0.1213797 
-2.468919 14.79542 -30 -0.1626306 0.9796399 0.1177151 
-1.23869 14.94877 -30 -0.03957969 0.5983771 -0.8002364 
0 15 -30 0.007517374 0.6248844 -0.7806811 
1.23869 14.94877 -30 0.05748112 0.6319662 -0.7728613 
2.468919 14.79542 -30 0.1077277 0.6285225 -0.7702949 
3.682282 14.541 -30 0.1550107 0.6194507 -0.7695794 
4.870492 14.18726 -30 0.202353 0.6011269 -0.7731104 
6.025431 13.7366 -30 0.1987935 0.4685358 -0.8607876 
7.139211 13.19211 -30 0.2762806 0.527673 -0.8032622 
8.204223 12.5575 -30 0.3027749 0.4827064 -0.8217797 
9.213191 11.83711 -30 0.6094199 0.7838941 0.1188172 
10.15922 11.03586 -30 0.6723607 0.7304069 0.1201537 
11.03586 10.15922 -30 0.7308177 0.6721313 0.1189328 
11.83711 9.213191 -30 0.4499515 0.3352166 -0.8277521 
12.5575 8.204223 -30 0.4975969 0.3138741 -0.8086287 
13.19211 7.139211 -30 0.4422365 0.2312718 -0.8665681 
13.7366 6.025431 -30 0.5784094 0.2511419 -0.7761252 
14.18726 4.870492 -30 0.6023791 0.2064104 -0.7710604 
14.541 3.682282 -30 0.6147855 0.1573347 -0.7728419 
14.79542 2.468919 -30 0.6213827 0.1074524 -0.776104 
14.94877 1.23869 -30 0.6250762 0.05791848 -0.778412 
9.745412 -2.242086 -30 0.3469634 -0.07783794 -0.9346431 
2.931002 -9.560818 -30 0.09770382 -0.32566 -0.9404252 
6.81441 7.318731 -30 0.1564435 0.1620085 -0.9743093 
-9.745412 2.242086 -30 -0.3469634 0.07783794 -0.9346431 
-2.931002 9.560818 -30 -0.09770382 0.32566 -0.9404252 
-6.81441 -7.318731 -30 -0.1564435 -0.1620085 -0.9743093 
-6.81441 -7.318731 -15 -0.04048202 -0.04361871 -0.9982277 
-9.745412 2.242086 -15 -0.05815582 0.01340769 -0.9982175 
2.931002 -9.560818 -15 0.01760677 -0.05759381 -0.9981848 
9.745412 -2.242086 -15 0.05815582 -0.01340769 -0.9982175 
6.81441 7.318731 -15 0.04048202 0.04361871 -0.9982277 
-2.931002 9.560818 -15 -0.01760677 0.05759381 -0.9981848 
3 0 1 2 
3 3 4 2 
3 4 0 2 
3 5 3 2 
3 6 7 8 
3 2 1 9 
3 1 10 11 
3 8 7 12 
3 9 1 13 
3 7 14 15 
3 11 16 17 
3 1 11 17 
3 18 12 19 
3 13 1 17 
3 20 13 21 
3 12 7 19 
3 15 22 23 
3 21 13 24 
3 17 25 26 
3 25 27 26 
3 13 17 26 
3 28 24 29 
3 30 31 32 
3 33 34 35 
3 34 36 35 
3 26 37 38 
3 36 19 35 
3 7 15 35 
3 39 29 40 
3 15 23 35 
3 24 13 40 
3 19 7 35 
3 29 24 40 
3 32 41 42 
3 38 43 44 
3 26 38 44 
3 30 32 42 
3 45 40 46 
3 13 26 46 
3 40 13 46 
3 26 44 47 
3 46 26 47 
3 48 49 50 
3 49 35 50 
3 42 51 52 
3 51 53 52 
3 54 50 55 
3 30 42 4 
3 50 35 4 
3 55 50 4 
3 56 55 4 
3 23 30 4 
3 35 23 4 
3 42 52 57 
3 52 58 57 
3 58 59 57 
3 4 42 57 
3 60 4 3 
3 57 61 0 
3 4 57 0 
3 41 32 62 
3 41 62 63 
3 42 41 63 
3 42 63 64 
3 51 42 64 
3 51 64 65 
3 51 65 66 
3 53 51 66 
3 53 66 67 
3 52 53 67 
3 52 67 68 
3 58 52 68 
3 59 58 68 
3 59 68 69 
3 59 69 70 
3 57 59 70 
3 57 70 71 
3 61 57 71 
3 61 71 72 
3 0 61 72 
3 1 0 72 
3 1 72 73 
3 1 73 74 
3 10 74 75 
3 10 1 74 
3 11 10 75 
3 16 75 76 
3 16 76 77 
3 16 11 75 
3 17 16 77 
3 25 77 78 
3 25 78 79 
3 25 17 77 
3 27 79 80 
3 27 25 79 
3 26 27 80 
3 37 26 80 
3 37 80 81 
3 38 37 81 
3 38 81 82 
3 38 82 83 
3 43 38 83 
3 44 43 83 
3 44 83 84 
3 47 44 84 
3 47 84 85 
3 47 85 86 
3 46 47 86 
3 45 46 86 
3 45 86 87 
3 45 87 88 
3 40 45 88 
3 39 40 88 
3 39 88 89 
3 29 39 89 
3 29 89 90 
3 29 90 91 
3 28 29 91 
3 24 28 91 
3 24 91 92 
3 24 92 93 
3 21 24 93 
3 20 21 93 
3 20 93 94 
3 13 20 94 
3 13 94 95 
3 13 95 96 
3 9 13 96 
3 2 9 96 
3 2 96 97 
3 5 2 97 
3 5 97 98 
3 5 98 99 
3 3 99 100 
3 3 5 99 
3 60 100 101 
3 60 3 100 
3 4 60 101 
3 56 101 102 
3 56 102 103 
3 56 4 101 
3 55 103 104 
3 55 56 103 
3 54 55 104 
3 50 54 104 
3 50 104 105 
3 50 105 106 
3 48 106 107 
3 48 50 106 
3 49 48 107 
3 35 107 108 
3 35 108 109 
3 35 49 107 
3 33 109 110 
3 33 35 109 
3 34 110 111 
3 34 33 110 
3 36 34 111 
3 19 111 112 
3 19 112 113 
3 19 36 111 
3 18 19 113 
3 18 113 114 
3 12 114 115 
3 12 18 114 
3 8 12 115 
3 6 115 116 
3 6 8 115 
3 7 116 117 
3 7 117 118 
3 7 6 116 
3 14 118 119 
3 14 7 118 
3 15 119 120 
3 15 14 119 
3 22 15 120 
3 23 120 121 
3 23 121 122 
3 23 22 120 
3 30 23 122 
3 31 122 123 
3 31 123 62 
3 31 30 122 
3 32 31 62 
3 101 124 125 
3 100 126 124 
3 100 124 101 
3 102 127 128 
3 102 125 127 
3 102 101 125 
3 99 129 126 
3 99 126 100 
3 103 128 130 
3 103 102 128 
3 98 131 129 
3 98 129 99 
3 104 130 132 
3 104 103 130 
3 97 133 131 
3 97 134 133 
3 97 131 98 
3 105 132 135 
3 105 104 132 
3 96 136 134 
3 96 134 97 
3 106 105 135 
3 106 137 138 
3 106 135 137 
3 95 139 136 
3 95 136 96 
3 107 106 138 
3 107 138 140 
3 94 141 139 
3 94 139 95 
3 108 107 140 
3 108 140 142 
3 93 141 94 
3 93 143 141 
3 93 144 143 
3 109 142 145 
3 109 108 142 
3 92 144 93 
3 92 146 144 
3 110 145 147 
3 110 109 145 
3 91 146 92 
3 91 148 146 
3 111 149 150 
3 111 147 149 
3 111 110 147 
3 90 148 91 
3 90 151 148 
3 112 150 152 
3 112 111 150 
3 89 153 151 
3 89 154 153 
3 89 151 90 
3 113 152 155 
3 113 112 152 
3 88 154 89 
3 88 156 154 
3 114 155 157 
3 114 113 155 
3 87 158 156 
3 87 156 88 
3 115 157 159 
3 115 114 157 
3 86 158 87 
3 160 115 159 
3 161 158 86 
3 116 115 160 
3 85 161 86 
3 162 116 160 
3 163 161 85 
3 117 116 162 
3 84 163 85 
3 164 118 117 
3 164 117 162 
3 165 163 84 
3 166 119 118 
3 166 118 164 
3 167 165 84 
3 167 84 83 
3 168 120 119 
3 168 119 166 
3 169 167 83 
3 169 83 82 
3 170 120 168 
3 171 169 82 
3 171 82 81 
3 172 120 170 
3 172 121 120 
3 173 171 81 
3 173 81 80 
3 174 121 172 
3 174 122 121 
3 175 173 80 
3 176 123 122 
3 176 122 174 
3 177 175 80 
3 177 80 79 
3 178 123 176 
3 178 62 123 
3 179 177 79 
3 179 79 78 
3 180 62 178 
3 181 179 78 
3 181 78 77 
3 182 62 180 
3 182 63 62 
3 183 181 77 
3 183 77 76 
3 184 63 182 
3 184 64 63 
3 185 183 76 
3 185 76 75 
3 186 64 184 
3 186 65 64 
3 187 185 75 
3 188 65 186 
3 188 66 65 
3 189 187 75 
3 189 75 74 
3 190 66 188 
3 191 74 73 
3 191 189 74 
3 192 67 66 
3 192 66 190 
3 193 73 72 
3 193 191 73 
3 194 68 67 
3 194 67 192 
3 195 193 72 
3 195 72 71 
3 196 69 68 
3 196 68 194 
3 197 195 71 
3 198 69 196 
3 198 70 69 
3 199 197 71 
3 199 70 198 
3 199 71 70 
3 200 180 178 
3 201 200 178 
3 201 178 176 
3 202 201 176 
3 202 176 174 
3 203 202 174 
3 203 174 172 
3 204 203 172 
3 204 172 170 
3 205 204 170 
3 206 205 170 
3 206 170 168 
3 206 168 166 
3 207 206 166 
3 208 207 164 
3 207 166 164 
3 209 208 162 
3 208 164 162 
3 210 209 160 
3 211 210 160 
3 209 162 160 
3 211 160 159 
3 211 159 157 
3 212 211 157 
3 213 212 157 
3 213 157 155 
3 213 155 152 
3 214 213 152 
3 214 152 150 
3 215 214 150 
3 215 150 149 
3 216 215 149 
3 216 149 147 
3 217 216 147 
3 217 147 145 
3 218 217 145 
3 218 145 142 
3 219 218 142 
3 219 142 140 
3 220 219 140 
3 220 140 138 
3 221 220 138 
3 221 138 137 
3 222 221 137 
3 223 222 135 
3 222 137 135 
3 224 223 132 
3 225 224 132 
3 223 135 132 
3 225 132 130 
3 226 225 128 
3 225 130 128 
3 227 226 127 
3 226 128 127 
3 228 227 125 
3 229 228 125 
3 227 127 125 
3 230 229 124 
3 229 125 124 
3 230 124 126 
3 231 230 129 
3 230 126 129 
3 232 231 131 
3 233 232 131 
3 231 129 131 
3 233 131 133 
3 234 233 134 
3 235 234 134 
3 233 133 134 
3 235 134 136 
3 235 136 139 
3 236 235 139 
3 236 139 141 
3 237 236 141 
3 237 141 143 
3 238 237 143 
3 238 143 144 
3 239 238 144 
3 239 144 146 
3 240 239 146 
3 241 240 148 
3 240 146 148 
3 241 148 151 
3 242 241 151 
3 243 242 153 
3 242 151 153 
3 244 243 154 
3 243 153 154 
3 245 244 156 
3 244 154 156 
3 246 245 158 
3 245 156 158 
3 247 246 161 
3 246 158 161 
3 248 247 163 
3 247 161 163 
3 249 248 165 
3 250 249 165 
3 248 163 165 
3 250 165 167 
3 251 250 169 
3 250 167 169 
3 252 251 171 
3 251 169 171 
3 253 252 173 
3 252 171 173 
3 254 253 175 
3 255 254 175 
3 253 173 175 
3 255 175 177 
3 256 255 179 
3 255 177 179 
3 257 256 181 
3 256 179 181 
3 258 257 183 
3 257 181 183 
3 259 258 185 
3 260 259 185 
3 258 183 185 
3 260 185 187 
3 260 187 189 
3 261 260 189 
3 261 189 191 
3 262 261 191 
3 262 191 193 
3 263 262 193 
3 264 263 193 
3 264 193 195 
3 264 195 197 
3 265 264 197 
3 265 197 199 
3 266 265 199 
3 266 199 198 
3 267 266 198 
3 267 198 196 
3 268 267 196 
3 269 268 196 
3 269 196 194 
3 269 194 192 
3 270 269 192 
3 270 192 190 
3 271 270 190 
3 271 190 188 
3 272 271 188 
3 272 188 186 
3 273 272 186 
3 273 186 184 
3 274 273 184 
3 275 274 184 
3 275 184 182 
3 200 275 180 
3 275 182 180 
3 273 276 272 
3 220 221 277 
3 221 222 277 
3 276 278 272 
3 214 277 213 
3 278 260 261 
3 279 243 244 
3 272 278 271 
3 213 277 212 
3 278 261 262 
3 279 244 245 
3 271 278 270 
3 212 277 211 
3 278 262 263 
3 270 278 269 
3 279 245 246 
3 278 263 264 
3 211 277 210 
3 269 278 268 
3 279 246 247 
3 278 264 265 
3 210 277 209 
3 268 278 267 
3 278 265 266 
3 267 278 266 
3 247 248 280 
3 248 249 280 
3 249 250 280 
3 250 251 280 
3 279 247 280 
3 206 207 276 
3 207 208 276 
3 208 209 276 
3 209 277 276 
3 206 276 205 
3 280 251 252 
3 205 276 204 
3 280 252 253 
3 222 223 281 
3 223 224 281 
3 224 225 281 
3 225 226 281 
3 204 276 203 
3 226 227 281 
3 227 228 281 
3 228 229 281 
3 280 253 254 
3 229 230 281 
3 230 231 281 
3 231 232 281 
3 232 233 281 
3 233 234 281 
3 203 276 202 
3 280 254 255 
3 202 276 201 
3 280 255 256 
3 201 276 200 
3 280 256 257 
3 200 276 275 
3 280 257 258 
3 275 276 274 
3 234 235 279 
3 235 236 279 
3 236 237 279 
3 237 238 279 
3 238 239 279 
3 239 240 279 
3 280 258 259 
3 240 241 279 
3 241 242 279 
3 242 243 279 
3 274 276 273 
3 281 234 279 
3 222 281 277 
3 214 215 277 
3 215 216 277 
3 216 217 277 
3 280 259 260 
3 217 218 277 
3 218 219 277 
3 278 280 260 
3 219 220 277 
3 282 281 279 
3 283 282 279 
3 284 277 281 
3 282 284 281 
3 284 285 276 
3 284 276 277 
3 286 278 276 
3 285 286 276 
3 287 280 278 
3 286 287 278 
3 283 279 280 
3 287 283 280 
3 284 282 285 
3 282 283 285 
3 283 287 286 
3 285 283 286 
3 288 289 290 
3 291 292 290 
3 292 288 290 
3 293 291 290 
3 294 295 296 
3 290 289 297 
3 289 298 299 
3 296 295 300 
3 297 289 301 
3 295 302 303 
3 299 304 305 
3 289 299 305 
3 306 300 307 
3 301 289 305 
3 308 301 309 
3 300 295 307 
3 303 310 311 
3 309 301 312 
3 305 313 314 
3 313 315 314 
3 301 305 314 
3 316 312 317 
3 318 319 320 
3 321 322 323 
3 322 324 323 
3 314 325 326 
3 324 307 323 
3 295 303 323 
3 327 317 328 
3 303 311 323 
3 312 301 328 
3 307 295 323 
3 317 312 328 
3 320 329 330 
3 326 331 332 
3 314 326 332 
3 318 320 330 
3 333 328 334 
3 301 314 334 
3 328 301 334 
3 314 332 335 
3 334 314 335 
3 336 337 338 
3 337 323 338 
3 330 339 340 
3 339 341 340 
3 342 338 343 
3 318 330 292 
3 338 323 292 
3 343 338 292 
3 344 343 292 
3 311 318 292 
3 323 311 292 
3 330 340 345 
3 340 346 345 
3 346 347 345 
3 292 330 345 
3 348 292 291 
3 345 349 288 
3 292 345 288 
3 329 320 350 
3 329 350 351 
3 330 329 351 
3 330 351 352 
3 339 330 352 
3 339 352 353 
3 339 353 354 
3 341 339 354 
3 341 354 355 
3 340 341 355 
3 340 355 356 
3 346 340 356 
3 347 346 356 
3 347 356 357 
3 347 357 358 
3 345 347 358 
3 345 358 359 
3 349 345 359 
3 349 359 360 
3 288 349 360 
3 289 288 360 
3 289 360 361 
3 289 361 362 
3 298 362 363 
3 298 289 362 
3 299 298 363 
3 304 363 364 
3 304 364 365 
3 304 299 363 
3 305 304 365 
3 313 365 366 
3 313 366 367 
3 313 305 365 
3 315 367 368 
3 315 313 367 
3 314 315 368 
3 325 314 368 
3 325 368 369 
3 326 325 369 
3 326 369 370 
3 326 370 371 
3 331 326 371 
3 332 331 371 
3 332 371 372 
3 335 332 372 
3 335 372 373 
3 335 373 374 
3 334 335 374 
3 333 334 374 
3 333 374 375 
3 333 375 376 
3 328 333 376 
3 327 328 376 
3 327 376 377 
3 317 327 377 
3 317 377 378 
3 317 378 379 
3 316 317 379 
3 312 316 379 
3 312 379 380 
3 312 380 381 
3 309 312 381 
3 308 309 381 
3 308 381 382 
3 301 308 382 
3 301 382 383 
3 301 383 384 
3 297 301 384 
3 290 297 384 
3 290 384 385 
3 293 290 385 
3 293 385 386 
3 293 386 387 
3 291 387 388 
3 291 293 387 
3 348 388 389 
3 348 291 388 
3 292 348 389 
3 344 389 390 
3 344 390 391 
3 344 292 389 
3 343 391 392 
3 343 344 391 
3 342 343 392 
3 338 342 392 
3 338 392 393 
3 338 393 394 
3 336 394 395 
3 336 338 394 
3 337 336 395 
3 323 395 396 
3 323 396 397 
3 323 337 395 
3 321 397 398 
3 321 323 397 
3 322 398 399 
3 322 321 398 
3 324 322 399 
3 307 399 400 
3 307 400 401 
3 307 324 399 
3 306 307 401 
3 306 401 402 
3 300 402 403 
3 300 306 402 
3 296 300 403 
3 294 403 404 
3 294 296 403 
3 295 404 405 
3 295 405 406 
3 295 294 404 
3 302 406 407 
3 302 295 406 
3 303 407 408 
3 303 302 407 
3 310 303 408 
3 311 408 409 
3 311 409 410 
3 311 310 408 
3 318 311 410 
3 319 410 411 
3 319 411 350 
3 319 318 410 
3 320 319 350 
3 389 412 413 
3 388 414 412 
3 388 412 389 
3 390 415 416 
3 390 413 415 
3 390 389 413 
3 387 417 414 
3 387 414 388 
3 391 416 418 
3 391 390 416 
3 386 419 417 
3 386 417 387 
3 392 418 420 
3 392 391 418 
3 385 421 419 
3 385 422 421 
3 385 419 386 
3 393 420 423 
3 393 392 420 
3 384 424 422 
3 384 422 385 
3 394 393 423 
3 394 425 426 
3 394 423 425 
3 383 427 424 
3 383 424 384 
3 395 394 426 
3 395 426 428 
3 382 429 427 
3 382 427 383 
3 396 395 428 
3 396 428 430 
3 381 429 382 
3 381 431 429 
3 381 432 431 
3 397 430 433 
3 397 396 430 
3 380 432 381 
3 380 434 432 
3 398 433 435 
3 398 397 433 
3 379 434 380 
3 379 436 434 
3 399 437 438 
3 399 435 437 
3 399 398 435 
3 378 436 379 
3 378 439 436 
3 400 438 440 
3 400 399 438 
3 377 441 439 
3 377 442 441 
3 377 439 378 
3 401 440 443 
3 401 400 440 
3 376 442 377 
3 376 444 442 
3 402 443 445 
3 402 401 443 
3 375 446 444 
3 375 444 376 
3 403 445 447 
3 403 402 445 
3 374 446 375 
3 448 403 447 
3 449 446 374 
3 404 403 448 
3 373 449 374 
3 450 404 448 
3 451 449 373 
3 405 404 450 
3 372 451 373 
3 452 406 405 
3 452 405 450 
3 453 451 372 
3 454 407 406 
3 454 406 452 
3 455 453 372 
3 455 372 371 
3 456 408 407 
3 456 407 454 
3 457 455 371 
3 457 371 370 
3 458 408 456 
3 459 457 370 
3 459 370 369 
3 460 408 458 
3 460 409 408 
3 461 459 369 
3 461 369 368 
3 462 409 460 
3 462 410 409 
3 463 461 368 
3 464 411 410 
3 464 410 462 
3 465 463 368 
3 465 368 367 
3 466 411 464 
3 466 350 411 
3 467 465 367 
3 467 367 366 
3 468 350 466 
3 469 467 366 
3 469 366 365 
3 470 350 468 
3 470 351 350 
3 471 469 365 
3 471 365 364 
3 472 351 470 
3 472 352 351 
3 473 471 364 
3 473 364 363 
3 474 352 472 
3 474 353 352 
3 475 473 363 
3 476 353 474 
3 476 354 353 
3 477 475 363 
3 477 363 362 
3 478 354 476 
3 479 362 361 
3 479 477 362 
3 480 355 354 
3 480 354 478 
3 481 361 360 
3 481 479 361 
3 482 356 355 
3 482 355 480 
3 483 481 360 
3 483 360 359 
3 484 357 356 
3 484 356 482 
3 485 483 359 
3 486 357 484 
3 486 358 357 
3 487 485 359 
3 487 358 486 
3 487 359 358 
3 488 468 466 
3 489 488 466 
3 489 466 464 
3 490 489 464 
3 490 464 462 
3 491 490 462 
3 491 462 460 
3 492 491 460 
3 492 460 458 
3 493 492 458 
3 494 493 458 
3 494 458 456 
3 494 456 454 
3 495 494 454 
3 496 495 452 
3 495 454 452 
3 497 496 450 
3 496 452 450 
3 498 497 448 
3 499 498 448 
3 497 450 448 
3 499 448 447 
3 499 447 445 
3 500 499 445 
3 501 500 445 
3 501 445 443 
3 501 443 440 
3 502 501 440 
3 502 440 438 
3 503 502 438 
3 503 438 437 
3 504 503 437 
3 504 437 435 
3 505 504 435 
3 505 435 433 
3 506 505 433 
3 506 433 430 
3 507 506 430 
3 507 430 428 
3 508 507 428 
3 508 428 426 
3 509 508 426 
3 509 426 425 
3 510 509 425 
3 511 510 423 
3 510 425 423 
3 512 511 420 
3 513 512 420 
3 511 423 420 
3 513 420 418 
3 514 513 416 
3 513 418 416 
3 515 514 415 
3 514 416 415 
3 516 515 413 
3 517 516 413 
3 515 415 413 
3 518 517 412 
3 517 413 412 
3 518 412 414 
3 519 518 417 
3 518 414 417 
3 520 519 419 
3 521 520 419 
3 519 417 419 
3 521 419 421 
3 522 521 422 
3 523 522 422 
3 521 421 422 
3 523 422 424 
3 523 424 427 
3 524 523 427 
3 524 427 429 
3 525 524 429 
3 525 429 431 
3 526 525 431 
3 526 431 432 
3 527 526 432 
3 527 432 434 
3 528 527 434 
3 529 528 436 
3 528 434 436 
3 529 436 439 
3 530 529 439 
3 531 530 441 
3 530 439 441 
3 532 531 442 
3 531 441 442 
3 533 532 444 
3 532 442 444 
3 534 533 446 
3 533 444 446 
3 535 534 449 
3 534 446 449 
3 536 535 451 
3 535 449 451 
3 537 536 453 
3 538 537 453 
3 536 451 453 
3 538 453 455 
3 539 538 457 
3 538 455 457 
3 540 539 459 
3 539 457 459 
3 541 540 461 
3 540 459 461 
3 542 541 463 
3 543 542 463 
3 541 461 463 
3 543 463 465 
3 544 543 467 
3 543 465 467 
3 545 544 469 
3 544 467 469 
3 546 545 471 
3 545 469 471 
3 547 546 473 
3 548 547 473 
3 546 471 473 
3 548 473 475 
3 548 475 477 
3 549 548 477 
3 549 477 479 
3 550 549 479 
3 550 479 481 
3 551 550 481 
3 552 551 481 
3 552 481 483 
3 552 483 485 
3 553 552 485 
3 553 485 487 
3 554 553 487 
3 554 487 486 
3 555 554 486 
3 555 486 484 
3 556 555 484 
3 557 556 484 
3 557 484 482 
3 557 482 480 
3 558 557 480 
3 558 480 478 
3 559 558 478 
3 559 478 476 
3 560 559 476 
3 560 476 474 
3 561 560 474 
3 561 474 472 
3 562 561 472 
3 563 562 472 
3 563 472 470 
3 488 563 468 
3 563 470 468 
3 561 564 560 
3 508 509 565 
3 509 510 565 
3 564 566 560 
3 502 565 501 
3 566 548 549 
3 567 531 532 
3 560 566 559 
3 501 565 500 
3 566 549 550 
3 567 532 533 
3 559 566 558 
3 500 565 499 
3 566 550 551 
3 558 566 557 
3 567 533 534 
3 566 551 552 
3 499 565 498 
3 557 566 556 
3 567 534 535 
3 566 552 553 
3 498 565 497 
3 556 566 555 
3 566 553 554 
3 555 566 554 
3 535 536 568 
3 536 537 568 
3 537 538 568 
3 538 539 568 
3 567 535 568 
3 494 495 564 
3 495 496 564 
3 496 497 564 
3 497 565 564 
3 494 564 493 
3 568 539 540 
3 493 564 492 
3 568 540 541 
3 510 511 569 
3 511 512 569 
3 512 513 569 
3 513 514 569 
3 492 564 491 
3 514 515 569 
3 515 516 569 
3 516 517 569 
3 568 541 542 
3 517 518 569 
3 518 519 569 
3 519 520 569 
3 520 521 569 
3 521 522 569 
3 491 564 490 
3 568 542 543 
3 490 564 489 
3 568 543 544 
3 489 564 488 
3 568 544 545 
3 488 564 563 
3 568 545 546 
3 563 564 562 
3 522 523 567 
3 523 524 567 
3 524 525 567 
3 525 526 567 
3 526 527 567 
3 527 528 567 
3 568 546 547 
3 528 529 567 
3 529 530 567 
3 530 531 567 
3 562 564 561 
3 569 522 567 
3 510 569 565 
3 502 503 565 
3 503 504 565 
3 504 505 565 
3 568 547 548 
3 505 506 565 
3 506 507 565 
3 566 568 548 
3 507 508 565 
3 570 569 567 
3 571 570 567 
3 572 565 569 
3 570 572 569 
3 572 573 564 
3 572 564 565 
3 574 566 564 
3 573 574 564 
3 575 568 566 
3 574 575 566 
3 571 567 568 
3 575 571 568 
3 572 570 573 
3 570 571 573 
3 571 575 574 
3 573 571 574 